<svg width="1440" height="900" xmlns="http://www.w3.org/2000/svg">
  <!-- 헤더 -->
  <rect x="0" y="0" width="1440" height="60" fill="white" stroke="black" stroke-width="1"/>
  
  <!-- 햄버거 메뉴 아이콘 (좌측 사이드바 토글) -->
  <rect x="15" y="15" width="35" height="30" fill="white" stroke="black" stroke-width="1" stroke-dasharray="3,3"/>
  <text x="32" y="35" font-family="Arial" font-size="12" text-anchor="middle" fill="gray">☰</text>
  
  <text x="70" y="35" font-family="Arial" font-size="20">E-Torch</text>
  <line x1="150" y1="15" x2="150" y2="45" stroke="black" stroke-width="1"/>
  
  <!-- 브레드크럼 영역 -->
  <text x="170" y="35" font-family="Arial" font-size="14" fill="gray">대시보드 > 편집 > 위젯 편집기</text>
  
  <!-- 사용자 프로필 영역 (우측) -->
  <rect x="1320" y="15" width="100" height="30" fill="white" stroke="black" stroke-width="1" stroke-dasharray="3,3"/>
  <text x="1370" y="35" font-family="Arial" font-size="12" text-anchor="middle" fill="gray">사용자 프로필</text>
  
  <!-- 네비게이션 사이드바 -->
  <rect x="0" y="60" width="200" height="840" fill="white" stroke="black" stroke-width="1" stroke-dasharray="3,3"/>
  <text x="100" y="480" font-family="Arial" font-size="14" text-anchor="middle" fill="gray">네비게이션</text>
  <text x="100" y="500" font-family="Arial" font-size="14" text-anchor="middle" fill="gray">사이드바</text>
  
  <!-- 페이지 헤더 -->
  <rect x="200" y="60" width="1240" height="50" fill="white" stroke="black" stroke-width="1"/>
  <text x="220" y="90" font-family="Arial" font-size="18">위젯 생성</text>
  
  <!-- 저장/취소 버튼 (헤더 우측) -->
  <rect x="1250" y="75" width="70" height="25" fill="white" stroke="black" stroke-width="1"/>
  <text x="1285" y="92" font-family="Arial" font-size="12" text-anchor="middle">취소</text>
  
  <rect x="1330" y="75" width="70" height="25" fill="white" stroke="black" stroke-width="2"/>
  <text x="1365" y="92" font-family="Arial" font-size="12" text-anchor="middle">저장</text>
  
  <!-- 글로벌 컨트롤 영역 (전체 너비) -->
  <rect x="200" y="110" width="1240" height="50" fill="white" stroke="black" stroke-width="1"/>
  
  <!-- 기간 설정 -->
  <text x="220" y="137" font-family="Arial" font-size="12">조회 기간:</text>
  <rect x="290" y="125" width="120" height="25" fill="white" stroke="black" stroke-width="1"/>
  <text x="350" y="142" font-family="Arial" font-size="12" text-anchor="middle">최근 1년 ▼</text>
  
  <line x1="430" y1="125" x2="430" y2="150" stroke="lightgray" stroke-width="1"/>
  
  <!-- 주기 설정 -->
  <text x="450" y="137" font-family="Arial" font-size="12">조회 주기:</text>
  <rect x="520" y="125" width="80" height="25" fill="white" stroke="black" stroke-width="1"/>
  <text x="560" y="142" font-family="Arial" font-size="12" text-anchor="middle">월간 ▼</text>
  
  <line x1="620" y1="125" x2="620" y2="150" stroke="lightgray" stroke-width="1"/>
  
  <!-- 위젯 유형 선택 -->
  <rect x="1050" y="125" width="360" height="25" fill="white" stroke="black" stroke-width="2"/>
  <text x="1230" y="142" font-family="Arial" font-size="12" text-anchor="middle">시계열 차트 ▼</text>
  
  <!-- 메인 콘텐츠 영역 -->
  <rect x="200" y="160" width="1240" height="740" fill="white" stroke="black" stroke-width="1"/>
  
  <!-- 좌측 영역 (차트 미리보기 + 데이터 소스) -->
  <rect x="220" y="180" width="800" height="700" fill="white" stroke="lightgray" stroke-width="1"/>
  
  <!-- 위젯 카드 미리보기 영역 (상단) -->
  <rect x="230" y="190" width="780" height="350" fill="white" stroke="black" stroke-width="2"/>
  
  <!-- 위젯 카드 헤더 -->
  <rect x="230" y="190" width="780" height="40" fill="white" stroke="lightgray" stroke-width="1"/>
  <text x="250" y="210" font-family="Arial" font-size="14" font-weight="bold">경제지표 종합 분석</text>
  <text x="250" y="222" font-family="Arial" font-size="12" fill="gray">동행지수와 기준금리의 복합 추이 분석</text>
  
  <!-- 위젯 컨트롤 아이콘들 -->
  <circle cx="970" cy="210" r="8" fill="white" stroke="black" stroke-width="1"/>
  <text x="967" y="214" font-family="Arial" font-size="10">⚙</text>
  
  <circle cx="950" cy="210" r="8" fill="white" stroke="black" stroke-width="1"/>
  <text x="947" y="214" font-family="Arial" font-size="10">↗</text>
  
  <!-- 실제 차트 콘텐츠 영역 (2개 시리즈 표시) -->
  <rect x="250" y="240" width="740" height="280" fill="white" stroke="lightgray" stroke-width="1"/>
  
  <!-- 차트 축 -->
  <line x1="270" y1="490" x2="950" y2="490" stroke="black" stroke-width="1"/>
  <line x1="270" y1="260" x2="270" y2="490" stroke="black" stroke-width="1"/>
  
  <!-- 시리즈 1: 동행지수 (선형) -->
  <polyline points="270,440 350,420 430,430 510,400 590,380 670,390 750,360 830,370 910,340 950,350" fill="none" stroke="black" stroke-width="2"/>
  
  <!-- 시리즈 2: 기준금리 (막대) -->
  <rect x="290" y="450" width="20" height="40" fill="white" stroke="black" stroke-width="2"/>
  <rect x="370" y="460" width="20" height="30" fill="white" stroke="black" stroke-width="2"/>
  <rect x="450" y="455" width="20" height="35" fill="white" stroke="black" stroke-width="2"/>
  <rect x="530" y="465" width="20" height="25" fill="white" stroke="black" stroke-width="2"/>
  <rect x="610" y="470" width="20" height="20" fill="white" stroke="black" stroke-width="2"/>
  <rect x="690" y="465" width="20" height="25" fill="white" stroke="black" stroke-width="2"/>
  <rect x="770" y="460" width="20" height="30" fill="white" stroke="black" stroke-width="2"/>
  <rect x="850" y="470" width="20" height="20" fill="white" stroke="black" stroke-width="2"/>
  
  <!-- 범례 표시 -->
  <rect x="280" y="270" width="200" height="40" fill="white" stroke="lightgray" stroke-width="1"/>
  <line x1="290" y1="285" x2="310" y2="285" stroke="black" stroke-width="2"/>
  <text x="320" y="288" font-family="Arial" font-size="11">동행종합지수</text>
  <rect x="290" y="295" width="15" height="10" fill="white" stroke="black" stroke-width="2"/>
  <text x="320" y="302" font-family="Arial" font-size="11">기준금리</text>
  
  <!-- 축 레이블 -->
  <text x="300" y="505" font-family="Arial" font-size="10">2024-06</text>
  <text x="620" y="505" font-family="Arial" font-size="10">2024-12</text>
  <text x="900" y="505" font-family="Arial" font-size="10">2025-04</text>
  
  <!-- 수평 리사이즈 핸들 -->
  <rect x="220" y="545" width="800" height="8" fill="lightgray" stroke="black" stroke-width="1"/>
  <rect x="600" y="547" width="40" height="4" fill="gray" stroke="none"/>
  <text x="620" y="552" font-family="Arial" font-size="8" text-anchor="middle" fill="gray">⟷</text>
  
  <!-- 데이터 설정 영역 (하단, 2개 시리즈 - 색상 제거) -->
  <rect x="230" y="560" width="780" height="310" fill="white" stroke="lightgray" stroke-width="1" stroke-dasharray="2,2"/>
  
  <!-- 데이터 설정 탭 헤더 -->
  <rect x="240" y="570" width="760" height="30" fill="white" stroke="lightgray" stroke-width="1"/>
  <rect x="250" y="575" width="80" height="20" fill="white" stroke="black" stroke-width="2"/>
  <text x="290" y="588" font-family="Arial" font-size="11" text-anchor="middle">데이터 설정</text>
  
  <rect x="340" y="575" width="100" height="20" fill="white" stroke="lightgray" stroke-width="1"/>
  <text x="390" y="588" font-family="Arial" font-size="11" text-anchor="middle" fill="gray">데이터 미리보기</text>
  
  <!-- 시리즈 1: 동행종합지수 (색상 제거) -->
  <rect x="250" y="610" width="740" height="80" fill="white" stroke="black" stroke-width="1"/>
  <text x="260" y="625" font-family="Arial" font-size="10" fill="gray">시리즈 1 (series-1)</text>
  
  <!-- 첫 번째 줄 -->
  <text x="270" y="645" font-family="Arial" font-size="12">데이터 출처</text>
  <rect x="340" y="630" width="80" height="25" fill="white" stroke="black" stroke-width="1"/>
  <text x="380" y="647" font-family="Arial" font-size="11" text-anchor="middle">KOSIS ▼</text>
  
  <text x="430" y="645" font-family="Arial" font-size="12">지표</text>
  <rect x="460" y="630" width="140" height="25" fill="white" stroke="black" stroke-width="1"/>
  <text x="530" y="647" font-family="Arial" font-size="11" text-anchor="middle">동행종합지수 ▼</text>
  
  <text x="610" y="645" font-family="Arial" font-size="12">변환</text>
  <rect x="640" y="630" width="80" height="25" fill="white" stroke="black" stroke-width="1"/>
  <text x="680" y="647" font-family="Arial" font-size="10" text-anchor="middle">원본값 ▼</text>
  
  <rect x="730" y="630" width="20" height="25" fill="white" stroke="black" stroke-width="1"/>
  <text x="740" y="647" font-family="Arial" font-size="12" text-anchor="middle">✕</text>
  
  <!-- 두 번째 줄 (색상 제거) -->
  <text x="270" y="675" font-family="Arial" font-size="12">시리즈명</text>
  <rect x="340" y="660" width="120" height="25" fill="white" stroke="black" stroke-width="1"/>
  <text x="400" y="677" font-family="Arial" font-size="11" text-anchor="middle">동행종합지수</text>
  
  <text x="470" y="675" font-family="Arial" font-size="12">Y축</text>
  <rect x="500" y="660" width="60" height="25" fill="white" stroke="black" stroke-width="1"/>
  <text x="530" y="677" font-family="Arial" font-size="10" text-anchor="middle">주축 ▼</text>
  
  <!-- 시리즈 2: 기준금리 (색상 제거) -->
  <rect x="250" y="700" width="740" height="80" fill="white" stroke="black" stroke-width="1"/>
  <text x="260" y="715" font-family="Arial" font-size="10" fill="gray">시리즈 2 (series-2)</text>
  
  <!-- 첫 번째 줄 -->
  <text x="270" y="735" font-family="Arial" font-size="12">데이터 출처</text>
  <rect x="340" y="720" width="80" height="25" fill="white" stroke="black" stroke-width="1"/>
  <text x="380" y="737" font-family="Arial" font-size="11" text-anchor="middle">ECOS ▼</text>
  
  <text x="430" y="735" font-family="Arial" font-size="12">지표</text>
  <rect x="460" y="720" width="140" height="25" fill="white" stroke="black" stroke-width="1"/>
  <text x="530" y="737" font-family="Arial" font-size="11" text-anchor="middle">기준금리 ▼</text>
  
  <text x="610" y="735" font-family="Arial" font-size="12">변환</text>
  <rect x="640" y="720" width="80" height="25" fill="white" stroke="black" stroke-width="1"/>
  <text x="680" y="737" font-family="Arial" font-size="10" text-anchor="middle">원본값 ▼</text>
  
  <rect x="730" y="720" width="20" height="25" fill="white" stroke="black" stroke-width="1"/>
  <text x="740" y="737" font-family="Arial" font-size="12" text-anchor="middle">✕</text>
  
  <!-- 두 번째 줄 (색상 제거) -->
  <text x="270" y="765" font-family="Arial" font-size="12">시리즈명</text>
  <rect x="340" y="750" width="120" height="25" fill="white" stroke="black" stroke-width="1"/>
  <text x="400" y="767" font-family="Arial" font-size="11" text-anchor="middle">기준금리</text>
  
  <text x="470" y="765" font-family="Arial" font-size="12">Y축</text>
  <rect x="500" y="750" width="60" height="25" fill="white" stroke="black" stroke-width="1"/>
  <text x="530" y="767" font-family="Arial" font-size="10" text-anchor="middle">보조축 ▼</text>
  
  <!-- Add Query 버튼 -->
  <rect x="250" y="790" width="740" height="30" fill="white" stroke="black" stroke-width="1" stroke-dasharray="3,3"/>
  <text x="570" y="810" font-family="Arial" font-size="12" text-anchor="middle" fill="gray">+ 시리즈 추가 (최대 3개 더)</text>
  
  <!-- 수직 리사이즈 핸들 (좌측과 우측 구분) -->
  <rect x="1025" y="180" width="8" height="700" fill="lightgray" stroke="black" stroke-width="1"/>
  <rect x="1027" y="520" width="4" height="40" fill="gray" stroke="none"/>
  <text x="1029" y="543" font-family="Arial" font-size="8" text-anchor="middle" fill="gray" transform="rotate(-90 1029 543)">⟷</text>
  
  <!-- 우측 옵션 패널 -->
  <rect x="1040" y="180" width="380" height="700" fill="white" stroke="lightgray" stroke-width="1"/>
  
  <!-- Panel Options (접힌) -->
  <rect x="1050" y="190" width="360" height="30" fill="white" stroke="black" stroke-width="1"/>
  <text x="1060" y="210" font-family="Arial" font-size="14" font-weight="bold">패널 옵션 ▶</text>
  
  <!-- Tooltip (접힌) -->
  <rect x="1050" y="230" width="360" height="30" fill="white" stroke="black" stroke-width="1"/>
  <text x="1060" y="250" font-family="Arial" font-size="14" font-weight="bold">툴팁 옵션 ▶</text>
  
  <!-- Legend (접힌) -->
  <rect x="1050" y="270" width="360" height="30" fill="white" stroke="black" stroke-width="1"/>
  <text x="1060" y="290" font-family="Arial" font-size="14" font-weight="bold">범례 옵션 ▶</text>
  
  <!-- X-Axis (접힌) -->
  <rect x="1050" y="310" width="360" height="30" fill="white" stroke="black" stroke-width="1"/>
  <text x="1060" y="330" font-family="Arial" font-size="14" font-weight="bold">X축 옵션 ▶</text>
  
  <!-- Y-Axis (접힌) -->
  <rect x="1050" y="350" width="360" height="30" fill="white" stroke="black" stroke-width="1"/>
  <text x="1060" y="370" font-family="Arial" font-size="14" font-weight="bold">Y축 옵션 ▶</text>
  
  <!-- Y-Axis (Secondary) (접힌) -->
  <rect x="1050" y="390" width="360" height="30" fill="white" stroke="black" stroke-width="1"/>
  <text x="1060" y="410" font-family="Arial" font-size="14" font-weight="bold">Y축 (보조) ▶</text>
  
  <!-- Graph Styles (확장됨) -->
  <rect x="1050" y="430" width="360" height="30" fill="white" stroke="black" stroke-width="2"/>
  <text x="1060" y="450" font-family="Arial" font-size="14" font-weight="bold">그래프 스타일 ▼</text>
  
  <!-- 그래프 스타일 상세 옵션 (개선된 버전) -->
  <rect x="1060" y="470" width="340" height="380" fill="white" stroke="lightgray" stroke-width="1"/>
  
  <!-- 시리즈별 스타일 (제목 변경 + 도움말 아이콘) -->
  <text x="1070" y="490" font-family="Arial" font-size="13" font-weight="bold">시리즈별 스타일</text>
  <circle cx="1190" cy="485" r="8" fill="white" stroke="lightgray" stroke-width="1"/>
  <text x="1190" y="489" font-family="Arial" font-size="10" text-anchor="middle" fill="gray">?</text>
  <line x1="1070" y1="495" x2="1390" y2="495" stroke="lightgray" stroke-width="1"/>
  
  <!-- 시리즈 1 스타일 (개선된 버전) -->
  <rect x="1070" y="505" width="320" height="90" fill="white" stroke="lightgray" stroke-width="1"/>
  <text x="1080" y="520" font-family="Arial" font-size="11" font-weight="bold">series-1 (동행종합지수)</text>
  
  <!-- 첫 번째 줄: 기본 스타일 -->
  <text x="1080" y="540" font-family="Arial" font-size="11">스타일:</text>
  <rect x="1120" y="528" width="60" height="20" fill="white" stroke="black" stroke-width="1"/>
  <text x="1150" y="541" font-family="Arial" font-size="10" text-anchor="middle">Line ▼</text>
  
  <text x="1190" y="540" font-family="Arial" font-size="11">색상:</text>
  <rect x="1220" y="528" width="25" height="20" fill="white" stroke="black" stroke-width="1"/>
  
  <text x="1255" y="540" font-family="Arial" font-size="11">선 두께:</text>
  <rect x="1300" y="528" width="40" height="20" fill="white" stroke="black" stroke-width="1"/>
  <text x="1320" y="541" font-family="Arial" font-size="10" text-anchor="middle">2px</text>
  
  <!-- 두 번째 줄: 추가 옵션 -->
  <text x="1080" y="565" font-family="Arial" font-size="11">선 스타일:</text>
  <rect x="1130" y="553" width="60" height="20" fill="white" stroke="black" stroke-width="1"/>
  <text x="1160" y="566" font-family="Arial" font-size="10" text-anchor="middle">실선 ▼</text>
  
  <text x="1200" y="565" font-family="Arial" font-size="11">투명도:</text>
  <rect x="1245" y="553" width="50" height="20" fill="white" stroke="black" stroke-width="1"/>
  <text x="1270" y="566" font-family="Arial" font-size="10" text-anchor="middle">100%</text>
  
  <!-- 시리즈 2 스타일 (개선된 버전) -->
  <rect x="1070" y="605" width="320" height="90" fill="white" stroke="lightgray" stroke-width="1"/>
  <text x="1080" y="620" font-family="Arial" font-size="11" font-weight="bold">series-2 (기준금리)</text>
  
  <!-- 첫 번째 줄: 기본 스타일 -->
  <text x="1080" y="640" font-family="Arial" font-size="11">스타일:</text>
  <rect x="1120" y="628" width="60" height="20" fill="white" stroke="black" stroke-width="2"/>
  <text x="1150" y="641" font-family="Arial" font-size="10" text-anchor="middle">Bar ▼</text>
  
  <text x="1190" y="640" font-family="Arial" font-size="11">색상:</text>
  <rect x="1220" y="628" width="25" height="20" fill="white" stroke="black" stroke-width="1"/>
  
  <text x="1255" y="640" font-family="Arial" font-size="11">바 너비:</text>
  <rect x="1305" y="628" width="35" height="20" fill="white" stroke="black" stroke-width="1"/>
  <text x="1322" y="641" font-family="Arial" font-size="10" text-anchor="middle">20px</text>
  
  <!-- 두 번째 줄: 추가 옵션 -->
  <text x="1080" y="665" font-family="Arial" font-size="11">모서리:</text>
  <rect x="1120" y="653" width="60" height="20" fill="white" stroke="black" stroke-width="1"/>
  <text x="1150" y="666" font-family="Arial" font-size="10" text-anchor="middle">사각 ▼</text>
  
  <text x="1190" y="665" font-family="Arial" font-size="11">투명도:</text>
  <rect x="1235" y="653" width="50" height="20" fill="white" stroke="black" stroke-width="1"/>
  <text x="1260" y="666" font-family="Arial" font-size="10" text-anchor="middle">90%</text>
  
  <!-- 전역 기본 설정 (GS-002, GS-003에 맞춰 수정) -->
  <text x="1070" y="715" font-family="Arial" font-size="13" font-weight="bold">전역 기본 설정</text>
  <line x1="1070" y1="720" x2="1390" y2="720" stroke="lightgray" stroke-width="1"/>
  
  <rect x="1070" y="730" width="320" height="80" fill="white" stroke="lightgray" stroke-width="1"/>
  
  <text x="1080" y="750" font-family="Arial" font-size="11">기본 선 두께:</text>
  <rect x="1160" y="738" width="50" height="20" fill="white" stroke="black" stroke-width="1"/>
  <text x="1185" y="751" font-family="Arial" font-size="10" text-anchor="middle">1px</text>
  
  <text x="1220" y="750" font-family="Arial" font-size="11">기본 채우기 투명도:</text>
  <rect x="1330" y="738" width="50" height="20" fill="white" stroke="black" stroke-width="1"/>
  <text x="1355" y="751" font-family="Arial" font-size="10" text-anchor="middle">35%</text>
  
  <text x="1080" y="780" font-family="Arial" font-size="11">색상 팔레트:</text>
  <rect x="1150" y="768" width="100" height="20" fill="white" stroke="black" stroke-width="1"/>
  <text x="1200" y="781" font-family="Arial" font-size="10" text-anchor="middle">자동 할당 ▼</text>
  
  <text x="1260" y="780" font-family="Arial" font-size="11">애니메이션:</text>
  <rect x="1310" y="768" width="60" height="20" fill="white" stroke="black" stroke-width="1"/>
  <text x="1340" y="781" font-family="Arial" font-size="10" text-anchor="middle">활성화 ▼</text>
</svg>