<svg width="1440" height="900" xmlns="http://www.w3.org/2000/svg">
  <!-- 헤더 -->
  <rect x="0" y="0" width="1440" height="60" fill="white" stroke="black" stroke-width="1"/>
  
  <!-- 햄버거 메뉴 아이콘 (좌측 사이드바 토글) -->
  <rect x="15" y="15" width="35" height="30" fill="white" stroke="black" stroke-width="1" stroke-dasharray="3,3"/>
  <text x="32" y="35" font-family="Arial" font-size="12" text-anchor="middle" fill="gray">☰</text>
  
  <text x="70" y="35" font-family="Arial" font-size="20">E-Torch</text>
  <line x1="150" y1="15" x2="150" y2="45" stroke="black" stroke-width="1"/>
  
  <!-- 브레드크럼 영역 -->
  <text x="170" y="35" font-family="Arial" font-size="14" fill="gray">대시보드 > 편집 > 위젯 편집기</text>
  
  <!-- 사용자 프로필 영역 (우측) -->
  <rect x="1320" y="15" width="100" height="30" fill="white" stroke="black" stroke-width="1" stroke-dasharray="3,3"/>
  <text x="1370" y="35" font-family="Arial" font-size="12" text-anchor="middle" fill="gray">사용자 프로필</text>
  
  <!-- 네비게이션 사이드바 -->
  <rect x="0" y="60" width="200" height="840" fill="white" stroke="black" stroke-width="1" stroke-dasharray="3,3"/>
  <text x="100" y="480" font-family="Arial" font-size="14" text-anchor="middle" fill="gray">네비게이션</text>
  <text x="100" y="500" font-family="Arial" font-size="14" text-anchor="middle" fill="gray">사이드바</text>
  
  <!-- 페이지 헤더 -->
  <rect x="200" y="60" width="1240" height="50" fill="white" stroke="black" stroke-width="1"/>
  <text x="220" y="90" font-family="Arial" font-size="18">위젯 생성</text>
  
  <!-- 저장/취소 버튼 (헤더 우측) -->
  <rect x="1250" y="75" width="70" height="25" fill="white" stroke="black" stroke-width="1"/>
  <text x="1285" y="92" font-family="Arial" font-size="12" text-anchor="middle">취소</text>
  
  <rect x="1330" y="75" width="70" height="25" fill="white" stroke="black" stroke-width="2"/>
  <text x="1365" y="92" font-family="Arial" font-size="12" text-anchor="middle">저장</text>
  
  <!-- 글로벌 컨트롤 영역 (전체 너비) -->
  <rect x="200" y="110" width="1240" height="50" fill="white" stroke="black" stroke-width="1"/>
  
  <!-- 기간 설정 -->
  <text x="220" y="137" font-family="Arial" font-size="12">조회 기간:</text>
  <rect x="290" y="125" width="120" height="25" fill="white" stroke="black" stroke-width="1"/>
  <text x="350" y="142" font-family="Arial" font-size="12" text-anchor="middle">최근 1년 ▼</text>
  
  <line x1="430" y1="125" x2="430" y2="150" stroke="lightgray" stroke-width="1"/>
  
  <!-- 주기 설정 -->
  <text x="450" y="137" font-family="Arial" font-size="12">조회 주기:</text>
  <rect x="520" y="125" width="80" height="25" fill="white" stroke="black" stroke-width="1"/>
  <text x="560" y="142" font-family="Arial" font-size="12" text-anchor="middle">월간 ▼</text>
  
  <line x1="620" y1="125" x2="620" y2="150" stroke="lightgray" stroke-width="1"/>
  
  <!-- 위젯 유형 선택 -->
  <rect x="1050" y="125" width="360" height="25" fill="white" stroke="black" stroke-width="2"/>
  <text x="1230" y="142" font-family="Arial" font-size="12" text-anchor="middle">시계열 차트 ▼</text>
  
  <!-- 메인 콘텐츠 영역 -->
  <rect x="200" y="160" width="1240" height="740" fill="white" stroke="black" stroke-width="1"/>
  
  <!-- 좌측 영역 (차트 미리보기 + 데이터 소스) -->
  <rect x="220" y="180" width="800" height="700" fill="white" stroke="lightgray" stroke-width="1"/>
  
  <!-- 위젯 카드 미리보기 영역 (상단) -->
  <rect x="230" y="190" width="780" height="350" fill="white" stroke="black" stroke-width="2"/>
  
  <!-- 위젯 카드 헤더 -->
  <rect x="230" y="190" width="780" height="40" fill="white" stroke="lightgray" stroke-width="1"/>
  <text x="250" y="210" font-family="Arial" font-size="14" font-weight="bold">경제성장률과 기준금리 복합 분석</text>
  <text x="250" y="222" font-family="Arial" font-size="12" fill="gray">GDP 성장률(선형)과 기준금리(막대) 통합 시각화</text>
  
  <!-- 실제 차트 콘텐츠 영역 -->
  <rect x="250" y="240" width="740" height="280" fill="white" stroke="lightgray" stroke-width="1"/>
  
  <!-- 복합 차트 표시 (Line + Bar) -->
  <line x1="270" y1="490" x2="950" y2="490" stroke="black" stroke-width="1"/>
  <line x1="270" y1="260" x2="270" y2="490" stroke="black" stroke-width="1"/>
  <line x1="950" y1="260" x2="950" y2="490" stroke="gray" stroke-width="1"/>
  
  <!-- Line 시리즈 (GDP 성장률 - 좌측 Y축, 두꺼운 선) -->
  <polyline points="270,440 350,420 430,430 510,400 590,380 670,390 750,360 830,370 910,340 950,350" fill="none" stroke="black" stroke-width="3"/>
  
  <!-- Bar 시리즈 (기준금리 - 우측 Y축, 투명 막대) -->
  <rect x="290" y="450" width="15" height="40" fill="gray" fill-opacity="0.6"/>
  <rect x="370" y="440" width="15" height="50" fill="gray" fill-opacity="0.6"/>
  <rect x="450" y="430" width="15" height="60" fill="gray" fill-opacity="0.6"/>
  <rect x="530" y="445" width="15" height="45" fill="gray" fill-opacity="0.6"/>
  <rect x="610" y="440" width="15" height="50" fill="gray" fill-opacity="0.6"/>
  <rect x="690" y="435" width="15" height="55" fill="gray" fill-opacity="0.6"/>
  <rect x="770" y="450" width="15" height="40" fill="gray" fill-opacity="0.6"/>
  <rect x="850" y="455" width="15" height="35" fill="gray" fill-opacity="0.6"/>
  <rect x="930" y="445" width="15" height="45" fill="gray" fill-opacity="0.6"/>
  
  <!-- 범례 -->
  <rect x="280" y="500" width="400" height="25" fill="white" stroke="lightgray" stroke-width="1"/>
  <line x1="290" y1="512" x2="310" y2="512" stroke="black" stroke-width="3"/>
  <text x="320" y="517" font-family="Arial" font-size="11">GDP 성장률 (선형, 3px)</text>
  <rect x="450" y="507" width="15" height="10" fill="gray" fill-opacity="0.6"/>
  <text x="475" y="517" font-family="Arial" font-size="11">기준금리 (막대, 60% 투명도)</text>
  
  <!-- 수평 리사이즈 핸들 -->
  <rect x="220" y="545" width="800" height="8" fill="lightgray" stroke="black" stroke-width="1"/>
  <rect x="600" y="547" width="40" height="4" fill="gray" stroke="none"/>
  <text x="620" y="552" font-family="Arial" font-size="8" text-anchor="middle" fill="gray">⟷</text>
  
  <!-- 데이터 설정 영역 (하단, 끝까지 확장) -->
  <rect x="230" y="560" width="780" height="310" fill="white" stroke="lightgray" stroke-width="1" stroke-dasharray="2,2"/>
  
  <!-- 데이터 설정 탭 헤더 -->
  <rect x="240" y="570" width="760" height="30" fill="white" stroke="lightgray" stroke-width="1"/>
  <rect x="250" y="575" width="120" height="20" fill="white" stroke="black" stroke-width="2"/>
  <text x="310" y="588" font-family="Arial" font-size="11" text-anchor="middle">데이터 설정</text>
  
  <!-- 시리즈 1 카드 (GDP 성장률 - Line 스타일) -->
  <rect x="250" y="610" width="740" height="120" fill="white" stroke="black" stroke-width="2"/>
  <text x="260" y="630" font-family="Arial" font-size="12" font-weight="bold">시리즈 1: GDP 성장률</text>
  
  <!-- 데이터 소스 설정 -->
  <text x="270" y="650" font-family="Arial" font-size="11">출처</text>
  <rect x="310" y="638" width="80" height="20" fill="white" stroke="black" stroke-width="1"/>
  <text x="350" y="651" font-family="Arial" font-size="10" text-anchor="middle">KOSIS</text>
  
  <text x="400" y="650" font-family="Arial" font-size="11">지표</text>
  <rect x="430" y="638" width="180" height="20" fill="white" stroke="black" stroke-width="1"/>
  <text x="520" y="651" font-family="Arial" font-size="10" text-anchor="middle">GDP 성장률 (RGDP_YoY_V)</text>
  
  <text x="620" y="650" font-family="Arial" font-size="11">Y축</text>
  <rect x="650" y="638" width="50" height="20" fill="white" stroke="black" stroke-width="1"/>
  <text x="675" y="651" font-family="Arial" font-size="10" text-anchor="middle">주축</text>
  
  <!-- 스타일 설정 (통합됨) -->
  <text x="270" y="675" font-family="Arial" font-size="11">스타일</text>
  <rect x="310" y="663" width="60" height="20" fill="white" stroke="black" stroke-width="2"/>
  <text x="340" y="676" font-family="Arial" font-size="10" text-anchor="middle">선형</text>
  
  <text x="380" y="675" font-family="Arial" font-size="11">선 두께</text>
  <rect x="430" y="663" width="40" height="20" fill="white" stroke="black" stroke-width="1"/>
  <text x="450" y="676" font-family="Arial" font-size="10" text-anchor="middle">3px</text>
  
  <text x="480" y="675" font-family="Arial" font-size="11">색상</text>
  <rect x="510" y="663" width="20" height="20" fill="black" stroke="black" stroke-width="1"/>
  
  <text x="540" y="675" font-family="Arial" font-size="11">변환</text>
  <rect x="570" y="663" width="70" height="20" fill="white" stroke="black" stroke-width="1"/>
  <text x="605" y="676" font-family="Arial" font-size="10" text-anchor="middle">원본값</text>
  
  <!-- 시리즈 제거 버튼 -->
  <rect x="710" y="645" width="20" height="20" fill="white" stroke="black" stroke-width="1"/>
  <text x="720" y="658" font-family="Arial" font-size="12" text-anchor="middle">✕</text>
  
  <!-- 시리즈 이름 (하단) -->
  <text x="270" y="700" font-family="Arial" font-size="11">시리즈 이름</text>
  <rect x="340" y="688" width="200" height="20" fill="white" stroke="black" stroke-width="1"/>
  <text x="440" y="701" font-family="Arial" font-size="10" text-anchor="middle">GDP 성장률</text>
  
  <!-- 시리즈 2 카드 (기준금리 - Bar 스타일) -->
  <rect x="250" y="740" width="740" height="120" fill="white" stroke="black" stroke-width="2"/>
  <text x="260" y="760" font-family="Arial" font-size="12" font-weight="bold">시리즈 2: 기준금리</text>
  
  <!-- 데이터 소스 설정 -->
  <text x="270" y="780" font-family="Arial" font-size="11">출처</text>
  <rect x="310" y="768" width="80" height="20" fill="white" stroke="black" stroke-width="1"/>
  <text x="350" y="781" font-family="Arial" font-size="10" text-anchor="middle">ECOS</text>
  
  <text x="400" y="780" font-family="Arial" font-size="11">지표</text>
  <rect x="430" y="768" width="180" height="20" fill="white" stroke="black" stroke-width="1"/>
  <text x="520" y="781" font-family="Arial" font-size="10" text-anchor="middle">기준금리 (BOK_RATE)</text>
  
  <text x="620" y="780" font-family="Arial" font-size="11">Y축</text>
  <rect x="650" y="768" width="50" height="20" fill="white" stroke="black" stroke-width="1"/>
  <text x="675" y="781" font-family="Arial" font-size="10" text-anchor="middle">보조</text>
  
  <!-- 스타일 설정 (Bar 전용) -->
  <text x="270" y="805" font-family="Arial" font-size="11">스타일</text>
  <rect x="310" y="793" width="60" height="20" fill="white" stroke="black" stroke-width="2"/>
  <text x="340" y="806" font-family="Arial" font-size="10" text-anchor="middle">막대</text>
  
  <text x="380" y="805" font-family="Arial" font-size="11">막대 두께</text>
  <rect x="445" y="793" width="40" height="20" fill="white" stroke="black" stroke-width="1"/>
  <text x="465" y="806" font-family="Arial" font-size="10" text-anchor="middle">15px</text>
  
  <text x="495" y="805" font-family="Arial" font-size="11">색상</text>
  <rect x="525" y="793" width="20" height="20" fill="gray" stroke="black" stroke-width="1"/>
  
  <text x="555" y="805" font-family="Arial" font-size="11">투명도</text>
  <rect x="595" y="793" width="45" height="20" fill="white" stroke="black" stroke-width="1"/>
  <text x="617" y="806" font-family="Arial" font-size="10" text-anchor="middle">60%</text>
  
  <!-- 시리즈 제거 버튼 -->
  <rect x="710" y="775" width="20" height="20" fill="white" stroke="black" stroke-width="1"/>
  <text x="720" y="788" font-family="Arial" font-size="12" text-anchor="middle">✕</text>
  
  <!-- 시리즈 이름 (하단) -->
  <text x="270" y="830" font-family="Arial" font-size="11">시리즈 이름</text>
  <rect x="340" y="818" width="200" height="20" fill="white" stroke="black" stroke-width="1"/>
  <text x="440" y="831" font-family="Arial" font-size="10" text-anchor="middle">기준금리</text>
  
  <!-- Add Query 버튼 -->
  <rect x="250" y="870" width="740" height="30" fill="white" stroke="black" stroke-width="1" stroke-dasharray="3,3"/>
  <text x="620" y="890" font-family="Arial" font-size="12" text-anchor="middle" fill="gray">+ 시리즈 추가 (최대 5개)</text>
  
  <!-- 수직 리사이즈 핸들 (좌측과 우측 구분) -->
  <rect x="1025" y="180" width="8" height="700" fill="lightgray" stroke="black" stroke-width="1"/>
  <rect x="1027" y="520" width="4" height="40" fill="gray" stroke="none"/>
  <text x="1029" y="543" font-family="Arial" font-size="8" text-anchor="middle" fill="gray" transform="rotate(-90 1029 543)">⟷</text>
  
  <!-- 우측 옵션 패널 (Graph Styles 제거됨) -->
  <rect x="1040" y="180" width="380" height="700" fill="white" stroke="lightgray" stroke-width="1"/>
  
  <!-- Panel Options (확장됨) -->
  <rect x="1050" y="190" width="360" height="30" fill="white" stroke="black" stroke-width="1"/>
  <text x="1060" y="210" font-family="Arial" font-size="14" font-weight="bold">패널 옵션 ▼</text>
  
  <text x="1060" y="235" font-family="Arial" font-size="12">제목</text>
  <rect x="1060" y="245" width="340" height="25" fill="white" stroke="black" stroke-width="1"/>
  <text x="1070" y="262" font-family="Arial" font-size="11" fill="black">경제성장률과 기준금리 복합 분석</text>
  
  <text x="1060" y="285" font-family="Arial" font-size="12">설명</text>
  <rect x="1060" y="295" width="340" height="40" fill="white" stroke="black" stroke-width="1"/>
  <text x="1070" y="310" font-family="Arial" font-size="11" fill="black">GDP 성장률(선형)과 기준금리(막대) 통합 시각화</text>
  
  <text x="1060" y="355" font-family="Arial" font-size="12">배경 투명</text>
  <rect x="1350" y="345" width="15" height="15" fill="white" stroke="black" stroke-width="1"/>
  
  <!-- 기타 옵션들 (접힘) -->
  <rect x="1050" y="375" width="360" height="30" fill="white" stroke="black" stroke-width="1"/>
  <text x="1060" y="395" font-family="Arial" font-size="14" font-weight="bold">툴팁 옵션 ▶</text>
  
  <rect x="1050" y="415" width="360" height="30" fill="white" stroke="black" stroke-width="1"/>
  <text x="1060" y="435" font-family="Arial" font-size="14" font-weight="bold">범례 옵션 ▶</text>
  
  <rect x="1050" y="455" width="360" height="30" fill="white" stroke="black" stroke-width="1"/>
  <text x="1060" y="475" font-family="Arial" font-size="14" font-weight="bold">X축 옵션 ▶</text>
  
  <rect x="1050" y="495" width="360" height="30" fill="white" stroke="black" stroke-width="1"/>
  <text x="1060" y="515" font-family="Arial" font-size="14" font-weight="bold">Y축 (주축) ▶</text>
  
  <rect x="1050" y="535" width="360" height="30" fill="white" stroke="black" stroke-width="1"/>
  <text x="1060" y="555" font-family="Arial" font-size="14" font-weight="bold">Y축 (보조) ▶</text>
  
  <!-- 안내 텍스트 -->
  <rect x="1050" y="590" width="360" height="80" fill="white" stroke="lightgray" stroke-width="1" stroke-dasharray="2,2"/>
  <text x="1060" y="615" font-family="Arial" font-size="12" font-weight="bold" fill="gray">시리즈별 스타일 설정</text>
  <text x="1060" y="635" font-family="Arial" font-size="11" fill="gray">각 시리즈의 스타일(선형/영역/막대)과</text>
  <text x="1060" y="650" font-family="Arial" font-size="11" fill="gray">세부 옵션은 좌측 데이터 설정</text>
  <text x="1060" y="665" font-family="Arial" font-size="11" fill="gray">카드에서 개별 설정합니다.</text>
</svg>