<svg width="800" height="600" xmlns="http://www.w3.org/2000/svg">
  <!-- 헤더 -->
  <rect x="0" y="0" width="800" height="60" fill="white" stroke="black" stroke-width="1"/>
  <text x="20" y="35" font-family="Arial" font-size="18">E-Torch</text>
  <line x1="100" y1="15" x2="100" y2="45" stroke="black" stroke-width="1"/>
  <text x="120" y="35" font-family="Arial" font-size="14">대시보드 탐색</text>
  
  <!-- 네비게이션 사이드바 -->
  <rect x="0" y="60" width="200" height="540" fill="white" stroke="black" stroke-width="1"/>
  <text x="20" y="90" font-family="Arial" font-size="14">내 대시보드</text>
  <text x="20" y="120" font-family="Arial" font-size="14">대시보드 탐색</text>
  <text x="20" y="150" font-family="Arial" font-size="14">설정</text>
  <text x="20" y="560" font-family="Arial" font-size="14">사용자 프로필</text>
  
  <!-- 탐색 필터 영역 -->
  <rect x="200" y="60" width="600" height="100" fill="white" stroke="black" stroke-width="1"/>
  <text x="220" y="85" font-family="Arial" font-size="18">전문가 대시보드 탐색</text>
  
  <rect x="220" y="100" width="250" height="30" fill="white" stroke="black" stroke-width="1"/>
  <text x="230" y="120" font-family="Arial" font-size="12">검색...</text>
  
  <text x="490" y="120" font-family="Arial" font-size="12">카테고리:</text>
  <rect x="560" y="100" width="120" height="30" fill="white" stroke="black" stroke-width="1"/>
  <text x="570" y="120" font-family="Arial" font-size="12">전체</text>
  
  <text x="220" y="150" font-family="Arial" font-size="12">정렬:</text>
  <rect x="260" y="130" width="120" height="30" fill="white" stroke="black" stroke-width="1"/>
  <text x="270" y="150" font-family="Arial" font-size="12">구독자 순</text>
  
  <!-- 대시보드 카드 그리드 -->
  <rect x="220" y="180" width="560" height="150" fill="white" stroke="black" stroke-width="1"/>
  <text x="235" y="200" font-family="Arial" font-size="16">금융시장 패턴 대시보드</text>
  <text x="235" y="220" font-family="Arial" font-size="12">작성자: 김경제</text>
  <text x="380" y="220" font-family="Arial" font-size="12">구독자: 1,234명</text>
  
  <rect x="235" y="230" width="300" height="80" fill="white" stroke="lightgray" stroke-width="1" stroke-dasharray="2,2"/>
  <text x="385" y="270" font-family="Arial" font-size="10" text-anchor="middle">대시보드 미리보기</text>
  
  <rect x="560" y="230" width="200" height="30" fill="white" stroke="black" stroke-width="1"/>
  <text x="620" y="250" font-family="Arial" font-size="12" text-anchor="middle">미리보기</text>
  
  <rect x="560" y="270" width="200" height="30" fill="white" stroke="black" stroke-width="1"/>
  <text x="620" y="290" font-family="Arial" font-size="12" text-anchor="middle">구독하기</text>
  
  <line x1="220" y1="340" x2="780" y2="340" stroke="lightgray" stroke-width="1"/>
  
  <rect x="220" y="350" width="560" height="150" fill="white" stroke="black" stroke-width="1"/>
  <text x="235" y="370" font-family="Arial" font-size="16">글로벌 경제 인사이트 대시보드</text>
  <text x="235" y="390" font-family="Arial" font-size="12">작성자: 이글로벌</text>
  <text x="380" y="390" font-family="Arial" font-size="12">구독자: 856명</text>
  
  <rect x="235" y="400" width="300" height="80" fill="white" stroke="lightgray" stroke-width="1" stroke-dasharray="2,2"/>
  <text x="385" y="440" font-family="Arial" font-size="10" text-anchor="middle">대시보드 미리보기</text>
  
  <rect x="560" y="400" width="200" height="30" fill="white" stroke="black" stroke-width="1"/>
  <text x="620" y="420" font-family="Arial" font-size="12" text-anchor="middle">미리보기</text>
  
  <rect x="560" y="440" width="200" height="30" fill="white" stroke="black" stroke-width="1"/>
  <text x="620" y="460" font-family="Arial" font-size="12" text-anchor="middle">구독하기</text>
  
  <line x1="220" y1="510" x2="780" y2="510" stroke="lightgray" stroke-width="1"/>
  
  <!-- 페이지네이션 -->
  <rect x="400" y="530" width="200" height="30" fill="white" stroke="black" stroke-width="1"/>
  <line x1="440" y1="530" x2="440" y2="560" stroke="black" stroke-width="1"/>
  <line x1="480" y1="530" x2="480" y2="560" stroke="black" stroke-width="1"/>
  <line x1="520" y1="530" x2="520" y2="560" stroke="black" stroke-width="1"/>
  <line x1="560" y1="530" x2="560" y2="560" stroke="black" stroke-width="1"/>
  
  <text x="420" y="550" font-family="Arial" font-size="12" text-anchor="middle">1</text>
  <text x="460" y="550" font-family="Arial" font-size="12" text-anchor="middle">2</text>
  <text x="500" y="550" font-family="Arial" font-size="12" text-anchor="middle">3</text>
  <text x="540" y="550" font-family="Arial" font-size="12" text-anchor="middle">4</text>
  <text x="580" y="550" font-family="Arial" font-size="12" text-anchor="middle">></text>
</svg>
