<svg width="800" height="600" xmlns="http://www.w3.org/2000/svg">
  <!-- 헤더 -->
  <rect x="0" y="0" width="800" height="60" fill="white" stroke="black" stroke-width="1"/>
  <text x="20" y="35" font-family="Arial" font-size="18">E-Torch</text>
  <line x1="100" y1="15" x2="100" y2="45" stroke="black" stroke-width="1"/>
  <text x="120" y="35" font-family="Arial" font-size="14">대시보드</text>
  
  <!-- 네비게이션 사이드바 -->
  <rect x="0" y="60" width="200" height="540" fill="white" stroke="black" stroke-width="1"/>
  <text x="20" y="90" font-family="Arial" font-size="14">내 대시보드</text>
  <text x="20" y="120" font-family="Arial" font-size="14">대시보드 탐색</text>
  <text x="20" y="150" font-family="Arial" font-size="14">설정</text>
  <text x="20" y="560" font-family="Arial" font-size="14">사용자 프로필</text>
  
  <!-- 대시보드 컨텐츠 영역 -->
  <rect x="200" y="60" width="600" height="80" fill="white" stroke="black" stroke-width="1"/>
  <text x="220" y="90" font-family="Arial" font-size="18">내 대시보드</text>
  <rect x="220" y="100" width="280" height="30" fill="white" stroke="black" stroke-width="1"/>
  <text x="230" y="120" font-family="Arial" font-size="12">검색...</text>
  <rect x="650" y="100" width="130" height="30" fill="white" stroke="black" stroke-width="1"/>
  <text x="670" y="120" font-family="Arial" font-size="12">+ 새 대시보드</text>
  
  <!-- 대시보드 카드 그리드 -->
  <rect x="220" y="160" width="250" height="180" fill="white" stroke="black" stroke-width="1"/>
  <rect x="230" y="170" width="230" height="130" fill="white" stroke="lightgray" stroke-width="1"/>
  <text x="240" y="190" font-family="Arial" font-size="14">경제 동향 대시보드</text>
  <line x1="230" y1="200" x2="460" y2="200" stroke="lightgray" stroke-width="1"/>
  <rect x="240" y="210" width="210" height="80" fill="white" stroke="lightgray" stroke-width="1" stroke-dasharray="2,2"/>
  <text x="340" y="250" font-family="Arial" font-size="10" text-anchor="middle">차트 미리보기</text>
  <text x="240" y="310" font-family="Arial" font-size="10">최종 업데이트: 2024-05-15</text>
  
  <rect x="490" y="160" width="250" height="180" fill="white" stroke="black" stroke-width="1"/>
  <rect x="500" y="170" width="230" height="130" fill="white" stroke="lightgray" stroke-width="1"/>
  <text x="510" y="190" font-family="Arial" font-size="14">물가 동향 대시보드</text>
  <line x1="500" y1="200" x2="730" y2="200" stroke="lightgray" stroke-width="1"/>
  <rect x="510" y="210" width="210" height="80" fill="white" stroke="lightgray" stroke-width="1" stroke-dasharray="2,2"/>
  <text x="610" y="250" font-family="Arial" font-size="10" text-anchor="middle">차트 미리보기</text>
  <text x="510" y="310" font-family="Arial" font-size="10">최종 업데이트: 2024-05-10</text>
  
  <rect x="220" y="360" width="250" height="180" fill="white" stroke="black" stroke-width="1"/>
  <rect x="230" y="370" width="230" height="130" fill="white" stroke="lightgray" stroke-width="1"/>
  <text x="240" y="390" font-family="Arial" font-size="14">금리/환율 대시보드</text>
  <line x1="230" y1="400" x2="460" y2="400" stroke="lightgray" stroke-width="1"/>
  <rect x="240" y="410" width="210" height="80" fill="white" stroke="lightgray" stroke-width="1" stroke-dasharray="2,2"/>
  <text x="340" y="450" font-family="Arial" font-size="10" text-anchor="middle">차트 미리보기</text>
  <text x="240" y="510" font-family="Arial" font-size="10">최종 업데이트: 2024-05-01</text>
  
  <rect x="490" y="360" width="250" height="180" fill="white" stroke="black" stroke-width="1"/>
  <rect x="500" y="370" width="230" height="130" fill="white" stroke="lightgray" stroke-width="1" stroke-dasharray="5,5"/>
  <text x="610" y="450" font-family="Arial" font-size="14" text-anchor="middle">+ 새 대시보드 추가</text>
</svg>
