
<svg width="800" height="700" xmlns="http://www.w3.org/2000/svg">
  <!-- 헤더 -->
  <rect x="0" y="0" width="800" height="60" fill="white" stroke="black" stroke-width="1"/>
  <text x="20" y="35" font-family="Arial" font-size="18">E-Torch</text>
  <line x1="100" y1="15" x2="100" y2="45" stroke="black" stroke-width="1"/>
  <text x="120" y="35" font-family="Arial" font-size="14">차트 에디터</text>
  
  <!-- 글로벌 컨트롤 영역 (상단) -->
  <rect x="0" y="60" width="800" height="60" fill="white" stroke="black" stroke-width="1"/>
  
  <!-- 차트 유형 선택 -->
  <text x="20" y="85" font-family="Arial" font-size="12">차트 유형:</text>
  <rect x="90" y="70" width="130" height="25" fill="white" stroke="black" stroke-width="1"/>
  <text x="100" y="87" font-family="Arial" font-size="12">시계열</text>
  <polygon points="210,70 220,82 210,95" fill="white" stroke="black" stroke-width="1"/>
  
  <!-- 조회 기간 -->
  <text x="240" y="85" font-family="Arial" font-size="12">조회 기간:</text>
  <rect x="310" y="70" width="180" height="25" fill="white" stroke="black" stroke-width="1"/>
  <text x="320" y="87" font-family="Arial" font-size="12">2023-06-01 ~ 2023-11-30</text>
  
  <!-- 조회 주기 -->
  <text x="510" y="85" font-family="Arial" font-size="12">조회 주기:</text>
  <rect x="580" y="70" width="80" height="25" fill="white" stroke="black" stroke-width="1"/>
  <text x="590" y="87" font-family="Arial" font-size="12">월간(M)</text>
  
  <!-- 저장/취소 버튼 영역 -->
  <rect x="0" y="120" width="800" height="40" fill="white" stroke="black" stroke-width="1"/>
  
  <rect x="20" y="127" width="100" height="25" fill="white" stroke="black" stroke-width="1"/>
  <text x="40" y="144" font-family="Arial" font-size="12">차트 제목:</text>
  
  <rect x="130" y="127" width="240" height="25" fill="white" stroke="black" stroke-width="1"/>
  <text x="140" y="144" font-family="Arial" font-size="12">KOSPI 지수 추이</text>
  
  <rect x="680" y="127" width="100" height="25" fill="white" stroke="black" stroke-width="1"/>
  <text x="717" y="144" font-family="Arial" font-size="12" text-anchor="middle">저장</text>
  
  <rect x="570" y="127" width="100" height="25" fill="white" stroke="black" stroke-width="1"/>
  <text x="607" y="144" font-family="Arial" font-size="12" text-anchor="middle">취소</text>
  
  <!-- 컨텐츠 영역 -->
  <rect x="0" y="160" width="600" height="540" fill="white" stroke="black" stroke-width="1"/>
  
  <!-- 차트 미리보기 영역 -->
  <rect x="20" y="180" width="560" height="240" fill="white" stroke="lightgray" stroke-width="1"/>
  <text x="30" y="200" font-family="Arial" font-size="14">KOSPI 지수 추이</text>
  <line x1="50" y1="230" x2="550" y2="230" stroke="lightgray" stroke-width="1" stroke-dasharray="5,5"/>
  <line x1="50" y1="280" x2="550" y2="280" stroke="lightgray" stroke-width="1" stroke-dasharray="5,5"/>
  <line x1="50" y1="330" x2="550" y2="330" stroke="lightgray" stroke-width="1" stroke-dasharray="5,5"/>
  <line x1="50" y1="380" x2="550" y2="380" stroke="lightgray" stroke-width="1"/>
  <line x1="50" y1="230" x2="50" y2="380" stroke="lightgray" stroke-width="1"/>
  
  <polyline points="50,330 90,340 130,320 170,310 210,330 250,300 290,310 330,290 370,270 410,250 450,260 490,230 530,240" fill="none" stroke="black" stroke-width="2"/>
  
  <text x="50" y="400" font-family="Arial" font-size="10">5월</text>
  <text x="130" y="400" font-family="Arial" font-size="10">6월</text>
  <text x="210" y="400" font-family="Arial" font-size="10">7월</text>
  <text x="290" y="400" font-family="Arial" font-size="10">8월</text>
  <text x="370" y="400" font-family="Arial" font-size="10">9월</text>
  <text x="450" y="400" font-family="Arial" font-size="10">10월</text>
  <text x="530" y="400" font-family="Arial" font-size="10">11월</text>
  
  <!-- 데이터 소스 영역 (하단) -->
  <text x="20" y="450" font-family="Arial" font-size="14">데이터 소스</text>
  
  <!-- 데이터 쿼리 카드 -->
  <rect x="20" y="470" width="560" height="120" fill="white" stroke="black" stroke-width="1"/>
  
  <text x="30" y="490" font-family="Arial" font-size="12">데이터 출처</text>
  <rect x="120" y="475" width="100" height="25" fill="white" stroke="black" stroke-width="1"/>
  <text x="130" y="492" font-family="Arial" font-size="12">KOSIS</text>
  
  <text x="30" y="525" font-family="Arial" font-size="12">지표 코드</text>
  <rect x="120" y="510" width="350" height="25" fill="white" stroke="black" stroke-width="1"/>
  <text x="130" y="527" font-family="Arial" font-size="12">KOSPI</text>
  <text x="480" y="527" font-family="Arial" font-size="12">검색</text>
  
  <text x="30" y="560" font-family="Arial" font-size="12">시리즈 이름</text>
  <rect x="120" y="545" width="160" height="25" fill="white" stroke="black" stroke-width="1"/>
  <text x="130" y="562" font-family="Arial" font-size="12">KOSPI 지수</text>
  
  <text x="290" y="560" font-family="Arial" font-size="12">색상</text>
  <rect x="330" y="545" width="25" height="25" fill="white" stroke="black" stroke-width="1"/>
  
  <text x="370" y="560" font-family="Arial" font-size="12">데이터 변환</text>
  <rect x="450" y="545" width="70" height="25" fill="white" stroke="black" stroke-width="1"/>
  <text x="460" y="562" font-family="Arial" font-size="10">원본값</text>
  
  <rect x="550" y="545" width="25" height="25" fill="white" stroke="black" stroke-width="1"/>
  <text x="555" y="562" font-family="Arial" font-size="12">X</text>
  
  <!-- 시리즈 추가 버튼 -->
  <rect x="20" y="610" width="120" height="30" fill="white" stroke="black" stroke-width="1"/>
  <text x="35" y="630" font-family="Arial" font-size="12">+ 시리즈 추가</text>
  
  <!-- 옵션 패널 (우측) -->
  <rect x="600" y="160" width="200" height="540" fill="white" stroke="black" stroke-width="1"/>
  <text x="610" y="180" font-family="Arial" font-size="14">옵션</text>
  
  <!-- 패널 옵션 -->
  <rect x="610" y="190" width="180" height="30" fill="white" stroke="black" stroke-width="1"/>
  <text x="620" y="210" font-family="Arial" font-size="12">패널 옵션</text>
  
  <text x="620" y="240" font-family="Arial" font-size="10">제목</text>
  <rect x="620" y="250" width="160" height="20" fill="white" stroke="black" stroke-width="1"/>
  <text x="630" y="265" font-family="Arial" font-size="10">KOSPI 지수 추이</text>
  
  <text x="620" y="285" font-family="Arial" font-size="10">설명</text>
  <rect x="620" y="295" width="160" height="40" fill="white" stroke="black" stroke-width="1"/>
  <text x="630" y="310" font-family="Arial" font-size="10">최근 6개월 KOSPI 지수 변화</text>
  
  <text x="620" y="350" font-family="Arial" font-size="10">배경 투명</text>
  <rect x="740" y="345" width="15" height="15" fill="white" stroke="black" stroke-width="1"/>
  
  <!-- 툴팁 옵션 -->
  <rect x="610" y="375" width="180" height="30" fill="white" stroke="black" stroke-width="1"/>
  <text x="620" y="395" font-family="Arial" font-size="12">툴팁 옵션</text>
  
  <!-- 축 옵션 -->
  <rect x="610" y="415" width="180" height="30" fill="white" stroke="black" stroke-width="1"/>
  <text x="620" y="435" font-family="Arial" font-size="12">X축 옵션</text>
  
  <rect x="610" y="455" width="180" height="30" fill="white" stroke="black" stroke-width="1"/>
  <text x="620" y="475" font-family="Arial" font-size="12">Y축 옵션</text>
  
  <!-- 스타일 옵션 -->
  <rect x="610" y="495" width="180" height="30" fill="white" stroke="black" stroke-width="1"/>
  <text x="620" y="515" font-family="Arial" font-size="12">그래프 스타일</text>
  
  <!-- 비교 옵션 -->
  <rect x="610" y="535" width="180" height="30" fill="white" stroke="black" stroke-width="1"/>
  <text x="620" y="555" font-family="Arial" font-size="12">비교 옵션</text>
  
  <!-- 리사이즈 핸들 (재배치 가능한 영역 표시) -->
  <line x1="600" y1="159" x2="600" y2="161" stroke="black" stroke-width="4"/>
  <line x1="599" y1="350" x2="601" y2="350" stroke="black" stroke-width="4"/>
  <line x1="599" y1="540" x2="601" y2="540" stroke="black" stroke-width="4"/>
  <line x1="599" y1="700" x2="601" y2="700" stroke="black" stroke-width="4"/>
  
  <line x1="299" y1="159" x2="301" y2="159" stroke="black" stroke-width="4"/>
  <line x1="499" y1="159" x2="501" y2="159" stroke="black" stroke-width="4"/>
</svg>
