<svg width="1200" height="800" viewBox="0 0 1200 800" xmlns="http://www.w3.org/2000/svg">
  <!-- 배경 -->
  <rect width="1200" height="800" fill="#f8fafc"/>
  
  <!-- 섹션 제목 -->
  <text x="80" y="40" font-family="Inter, sans-serif" font-size="28" font-weight="600" fill="#0c1e3e">5. 차트 컴포넌트</text>
  <line x1="80" y1="55" x2="1120" y2="55" stroke="#e2e8f0" stroke-width="1"/>
  
  <!-- 차트 타입 설명 -->
  <text x="80" y="100" font-family="Inter, sans-serif" font-size="20" font-weight="500" fill="#334155">차트 컴포넌트 유형</text>
  
  <!-- 시계열 차트 -->
  <rect x="80" y="120" width="520" height="300" rx="10" fill="#ffffff" stroke="#e2e8f0" stroke-width="1" filter="drop-shadow(0px 4px 6px rgba(0, 0, 0, 0.05))"/>
  <rect x="80" y="120" width="520" height="50" rx="10 10 0 0" fill="#f8fafc"/>
  <text x="110" y="150" font-family="Inter, sans-serif" font-size="16" font-weight="600" fill="#0c1e3e">시계열 차트 (Time Series)</text>
  <text x="510" y="150" font-family="Inter, sans-serif" font-size="12" font-weight="400" fill="#64748b">ECOS</text>
  <line x1="80" y1="170" x2="600" y2="170" stroke="#f1f5f9" stroke-width="2"/>
  
  <!-- 시계열 차트 내용 -->
  <line x1="110" y1="220" x2="570" y2="220" stroke="#f1f5f9" stroke-width="1" stroke-dasharray="4 4"/>
  <line x1="110" y1="260" x2="570" y2="260" stroke="#f1f5f9" stroke-width="1" stroke-dasharray="4 4"/>
  <line x1="110" y1="300" x2="570" y2="300" stroke="#f1f5f9" stroke-width="1" stroke-dasharray="4 4"/>
  <line x1="110" y1="340" x2="570" y2="340" stroke="#f1f5f9" stroke-width="1" stroke-dasharray="4 4"/>
  <line x1="110" y1="380" x2="570" y2="380" stroke="#f1f5f9" stroke-width="1"/>
  
  <!-- Y축 레이블 -->
  <text x="100" y="225" font-family="Inter, sans-serif" font-size="10" font-weight="400" fill="#64748b" text-anchor="end">4.0%</text>
  <text x="100" y="265" font-family="Inter, sans-serif" font-size="10" font-weight="400" fill="#64748b" text-anchor="end">3.0%</text>
  <text x="100" y="305" font-family="Inter, sans-serif" font-size="10" font-weight="400" fill="#64748b" text-anchor="end">2.0%</text>
  <text x="100" y="345" font-family="Inter, sans-serif" font-size="10" font-weight="400" fill="#64748b" text-anchor="end">1.0%</text>
  <text x="100" y="385" font-family="Inter, sans-serif" font-size="10" font-weight="400" fill="#64748b" text-anchor="end">0.0%</text>
  
  <!-- X축 날짜 레이블 -->
  <text x="110" y="400" font-family="Inter, sans-serif" font-size="10" font-weight="400" fill="#64748b">Q1 2023</text>
  <text x="170" y="400" font-family="Inter, sans-serif" font-size="10" font-weight="400" fill="#64748b">Q2 2023</text>
  <text x="230" y="400" font-family="Inter, sans-serif" font-size="10" font-weight="400" fill="#64748b">Q3 2023</text>
  <text x="290" y="400" font-family="Inter, sans-serif" font-size="10" font-weight="400" fill="#64748b">Q4 2023</text>
  <text x="350" y="400" font-family="Inter, sans-serif" font-size="10" font-weight="400" fill="#64748b">Q1 2024</text>
  <text x="410" y="400" font-family="Inter, sans-serif" font-size="10" font-weight="400" fill="#64748b">Q2 2024</text>
  <text x="470" y="400" font-family="Inter, sans-serif" font-size="10" font-weight="400" fill="#64748b">Q3 2024</text>
  <text x="530" y="400" font-family="Inter, sans-serif" font-size="10" font-weight="400" fill="#64748b">Q4 2024</text>

  <!-- 실제 데이터 라인 -->
  <polyline points="110,340 170,330 230,310 290,320 350,300 410,280 470,260 530,240" fill="none" stroke="#1b3a6b" stroke-width="2.5"/>
  
  <!-- 추세선 (기능 명세서에 있는 장단기 추세선 자동 생성 적용) -->
  <polyline points="110,350 170,335 230,320 290,305 350,290 410,275 470,260 530,245" fill="none" stroke="#dc2626" stroke-width="1.5" stroke-dasharray="5 3"/>
  <text x="540" y="245" font-family="Inter, sans-serif" font-size="10" font-weight="400" fill="#dc2626" text-anchor="end">추세선</text>
  
  <!-- 바 차트 -->
  <rect x="620" y="120" width="500" height="300" rx="10" fill="#ffffff" stroke="#e2e8f0" stroke-width="1" filter="drop-shadow(0px 4px 6px rgba(0, 0, 0, 0.05))"/>
  <rect x="620" y="120" width="500" height="50" rx="10 10 0 0" fill="#f8fafc"/>
  <text x="650" y="150" font-family="Inter, sans-serif" font-size="16" font-weight="600" fill="#0c1e3e">바 차트 (Bar Chart)</text>
  <text x="1040" y="150" font-family="Inter, sans-serif" font-size="12" font-weight="400" fill="#64748b">KOSIS</text>
  <line x1="620" y1="170" x2="1120" y2="170" stroke="#f1f5f9" stroke-width="2"/>
  
  <!-- 바 차트 내용 -->
  <line x1="650" y1="220" x2="1090" y2="220" stroke="#f1f5f9" stroke-width="1" stroke-dasharray="4 4"/>
  <line x1="650" y1="260" x2="1090" y2="260" stroke="#f1f5f9" stroke-width="1" stroke-dasharray="4 4"/>
  <line x1="650" y1="300" x2="1090" y2="300" stroke="#f1f5f9" stroke-width="1" stroke-dasharray="4 4"/>
  <line x1="650" y1="340" x2="1090" y2="340" stroke="#f1f5f9" stroke-width="1" stroke-dasharray="4 4"/>
  <line x1="650" y1="380" x2="1090" y2="380" stroke="#f1f5f9" stroke-width="1"/>
  
  <!-- Y축 레이블 -->
  <text x="640" y="225" font-family="Inter, sans-serif" font-size="10" font-weight="400" fill="#64748b" text-anchor="end">8%</text>
  <text x="640" y="265" font-family="Inter, sans-serif" font-size="10" font-weight="400" fill="#64748b" text-anchor="end">6%</text>
  <text x="640" y="305" font-family="Inter, sans-serif" font-size="10" font-weight="400" fill="#64748b" text-anchor="end">4%</text>
  <text x="640" y="345" font-family="Inter, sans-serif" font-size="10" font-weight="400" fill="#64748b" text-anchor="end">2%</text>
  <text x="640" y="385" font-family="Inter, sans-serif" font-size="10" font-weight="400" fill="#64748b" text-anchor="end">0%</text>
  
  <!-- 바 차트 데이터 -->
  <rect x="670" y="300" width="30" height="80" fill="#1c7ed6"/>
  <rect x="720" y="280" width="30" height="100" fill="#1c7ed6"/>
  <rect x="770" y="320" width="30" height="60" fill="#1c7ed6"/>
  <rect x="820" y="240" width="30" height="140" fill="#1c7ed6"/>
  <rect x="870" y="260" width="30" height="120" fill="#1c7ed6"/>
  <rect x="920" y="340" width="30" height="40" fill="#1c7ed6"/>
  <rect x="970" y="220" width="30" height="160" fill="#1c7ed6"/>
  <rect x="1020" y="290" width="30" height="90" fill="#1c7ed6"/>
  
  <!-- X축 레이블 -->
  <text x="685" y="400" font-family="Inter, sans-serif" font-size="10" font-weight="400" fill="#64748b">Q1</text>
  <text x="735" y="400" font-family="Inter, sans-serif" font-size="10" font-weight="400" fill="#64748b">Q2</text>
  <text x="785" y="400" font-family="Inter, sans-serif" font-size="10" font-weight="400" fill="#64748b">Q3</text>
  <text x="835" y="400" font-family="Inter, sans-serif" font-size="10" font-weight="400" fill="#64748b">Q4</text>
  <text x="885" y="400" font-family="Inter, sans-serif" font-size="10" font-weight="400" fill="#64748b">Q1</text>
  <text x="935" y="400" font-family="Inter, sans-serif" font-size="10" font-weight="400" fill="#64748b">Q2</text>
  <text x="985" y="400" font-family="Inter, sans-serif" font-size="10" font-weight="400" fill="#64748b">Q3</text>
  <text x="1035" y="400" font-family="Inter, sans-serif" font-size="10" font-weight="400" fill="#64748b">Q4</text>
  
  <!-- 산점도 차트 -->
  <rect x="80" y="440" width="520" height="300" rx="10" fill="#ffffff" stroke="#e2e8f0" stroke-width="1" filter="drop-shadow(0px 4px 6px rgba(0, 0, 0, 0.05))"/>
  <rect x="80" y="440" width="520" height="50" rx="10 10 0 0" fill="#f8fafc"/>
  <text x="110" y="470" font-family="Inter, sans-serif" font-size="16" font-weight="600" fill="#0c1e3e">산점도 차트 (Scatter Chart)</text>
  <text x="510" y="470" font-family="Inter, sans-serif" font-size="12" font-weight="400" fill="#64748b">ECOS/KOSIS</text>
  <line x1="80" y1="490" x2="600" y2="490" stroke="#f1f5f9" stroke-width="2"/>
  
  <!-- 산점도 그리드 -->
  <line x1="110" y1="540" x2="570" y2="540" stroke="#f1f5f9" stroke-width="1" stroke-dasharray="4 4"/>
  <line x1="110" y1="580" x2="570" y2="580" stroke="#f1f5f9" stroke-width="1" stroke-dasharray="4 4"/>
  <line x1="110" y1="620" x2="570" y2="620" stroke="#f1f5f9" stroke-width="1" stroke-dasharray="4 4"/>
  <line x1="110" y1="660" x2="570" y2="660" stroke="#f1f5f9" stroke-width="1" stroke-dasharray="4 4"/>
  <line x1="110" y1="700" x2="570" y2="700" stroke="#f1f5f9" stroke-width="1"/>
  
  <line x1="110" y1="540" x2="110" y2="700" stroke="#f1f5f9" stroke-width="1" stroke-dasharray="4 4"/>
  <line x1="170" y1="540" x2="170" y2="700" stroke="#f1f5f9" stroke-width="1" stroke-dasharray="4 4"/>
  <line x1="230" y1="540" x2="230" y2="700" stroke="#f1f5f9" stroke-width="1" stroke-dasharray="4 4"/>
  <line x1="290" y1="540" x2="290" y2="700" stroke="#f1f5f9" stroke-width="1" stroke-dasharray="4 4"/>
  <line x1="350" y1="540" x2="350" y2="700" stroke="#f1f5f9" stroke-width="1" stroke-dasharray="4 4"/>
  <line x1="410" y1="540" x2="410" y2="700" stroke="#f1f5f9" stroke-width="1" stroke-dasharray="4 4"/>
  <line x1="470" y1="540" x2="470" y2="700" stroke="#f1f5f9" stroke-width="1" stroke-dasharray="4 4"/>
  <line x1="530" y1="540" x2="530" y2="700" stroke="#f1f5f9" stroke-width="1" stroke-dasharray="4 4"/>
  
  <!-- 축 레이블 -->
  <text x="100" y="540" font-family="Inter, sans-serif" font-size="10" font-weight="400" fill="#64748b" text-anchor="end">8%</text>
  <text x="100" y="580" font-family="Inter, sans-serif" font-size="10" font-weight="400" fill="#64748b" text-anchor="end">6%</text>
  <text x="100" y="620" font-family="Inter, sans-serif" font-size="10" font-weight="400" fill="#64748b" text-anchor="end">4%</text>
  <text x="100" y="660" font-family="Inter, sans-serif" font-size="10" font-weight="400" fill="#64748b" text-anchor="end">2%</text>
  <text x="100" y="700" font-family="Inter, sans-serif" font-size="10" font-weight="400" fill="#64748b" text-anchor="end">0%</text>
  
  <text x="110" y="715" font-family="Inter, sans-serif" font-size="10" font-weight="400" fill="#64748b">0%</text>
  <text x="170" y="715" font-family="Inter, sans-serif" font-size="10" font-weight="400" fill="#64748b">1%</text>
  <text x="230" y="715" font-family="Inter, sans-serif" font-size="10" font-weight="400" fill="#64748b">2%</text>
  <text x="290" y="715" font-family="Inter, sans-serif" font-size="10" font-weight="400" fill="#64748b">3%</text>
  <text x="350" y="715" font-family="Inter, sans-serif" font-size="10" font-weight="400" fill="#64748b">4%</text>
  <text x="410" y="715" font-family="Inter, sans-serif" font-size="10" font-weight="400" fill="#64748b">5%</text>
  <text x="470" y="715" font-family="Inter, sans-serif" font-size="10" font-weight="400" fill="#64748b">6%</text>
  <text x="530" y="715" font-family="Inter, sans-serif" font-size="10" font-weight="400" fill="#64748b">7%</text>
  
  <!-- 산점도 포인트 -->
  <circle cx="230" cy="620" r="6" fill="#1b3a6b"/>
  <circle cx="290" cy="580" r="6" fill="#1b3a6b"/>
  <circle cx="410" cy="600" r="6" fill="#1b3a6b"/>
  <circle cx="350" cy="660" r="6" fill="#1b3a6b"/>
  <circle cx="170" cy="640" r="6" fill="#1b3a6b"/>
  <circle cx="470" cy="560" r="6" fill="#1b3a6b"/>
  <circle cx="350" cy="560" r="6" fill="#1b3a6b"/>
  <circle cx="230" cy="680" r="6" fill="#1b3a6b"/>
  <circle cx="290" cy="620" r="6" fill="#1b3a6b"/>
  <circle cx="410" cy="540" r="6" fill="#1b3a6b"/>
  
  <!-- 회귀선 (특정 이벤트 포인트 마킹 기능 적용) -->
  <line x1="110" y1="670" x2="530" y2="560" stroke="#dc2626" stroke-width="1.5" stroke-dasharray="5 3"/>
  <text x="520" y="550" font-family="Inter, sans-serif" font-size="10" font-weight="400" fill="#dc2626">회귀선</text>
  
  <!-- 레이더 차트 -->
  <rect x="620" y="440" width="500" height="300" rx="10" fill="#ffffff" stroke="#e2e8f0" stroke-width="1" filter="drop-shadow(0px 4px 6px rgba(0, 0, 0, 0.05))"/>
  <rect x="620" y="440" width="500" height="50" rx="10 10 0 0" fill="#f8fafc"/>
  <text x="650" y="470" font-family="Inter, sans-serif" font-size="16" font-weight="600" fill="#0c1e3e">레이더 차트 (Radar Chart)</text>
  <text x="1040" y="470" font-family="Inter, sans-serif" font-size="12" font-weight="400" fill="#64748b">OECD</text>
  <line x1="620" y1="490" x2="1120" y2="490" stroke="#f1f5f9" stroke-width="2"/>
  
  <!-- 레이더 차트 영역 -->
  <circle cx="870" cy="590" r="140" fill="none" stroke="#f1f5f9" stroke-width="1" stroke-dasharray="4 4"/>
  <circle cx="870" cy="590" r="105" fill="none" stroke="#f1f5f9" stroke-width="1" stroke-dasharray="4 4"/>
  <circle cx="870" cy="590" r="70" fill="none" stroke="#f1f5f9" stroke-width="1" stroke-dasharray="4 4"/>
  <circle cx="870" cy="590" r="35" fill="none" stroke="#f1f5f9" stroke-width="1" stroke-dasharray="4 4"/>
  
  <!-- 레이더 축 -->
  <line x1="870" y1="450" x2="870" y2="730" stroke="#f1f5f9" stroke-width="1"/>
  <line x1="730" y1="590" x2="1010" y2="590" stroke="#f1f5f9" stroke-width="1"/>
  <line x1="788" y1="488" x2="952" y2="692" stroke="#f1f5f9" stroke-width="1"/>
  <line x1="788" y1="692" x2="952" y2="488" stroke="#f1f5f9" stroke-width="1"/>
  
  <!-- 레이더 차트 데이터 -->
  <polygon points="870,480 800,550 800,640 870,690 940,640 940,550" fill="#1c7ed6" fill-opacity="0.3" stroke="#1c7ed6" stroke-width="2"/>
  
  <!-- 레이더 차트 레이블 -->
  <text x="870" y="440" font-family="Inter, sans-serif" font-size="10" font-weight="500" fill="#334155" text-anchor="middle">경제성장률</text>
  <text x="1020" y="590" font-family="Inter, sans-serif" font-size="10" font-weight="500" fill="#334155" text-anchor="start">물가상승률</text>
  <text x="960" y="480" font-family="Inter, sans-serif" font-size="10" font-weight="500" fill="#334155" text-anchor="start">고용률</text>
  <text x="960" y="700" font-family="Inter, sans-serif" font-size="10" font-weight="500" fill="#334155" text-anchor="start">가계부채비율</text>
  <text x="780" y="700" font-family="Inter, sans-serif" font-size="10" font-weight="500" fill="#334155" text-anchor="end">재정적자</text>
  <text x="780" y="480" font-family="Inter, sans-serif" font-size="10" font-weight="500" fill="#334155" text-anchor="end">무역수지</text>
  <text x="720" y="590" font-family="Inter, sans-serif" font-size="10" font-weight="500" fill="#334155" text-anchor="end">외환보유고</text>
</svg>