<svg width="1200" height="4200" viewBox="0 0 1200 4200" xmlns="http://www.w3.org/2000/svg">
  <!-- 배경 -->
  <rect width="1200" height="4200" fill="#f8fafc"/>
  
  <!-- 타이틀 섹션 -->
  <g>
    <rect x="0" y="0" width="1200" height="140" fill="#0c1e3e"/>
    <text x="80" y="80" font-family="Inter, sans-serif" font-size="42" font-weight="600" fill="#ffffff">E-Torch 디자인 시스템</text>
    <text x="80" y="110" font-family="Inter, sans-serif" font-size="16" font-weight="300" fill="#ffffff" letter-spacing="0.025em">경제지표 대시보드 서비스 - 명세에 기반한 UI 컴포넌트</text>
  </g>

  <!-- 1. 색상 팔레트 섹션 -->
  <g transform="translate(0, 180)">
    <text x="80" y="40" font-family="Inter, sans-serif" font-size="28" font-weight="600" fill="#0c1e3e">1. 색상 팔레트</text>
    <line x1="80" y1="55" x2="1120" y2="55" stroke="#e2e8f0" stroke-width="1"/>
    
    <!-- 브랜드 색상 -->
    <text x="80" y="100" font-family="Inter, sans-serif" font-size="20" font-weight="500" fill="#334155">브랜드 색상</text>
    
    <rect x="80" y="120" width="180" height="90" rx="6" fill="#0c1e3e" filter="drop-shadow(0px 2px 4px rgba(0, 0, 0, 0.1))"/>
    <text x="170" y="165" font-family="Inter, sans-serif" font-size="16" font-weight="500" fill="#ffffff" text-anchor="middle">Primary</text>
    <text x="170" y="190" font-family="Inter, sans-serif" font-size="14" font-weight="400" fill="#ffffff" text-anchor="middle">#0c1e3e</text>
    
    <rect x="280" y="120" width="180" height="90" rx="6" fill="#1a56db" filter="drop-shadow(0px 2px 4px rgba(0, 0, 0, 0.1))"/>
    <text x="370" y="165" font-family="Inter, sans-serif" font-size="16" font-weight="500" fill="#ffffff" text-anchor="middle">Secondary</text>
    <text x="370" y="190" font-family="Inter, sans-serif" font-size="14" font-weight="400" fill="#ffffff" text-anchor="middle">#1a56db</text>
    
    <rect x="480" y="120" width="180" height="90" rx="6" fill="#0284c7" filter="drop-shadow(0px 2px 4px rgba(0, 0, 0, 0.1))"/>
    <text x="570" y="165" font-family="Inter, sans-serif" font-size="16" font-weight="500" fill="#ffffff" text-anchor="middle">Tertiary</text>
    <text x="570" y="190" font-family="Inter, sans-serif" font-size="14" font-weight="400" fill="#ffffff" text-anchor="middle">#0284c7</text>
    
    <!-- 중립 색상 -->
    <text x="80" y="250" font-family="Inter, sans-serif" font-size="20" font-weight="500" fill="#334155">중립 색상</text>
    
    <rect x="80" y="270" width="140" height="70" rx="6" fill="#ffffff" stroke="#e2e8f0" filter="drop-shadow(0px 2px 4px rgba(0, 0, 0, 0.05))"/>
    <text x="150" y="305" font-family="Inter, sans-serif" font-size="16" font-weight="500" fill="#0f172a" text-anchor="middle">Background</text>
    <text x="150" y="325" font-family="Inter, sans-serif" font-size="12" font-weight="400" fill="#64748b" text-anchor="middle">#ffffff</text>
    
    <rect x="240" y="270" width="140" height="70" rx="6" fill="#f8fafc" stroke="#e2e8f0" filter="drop-shadow(0px 2px 4px rgba(0, 0, 0, 0.05))"/>
    <text x="310" y="305" font-family="Inter, sans-serif" font-size="16" font-weight="500" fill="#0f172a" text-anchor="middle">Surface</text>
    <text x="310" y="325" font-family="Inter, sans-serif" font-size="12" font-weight="400" fill="#64748b" text-anchor="middle">#f8fafc</text>
    
    <rect x="400" y="270" width="140" height="70" rx="6" fill="#f1f5f9" stroke="#e2e8f0" filter="drop-shadow(0px 2px 4px rgba(0, 0, 0, 0.05))"/>
    <text x="470" y="305" font-family="Inter, sans-serif" font-size="16" font-weight="500" fill="#0f172a" text-anchor="middle">Surface Alt</text>
    <text x="470" y="325" font-family="Inter, sans-serif" font-size="12" font-weight="400" fill="#64748b" text-anchor="middle">#f1f5f9</text>
    
    <rect x="560" y="270" width="140" height="70" rx="6" fill="#ffffff" stroke="#e2e8f0" filter="drop-shadow(0px 2px 4px rgba(0, 0, 0, 0.05))"/>
    <text x="630" y="305" font-family="Inter, sans-serif" font-size="16" font-weight="500" fill="#0f172a" text-anchor="middle">Border</text>
    <text x="630" y="325" font-family="Inter, sans-serif" font-size="12" font-weight="400" fill="#64748b" text-anchor="middle">#e2e8f0</text>
    
    <rect x="720" y="270" width="140" height="70" rx="6" fill="#0f172a" filter="drop-shadow(0px 2px 4px rgba(0, 0, 0, 0.05))"/>
    <text x="790" y="305" font-family="Inter, sans-serif" font-size="16" font-weight="500" fill="#ffffff" text-anchor="middle">Text Primary</text>
    <text x="790" y="325" font-family="Inter, sans-serif" font-size="12" font-weight="400" fill="#cbd5e1" text-anchor="middle">#0f172a</text>
    
    <rect x="880" y="270" width="140" height="70" rx="6" fill="#334155" filter="drop-shadow(0px 2px 4px rgba(0, 0, 0, 0.05))"/>
    <text x="950" y="305" font-family="Inter, sans-serif" font-size="16" font-weight="500" fill="#ffffff" text-anchor="middle">Text Secondary</text>
    <text x="950" y="325" font-family="Inter, sans-serif" font-size="12" font-weight="400" fill="#cbd5e1" text-anchor="middle">#334155</text>
    
    <!-- 액센트 색상 -->
    <text x="80" y="380" font-family="Inter, sans-serif" font-size="20" font-weight="500" fill="#334155">액센트 색상</text>
    
    <rect x="80" y="400" width="140" height="70" rx="6" fill="#059669" filter="drop-shadow(0px 2px 4px rgba(0, 0, 0, 0.1))"/>
    <text x="150" y="435" font-family="Inter, sans-serif" font-size="16" font-weight="500" fill="#ffffff" text-anchor="middle">Success</text>
    <text x="150" y="455" font-family="Inter, sans-serif" font-size="12" font-weight="400" fill="#e2e8f0" text-anchor="middle">#059669</text>
    
    <rect x="240" y="400" width="140" height="70" rx="6" fill="#d97706" filter="drop-shadow(0px 2px 4px rgba(0, 0, 0, 0.1))"/>
    <text x="310" y="435" font-family="Inter, sans-serif" font-size="16" font-weight="500" fill="#ffffff" text-anchor="middle">Warning</text>
    <text x="310" y="455" font-family="Inter, sans-serif" font-size="12" font-weight="400" fill="#e2e8f0" text-anchor="middle">#d97706</text>
    
    <rect x="400" y="400" width="140" height="70" rx="6" fill="#dc2626" filter="drop-shadow(0px 2px 4px rgba(0, 0, 0, 0.1))"/>
    <text x="470" y="435" font-family="Inter, sans-serif" font-size="16" font-weight="500" fill="#ffffff" text-anchor="middle">Danger</text>
    <text x="470" y="455" font-family="Inter, sans-serif" font-size="12" font-weight="400" fill="#e2e8f0" text-anchor="middle">#dc2626</text>
    
    <rect x="560" y="400" width="140" height="70" rx="6" fill="#2563eb" filter="drop-shadow(0px 2px 4px rgba(0, 0, 0, 0.1))"/>
    <text x="630" y="435" font-family="Inter, sans-serif" font-size="16" font-weight="500" fill="#ffffff" text-anchor="middle">Info</text>
    <text x="630" y="455" font-family="Inter, sans-serif" font-size="12" font-weight="400" fill="#e2e8f0" text-anchor="middle">#2563eb</text>
    
    <rect x="720" y="400" width="140" height="70" rx="6" fill="#7c3aed" filter="drop-shadow(0px 2px 4px rgba(0, 0, 0, 0.1))"/>
    <text x="790" y="435" font-family="Inter, sans-serif" font-size="16" font-weight="500" fill="#ffffff" text-anchor="middle">Highlight</text>
    <text x="790" y="455" font-family="Inter, sans-serif" font-size="12" font-weight="400" fill="#e2e8f0" text-anchor="middle">#7c3aed</text>
    
    <!-- 차트 색상 -->
    <text x="80" y="510" font-family="Inter, sans-serif" font-size="20" font-weight="500" fill="#334155">차트 색상</text>
    
    <rect x="80" y="530" width="135" height="50" rx="4" fill="#1b3a6b"/>
    <text x="147" y="560" font-family="Inter, sans-serif" font-size="14" font-weight="500" fill="#ffffff" text-anchor="middle">Chart 1</text>
    
    <rect x="230" y="530" width="135" height="50" rx="4" fill="#1c7ed6"/>
    <text x="297" y="560" font-family="Inter, sans-serif" font-size="14" font-weight="500" fill="#ffffff" text-anchor="middle">Chart 2</text>
    
    <rect x="380" y="530" width="135" height="50" rx="4" fill="#12b886"/>
    <text x="447" y="560" font-family="Inter, sans-serif" font-size="14" font-weight="500" fill="#ffffff" text-anchor="middle">Chart 3</text>
    
    <rect x="530" y="530" width="135" height="50" rx="4" fill="#9775fa"/>
    <text x="597" y="560" font-family="Inter, sans-serif" font-size="14" font-weight="500" fill="#ffffff" text-anchor="middle">Chart 4</text>
    
    <rect x="680" y="530" width="135" height="50" rx="4" fill="#fd7e14"/>
    <text x="747" y="560" font-family="Inter, sans-serif" font-size="14" font-weight="500" fill="#ffffff" text-anchor="middle">Chart 5</text>
    
    <rect x="830" y="530" width="135" height="50" rx="4" fill="#40c057"/>
    <text x="897" y="560" font-family="Inter, sans-serif" font-size="14" font-weight="500" fill="#ffffff" text-anchor="middle">Chart 6</text>
    
    <rect x="980" y="530" width="135" height="50" rx="4" fill="#e64980"/>
    <text x="1047" y="560" font-family="Inter, sans-serif" font-size="14" font-weight="500" fill="#ffffff" text-anchor="middle">Chart 7</text>
  </g>

  <!-- 2. 타이포그래피 섹션 -->
  <g transform="translate(0, 780)">
    <text x="80" y="40" font-family="Inter, sans-serif" font-size="28" font-weight="600" fill="#0c1e3e">2. 타이포그래피</text>
    <line x1="80" y1="55" x2="1120" y2="55" stroke="#e2e8f0" stroke-width="1"/>
    
    <!-- 폰트 패밀리 -->
    <text x="80" y="100" font-family="Inter, sans-serif" font-size="20" font-weight="500" fill="#334155">폰트 패밀리</text>
    
    <text x="80" y="135" font-family="Inter, sans-serif" font-size="16" font-weight="400" fill="#334155">기본 폰트: Inter (헤더, 내비게이션, 대시보드 컨트롤)</text>
    <text x="80" y="170" font-family="JetBrains Mono, monospace" font-size="16" font-weight="400" fill="#334155">모노스페이스 폰트: JetBrains Mono (코드, 데이터 테이블, 수치 데이터)</text>
    
    <!-- 타입 스케일 -->
    <text x="80" y="220" font-family="Inter, sans-serif" font-size="20" font-weight="500" fill="#334155">타입 스케일</text>
    
    <text x="80" y="280" font-family="Inter, sans-serif" font-size="36" font-weight="700" fill="#0c1e3e">Display (36px / 1.2) - 대시보드 제목</text>
    <text x="80" y="350" font-family="Inter, sans-serif" font-size="28" font-weight="700" fill="#0c1e3e">H1 (28px / 1.3) - 섹션 제목</text>
    <text x="80" y="410" font-family="Inter, sans-serif" font-size="24" font-weight="600" fill="#0c1e3e">H2 (24px / 1.35) - 위젯 그룹 제목</text>
    <text x="80" y="460" font-family="Inter, sans-serif" font-size="20" font-weight="600" fill="#0c1e3e">H3 (20px / 1.4) - 위젯 제목</text>
    <text x="80" y="510" font-family="Inter, sans-serif" font-size="18" font-weight="600" fill="#0c1e3e">H4 (18px / 1.45) - 카드 제목</text>
    <text x="80" y="560" font-family="Inter, sans-serif" font-size="16" font-weight="400" fill="#334155">Body (16px / 1.5) - 본문 텍스트</text>
    <text x="80" y="590" font-family="Inter, sans-serif" font-size="14" font-weight="400" fill="#334155">Small (14px / 1.5) - 보조 텍스트</text>
    <text x="80" y="620" font-family="Inter, sans-serif" font-size="12" font-weight="400" fill="#475569">XSmall (12px / 1.5) - 캡션, 도움말</text>
    <text x="80" y="650" font-family="JetBrains Mono, monospace" font-size="14" font-weight="400" fill="#334155">Code (14px / 1.6) - 데이터 테이블, 수치</text>
    <text x="80" y="680" font-family="JetBrains Mono, monospace" font-size="16" font-weight="600" fill="#1b3a6b">Data Value (16px / 1.4) - 주요 지표</text>
  </g>

  <!-- 3. 버튼 컴포넌트 섹션 -->
  <g transform="translate(0, 1520)">
    <text x="80" y="40" font-family="Inter, sans-serif" font-size="28" font-weight="600" fill="#0c1e3e">3. 버튼 컴포넌트</text>
    <line x1="80" y1="55" x2="1120" y2="55" stroke="#e2e8f0" stroke-width="1"/>
    
    <!-- 기본 버튼 -->
    <text x="80" y="100" font-family="Inter, sans-serif" font-size="20" font-weight="500" fill="#334155">기본 버튼 스타일</text>
    
    <!-- Primary Default -->
    <rect x="80" y="120" width="150" height="44" rx="6" fill="#0c1e3e" filter="drop-shadow(0px 2px 2px rgba(0, 0, 0, 0.1))"/>
    <text x="155" y="148" font-family="Inter, sans-serif" font-size="14" font-weight="500" fill="#ffffff" text-anchor="middle">Primary</text>
    
    <!-- Secondary Default -->
    <rect x="250" y="120" width="150" height="44" rx="6" fill="#1a56db" filter="drop-shadow(0px 2px 2px rgba(0, 0, 0, 0.1))"/>
    <text x="325" y="148" font-family="Inter, sans-serif" font-size="14" font-weight="500" fill="#ffffff" text-anchor="middle">Secondary</text>
    
    <!-- Outline Default -->
    <rect x="420" y="120" width="150" height="44" rx="6" fill="#ffffff" stroke="#0c1e3e" stroke-width="1.5" filter="drop-shadow(0px 1px 2px rgba(0, 0, 0, 0.05))"/>
    <text x="495" y="148" font-family="Inter, sans-serif" font-size="14" font-weight="500" fill="#0c1e3e" text-anchor="middle">Outline</text>
    
    <!-- Ghost Default -->
    <rect x="590" y="120" width="150" height="44" rx="6" fill="transparent"/>
    <text x="665" y="148" font-family="Inter, sans-serif" font-size="14" font-weight="500" fill="#0c1e3e" text-anchor="middle">Ghost</text>
    
    <!-- Destructive Default -->
    <rect x="760" y="120" width="150" height="44" rx="6" fill="#dc2626" filter="drop-shadow(0px 2px 2px rgba(0, 0, 0, 0.1))"/>
    <text x="835" y="148" font-family="Inter, sans-serif" font-size="14" font-weight="500" fill="#ffffff" text-anchor="middle">Destructive</text>
    
    <!-- 버튼 크기 -->
    <text x="80" y="200" font-family="Inter, sans-serif" font-size="20" font-weight="500" fill="#334155">버튼 크기</text>
    
    <!-- Small -->
    <rect x="80" y="220" width="120" height="34" rx="6" fill="#0c1e3e" filter="drop-shadow(0px 1px 2px rgba(0, 0, 0, 0.1))"/>
    <text x="140" y="242" font-family="Inter, sans-serif" font-size="12" font-weight="500" fill="#ffffff" text-anchor="middle">Small</text>
    
    <!-- Default -->
    <rect x="220" y="215" width="150" height="44" rx="6" fill="#0c1e3e" filter="drop-shadow(0px 2px 2px rgba(0, 0, 0, 0.1))"/>
    <text x="295" y="243" font-family="Inter, sans-serif" font-size="14" font-weight="500" fill="#ffffff" text-anchor="middle">Default</text>
    
    <!-- Large -->
    <rect x="390" y="210" width="180" height="54" rx="6" fill="#0c1e3e" filter="drop-shadow(0px 2px 2px rgba(0, 0, 0, 0.1))"/>
    <text x="480" y="243" font-family="Inter, sans-serif" font-size="16" font-weight="500" fill="#ffffff" text-anchor="middle">Large</text>
    
    <!-- Icon button -->
    <rect x="590" y="215" width="44" height="44" rx="6" fill="#0c1e3e" filter="drop-shadow(0px 2px 2px rgba(0, 0, 0, 0.1))"/>
    <text x="612" y="243" font-family="Inter, sans-serif" font-size="16" font-weight="500" fill="#ffffff" text-anchor="middle">+</text>
    
    <!-- 데이터 액션 버튼 -->
    <rect x="654" y="215" width="160" height="44" rx="6" fill="#0c1e3e" filter="drop-shadow(0px 2px 2px rgba(0, 0, 0, 0.1))"/>
    <text x="694" y="243" font-family="Inter, sans-serif" font-size="14" font-weight="500" fill="#ffffff" text-anchor="middle">데이터 내보내기</text>
    <line x1="734" y1="228" x2="734" y2="242" stroke="#ffffff" stroke-width="1"/>
    <polyline points="744,235 754,235 750,240" fill="none" stroke="#ffffff" stroke-width="1.5"/>
    
    <!-- 버튼 상태 -->
    <text x="80" y="300" font-family="Inter, sans-serif" font-size="20" font-weight="500" fill="#334155">버튼 상태</text>
    
    <!-- Default -->
    <rect x="80" y="320" width="150" height="44" rx="6" fill="#0c1e3e" filter="drop-shadow(0px 2px 2px rgba(0, 0, 0, 0.1))"/>
    <text x="155" y="348" font-family="Inter, sans-serif" font-size="14" font-weight="500" fill="#ffffff" text-anchor="middle">Default</text>
    
    <!-- Hover -->
    <rect x="250" y="320" width="150" height="44" rx="6" fill="#15345c" filter="drop-shadow(0px 2px 2px rgba(0, 0, 0, 0.1))"/>
    <text x="325" y="348" font-family="Inter, sans-serif" font-size="14" font-weight="500" fill="#ffffff" text-anchor="middle">Hover</text>
    
    <!-- Active -->
    <rect x="420" y="320" width="150" height="44" rx="6" fill="#102a4c" filter="drop-shadow(0px 1px 1px rgba(0, 0, 0, 0.1))"/>
    <text x="495" y="348" font-family="Inter, sans-serif" font-size="14" font-weight="500" fill="#ffffff" text-anchor="middle">Active</text>
    
    <!-- Disabled -->
    <rect x="590" y="320" width="150" height="44" rx="6" fill="#94a3b8" filter="drop-shadow(0px 2px 2px rgba(0, 0, 0, 0.05))"/>
    <text x="665" y="348" font-family="Inter, sans-serif" font-size="14" font-weight="500" fill="#f8fafc" text-anchor="middle">Disabled</text>
    
    <!-- Loading -->
    <rect x="760" y="320" width="150" height="44" rx="6" fill="#0c1e3e" filter="drop-shadow(0px 2px 2px rgba(0, 0, 0, 0.1))"/>
    <circle cx="805" cy="342" r="8" fill="none" stroke="#ffffff" stroke-width="2">
      <animate attributeName="stroke-dasharray" values="0 50;40 10;0 50" dur="1.5s" repeatCount="indefinite"/>
    </circle>
    <text x="845" y="348" font-family="Inter, sans-serif" font-size="14" font-weight="500" fill="#ffffff" text-anchor="middle">로딩 중...</text>
    
    <!-- 버튼 그룹 -->
    <text x="80" y="400" font-family="Inter, sans-serif" font-size="20" font-weight="500" fill="#334155">버튼 그룹</text>
    
    <rect x="80" y="420" width="110" height="44" rx="6" fill="#0c1e3e" filter="drop-shadow(0px 2px 2px rgba(0, 0, 0, 0.1))"/>
    <text x="135" y="448" font-family="Inter, sans-serif" font-size="14" font-weight="500" fill="#ffffff" text-anchor="middle">일간</text>
    
    <rect x="190" y="420" width="110" height="44" rx="6" fill="#1a56db" filter="drop-shadow(0px 2px 2px rgba(0, 0, 0, 0.1))"/>
    <text x="245" y="448" font-family="Inter, sans-serif" font-size="14" font-weight="500" fill="#ffffff" text-anchor="middle">주간</text>
    
    <rect x="300" y="420" width="110" height="44" rx="6" fill="#ffffff" stroke="#e2e8f0" stroke-width="1.5" filter="drop-shadow(0px 1px 2px rgba(0, 0, 0, 0.05))"/>
    <text x="355" y="448" font-family="Inter, sans-serif" font-size="14" font-weight="500" fill="#334155" text-anchor="middle">월간</text>
    
    <rect x="410" y="420" width="110" height="44" rx="6" fill="#ffffff" stroke="#e2e8f0" stroke-width="1.5" filter="drop-shadow(0px 1px 2px rgba(0, 0, 0, 0.05))"/>
    <text x="465" y="448" font-family="Inter, sans-serif" font-size="14" font-weight="500" fill="#334155" text-anchor="middle">분기</text>
    
    <rect x="520" y="420" width="110" height="44" rx="6" fill="#ffffff" stroke="#e2e8f0" stroke-width="1.5" filter="drop-shadow(0px 1px 2px rgba(0, 0, 0, 0.05))"/>
    <text x="575" y="448" font-family="Inter, sans-serif" font-size="14" font-weight="500" fill="#334155" text-anchor="middle">연간</text>
  </g>

  <!-- 4. 카드 & 폼 컴포넌트 섹션 -->
  <g transform="translate(0, 2000)">
    <text x="80" y="40" font-family="Inter, sans-serif" font-size="28" font-weight="600" fill="#0c1e3e">4. 카드 &amp; 폼 컴포넌트</text>
    <line x1="80" y1="55" x2="1120" y2="55" stroke="#e2e8f0" stroke-width="1"/>
    
    <!-- 카드 컴포넌트 -->
    <text x="80" y="100" font-family="Inter, sans-serif" font-size="20" font-weight="500" fill="#334155">카드 컴포넌트</text>
    
    <!-- 기본 카드 -->
    <rect x="80" y="120" width="340" height="220" rx="10" fill="#ffffff" stroke="#e2e8f0" stroke-width="1" filter="drop-shadow(0px 4px 6px rgba(0, 0, 0, 0.05))"/>
    <text x="110" y="155" font-family="Inter, sans-serif" font-size="18" font-weight="600" fill="#0c1e3e">기본 카드</text>
    <line x1="80" y1="170" x2="420" y2="170" stroke="#f1f5f9" stroke-width="2"/>
    <text x="110" y="200" font-family="Inter, sans-serif" font-size="14" font-weight="400" fill="#334155">카드 컨텐츠 영역입니다.</text>
    <text x="110" y="230" font-family="Inter, sans-serif" font-size="14" font-weight="400" fill="#334155">다양한 정보를 포함할 수 있습니다.</text>
    <rect x="110" y="260" width="120" height="40" rx="6" fill="#f8fafc" stroke="#e2e8f0" stroke-width="1"/>
    <text x="170" y="285" font-family="Inter, sans-serif" font-size="14" font-weight="500" fill="#334155" text-anchor="middle">자세히 보기</text>
    
    <!-- 차트 카드 -->
    <rect x="440" y="120" width="340" height="220" rx="10" fill="#ffffff" stroke="#e2e8f0" stroke-width="1" filter="drop-shadow(0px 4px 6px rgba(0, 0, 0, 0.05))"/>
    <rect x="440" y="120" width="340" height="50" rx="10 10 0 0" fill="#f8fafc"/>
    <text x="470" y="150" font-family="Inter, sans-serif" font-size="16" font-weight="600" fill="#0c1e3e">KOSPI 지수 추이</text>
    <line x1="440" y1="170" x2="780" y2="170" stroke="#f1f5f9" stroke-width="2"/>
    
    <!-- 간단한 차트 그래프 -->
    <polyline points="460,270 480,250 500,260 520,230 540,240 560,220 580,210 600,230 620,200 640,220 660,210 680,190 700,200 720,190 740,200" fill="none" stroke="#1b3a6b" stroke-width="2.5"/>
    <line x1="460" y1="290" x2="760" y2="290" stroke="#f1f5f9" stroke-width="2"/>
    <line x1="460" y1="190" x2="460" y2="290" stroke="#f1f5f9" stroke-width="2"/>
    
    <!-- 데이터 카드 -->
    <rect x="800" y="120" width="320" height="220" rx="10" fill="#ffffff" stroke="#e2e8f0" stroke-width="1" filter="drop-shadow(0px 4px 6px rgba(0, 0, 0, 0.05))"/>
    <text x="830" y="155" font-family="Inter, sans-serif" font-size="16" font-weight="600" fill="#0c1e3e">GDP 성장률</text>
    <text x="830" y="210" font-family="JetBrains Mono, monospace" font-size="24" font-weight="700" fill="#0c1e3e">3.2%</text>
    <text x="900" y="210" font-family="Inter, sans-serif" font-size="14" font-weight="500" fill="#059669">↑ 0.5%p</text>
    <line x1="830" y1="240" x2="1090" y2="240" stroke="#f1f5f9" stroke-width="2"/>
    <text x="830" y="270" font-family="Inter, sans-serif" font-size="12" font-weight="400" fill="#64748b">전년 동기 대비 (%, 2025년 1분기)</text>
    <text x="1060" y="155" font-family="Inter, sans-serif" font-size="12" font-weight="400" fill="#64748b">ECOS</text>
    
    <!-- 폼 컴포넌트 -->
    <text x="80" y="380" font-family="Inter, sans-serif" font-size="20" font-weight="500" fill="#334155">폼 컴포넌트</text>
    
    <!-- 텍스트 입력 -->
    <text x="80" y="420" font-family="Inter, sans-serif" font-size="14" font-weight="500" fill="#334155">검색어</text>
    <rect x="80" y="430" width="300" height="44" rx="6" fill="#ffffff" stroke="#94a3b8" stroke-width="1.5" filter="drop-shadow(0px 1px 2px rgba(0, 0, 0, 0.05))"/>
    <text x="100" y="460" font-family="Inter, sans-serif" font-size="14" font-weight="400" fill="#94a3b8">경제성장률 데이터 검색...</text>
    
    <!-- 선택 컴포넌트 -->
    <text x="440" y="420" font-family="Inter, sans-serif" font-size="14" font-weight="500" fill="#334155">데이터 소스</text>
    <rect x="440" y="430" width="300" height="44" rx="6" fill="#ffffff" stroke="#94a3b8" stroke-width="1.5" filter="drop-shadow(0px 1px 2px rgba(0, 0, 0, 0.05))"/>
    <text x="460" y="460" font-family="Inter, sans-serif" font-size="14" font-weight="500" fill="#334155">ECOS</text>
    <text x="720" y="460" font-family="Inter, sans-serif" font-size="14" font-weight="400" fill="#334155">▼</text>
    
    <!-- 체크박스 -->
    <rect x="80" y="500" width="22" height="22" rx="6" fill="#ffffff" stroke="#94a3b8" stroke-width="1.5"/>
    <text x="115" y="518" font-family="Inter, sans-serif" font-size="14" font-weight="500" fill="#334155">원본 데이터</text>
    
    <rect x="230" y="500" width="22" height="22" rx="6" fill="#0c1e3e" stroke="#0c1e3e" stroke-width="1.5"/>
    <text x="265" y="518" font-family="Inter, sans-serif" font-size="14" font-weight="500" fill="#334155">변화율 (전년동기)</text>
    <polyline points="236,511 242,517 249,504" fill="none" stroke="#ffffff" stroke-width="2"/>
    
    <!-- 토글 -->
    <rect x="440" y="500" width="50" height="24" rx="12" fill="#0c1e3e"/>
    <circle cx="477" cy="512" r="10" fill="#ffffff" filter="drop-shadow(0px 1px 1px rgba(0, 0, 0, 0.05))"/>
    <text x="505" y="518" font-family="Inter, sans-serif" font-size="14" font-weight="500" fill="#334155">자동 새로고침</text>
    
    <!-- 날짜 선택 컴포넌트 -->
    <text x="80" y="560" font-family="Inter, sans-serif" font-size="20" font-weight="500" fill="#334155">날짜 선택 컴포넌트</text>
    
    <!-- 날짜 범위 선택기 -->
    <rect x="80" y="590" width="320" height="44" rx="6" fill="#ffffff" stroke="#94a3b8" stroke-width="1.5" filter="drop-shadow(0px 1px 2px rgba(0, 0, 0, 0.05))"/>
    <text x="100" y="620" font-family="Inter, sans-serif" font-size="14" font-weight="500" fill="#334155">2024년 6월 1일 - 2024년 12월 31일</text>
    <text x="380" y="620" font-family="Inter, sans-serif" font-size="14" font-weight="400" fill="#334155">▼</text>
  </g>

  <!-- 5. 차트 컴포넌트 섹션 -->
  <g transform="translate(0, 2700)">
    <text x="80" y="40" font-family="Inter, sans-serif" font-size="28" font-weight="600" fill="#0c1e3e">5. 차트 컴포넌트</text>
    <line x1="80" y1="55" x2="1120" y2="55" stroke="#e2e8f0" stroke-width="1"/>
    
    <!-- 차트 타입 설명 -->
    <text x="80" y="100" font-family="Inter, sans-serif" font-size="20" font-weight="500" fill="#334155">차트 컴포넌트 유형</text>
    
    <!-- 시계열 차트 -->
    <rect x="80" y="120" width="520" height="300" rx="10" fill="#ffffff" stroke="#e2e8f0" stroke-width="1" filter="drop-shadow(0px 4px 6px rgba(0, 0, 0, 0.05))"/>
    <rect x="80" y="120" width="520" height="50" rx="10 10 0 0" fill="#f8fafc"/>
    <text x="110" y="150" font-family="Inter, sans-serif" font-size="16" font-weight="600" fill="#0c1e3e">시계열 차트 (Time Series)</text>
    <text x="510" y="150" font-family="Inter, sans-serif" font-size="12" font-weight="400" fill="#64748b">ECOS</text>
    <line x1="80" y1="170" x2="600" y2="170" stroke="#f1f5f9" stroke-width="2"/>
    
    <!-- 시계열 차트 내용 -->
    <line x1="110" y1="220" x2="570" y2="220" stroke="#f1f5f9" stroke-width="1" stroke-dasharray="4 4"/>
    <line x1="110" y1="260" x2="570" y2="260" stroke="#f1f5f9" stroke-width="1" stroke-dasharray="4 4"/>
    <line x1="110" y1="300" x2="570" y2="300" stroke="#f1f5f9" stroke-width="1" stroke-dasharray="4 4"/>
    <line x1="110" y1="340" x2="570" y2="340" stroke="#f1f5f9" stroke-width="1" stroke-dasharray="4 4"/>
    <line x1="110" y1="380" x2="570" y2="380" stroke="#f1f5f9" stroke-width="1"/>
    
    <!-- Y축 레이블 -->
    <text x="100" y="225" font-family="Inter, sans-serif" font-size="10" font-weight="400" fill="#64748b" text-anchor="end">4.0%</text>
    <text x="100" y="265" font-family="Inter, sans-serif" font-size="10" font-weight="400" fill="#64748b" text-anchor="end">3.0%</text>
    <text x="100" y="305" font-family="Inter, sans-serif" font-size="10" font-weight="400" fill="#64748b" text-anchor="end">2.0%</text>
    <text x="100" y="345" font-family="Inter, sans-serif" font-size="10" font-weight="400" fill="#64748b" text-anchor="end">1.0%</text>
    <text x="100" y="385" font-family="Inter, sans-serif" font-size="10" font-weight="400" fill="#64748b" text-anchor="end">0.0%</text>
    
    <!-- X축 날짜 레이블 -->
    <text x="110" y="400" font-family="Inter, sans-serif" font-size="10" font-weight="400" fill="#64748b">Q1 2023</text>
    <text x="170" y="400" font-family="Inter, sans-serif" font-size="10" font-weight="400" fill="#64748b">Q2 2023</text>
    <text x="230" y="400" font-family="Inter, sans-serif" font-size="10" font-weight="400" fill="#64748b">Q3 2023</text>
    <text x="290" y="400" font-family="Inter, sans-serif" font-size="10" font-weight="400" fill="#64748b">Q4 2023</text>
    <text x="350" y="400" font-family="Inter, sans-serif" font-size="10" font-weight="400" fill="#64748b">Q1 2024</text>
    <text x="410" y="400" font-family="Inter, sans-serif" font-size="10" font-weight="400" fill="#64748b">Q2 2024</text>
    <text x="470" y="400" font-family="Inter, sans-serif" font-size="10" font-weight="400" fill="#64748b">Q3 2024</text>
    <text x="530" y="400" font-family="Inter, sans-serif" font-size="10" font-weight="400" fill="#64748b">Q4 2024</text>

    <!-- 실제 데이터 라인 -->
    <polyline points="110,340 170,330 230,310 290,320 350,300 410,280 470,260 530,240" fill="none" stroke="#1b3a6b" stroke-width="2.5"/>
    
    <!-- 추세선 (기능 명세서에 있는 장단기 추세선 자동 생성 적용) -->
    <polyline points="110,350 170,335 230,320 290,305 350,290 410,275 470,260 530,245" fill="none" stroke="#dc2626" stroke-width="1.5" stroke-dasharray="5 3"/>
    <text x="540" y="245" font-family="Inter, sans-serif" font-size="10" font-weight="400" fill="#dc2626" text-anchor="end">추세선</text>
    
    <!-- 바 차트 -->
    <rect x="620" y="120" width="500" height="300" rx="10" fill="#ffffff" stroke="#e2e8f0" stroke-width="1" filter="drop-shadow(0px 4px 6px rgba(0, 0, 0, 0.05))"/>
    <rect x="620" y="120" width="500" height="50" rx="10 10 0 0" fill="#f8fafc"/>
    <text x="650" y="150" font-family="Inter, sans-serif" font-size="16" font-weight="600" fill="#0c1e3e">바 차트 (Bar Chart)</text>
    <text x="1040" y="150" font-family="Inter, sans-serif" font-size="12" font-weight="400" fill="#64748b">KOSIS</text>
    <line x1="620" y1="170" x2="1120" y2="170" stroke="#f1f5f9" stroke-width="2"/>
    
    <!-- 바 차트 내용 -->
    <line x1="650" y1="220" x2="1090" y2="220" stroke="#f1f5f9" stroke-width="1" stroke-dasharray="4 4"/>
    <line x1="650" y1="260" x2="1090" y2="260" stroke="#f1f5f9" stroke-width="1" stroke-dasharray="4 4"/>
    <line x1="650" y1="300" x2="1090" y2="300" stroke="#f1f5f9" stroke-width="1" stroke-dasharray="4 4"/>
    <line x1="650" y1="340" x2="1090" y2="340" stroke="#f1f5f9" stroke-width="1" stroke-dasharray="4 4"/>
    <line x1="650" y1="380" x2="1090" y2="380" stroke="#f1f5f9" stroke-width="1"/>
    
    <!-- Y축 레이블 -->
    <text x="640" y="225" font-family="Inter, sans-serif" font-size="10" font-weight="400" fill="#64748b" text-anchor="end">8%</text>
    <text x="640" y="265" font-family="Inter, sans-serif" font-size="10" font-weight="400" fill="#64748b" text-anchor="end">6%</text>
    <text x="640" y="305" font-family="Inter, sans-serif" font-size="10" font-weight="400" fill="#64748b" text-anchor="end">4%</text>
    <text x="640" y="345" font-family="Inter, sans-serif" font-size="10" font-weight="400" fill="#64748b" text-anchor="end">2%</text>
    <text x="640" y="385" font-family="Inter, sans-serif" font-size="10" font-weight="400" fill="#64748b" text-anchor="end">0%</text>
    
    <!-- 바 차트 데이터 -->
    <rect x="670" y="300" width="30" height="80" fill="#1c7ed6"/>
    <rect x="720" y="280" width="30" height="100" fill="#1c7ed6"/>
    <rect x="770" y="320" width="30" height="60" fill="#1c7ed6"/>
    <rect x="820" y="240" width="30" height="140" fill="#1c7ed6"/>
    <rect x="870" y="260" width="30" height="120" fill="#1c7ed6"/>
    <rect x="920" y="340" width="30" height="40" fill="#1c7ed6"/>
    <rect x="970" y="220" width="30" height="160" fill="#1c7ed6"/>
    <rect x="1020" y="290" width="30" height="90" fill="#1c7ed6"/>
    
    <!-- X축 레이블 -->
    <text x="685" y="400" font-family="Inter, sans-serif" font-size="10" font-weight="400" fill="#64748b">Q1</text>
    <text x="735" y="400" font-family="Inter, sans-serif" font-size="10" font-weight="400" fill="#64748b">Q2</text>
    <text x="785" y="400" font-family="Inter, sans-serif" font-size="10" font-weight="400" fill="#64748b">Q3</text>
    <text x="835" y="400" font-family="Inter, sans-serif" font-size="10" font-weight="400" fill="#64748b">Q4</text>
    <text x="885" y="400" font-family="Inter, sans-serif" font-size="10" font-weight="400" fill="#64748b">Q1</text>
    <text x="935" y="400" font-family="Inter, sans-serif" font-size="10" font-weight="400" fill="#64748b">Q2</text>
    <text x="985" y="400" font-family="Inter, sans-serif" font-size="10" font-weight="400" fill="#64748b">Q3</text>
    <text x="1035" y="400" font-family="Inter, sans-serif" font-size="10" font-weight="400" fill="#64748b">Q4</text>
    
    <!-- 산점도 차트 -->
    <rect x="80" y="440" width="520" height="300" rx="10" fill="#ffffff" stroke="#e2e8f0" stroke-width="1" filter="drop-shadow(0px 4px 6px rgba(0, 0, 0, 0.05))"/>
    <rect x="80" y="440" width="520" height="50" rx="10 10 0 0" fill="#f8fafc"/>
    <text x="110" y="470" font-family="Inter, sans-serif" font-size="16" font-weight="600" fill="#0c1e3e">산점도 차트 (Scatter Chart)</text>
    <text x="510" y="470" font-family="Inter, sans-serif" font-size="12" font-weight="400" fill="#64748b">ECOS/KOSIS</text>
    <line x1="80" y1="490" x2="600" y2="490" stroke="#f1f5f9" stroke-width="2"/>
    
    <!-- 산점도 그리드 -->
    <line x1="110" y1="540" x2="570" y2="540" stroke="#f1f5f9" stroke-width="1" stroke-dasharray="4 4"/>
    <line x1="110" y1="580" x2="570" y2="580" stroke="#f1f5f9" stroke-width="1" stroke-dasharray="4 4"/>
    <line x1="110" y1="620" x2="570" y2="620" stroke="#f1f5f9" stroke-width="1" stroke-dasharray="4 4"/>
    <line x1="110" y1="660" x2="570" y2="660" stroke="#f1f5f9" stroke-width="1" stroke-dasharray="4 4"/>
    <line x1="110" y1="700" x2="570" y2="700" stroke="#f1f5f9" stroke-width="1"/>
    
    <line x1="110" y1="540" x2="110" y2="700" stroke="#f1f5f9" stroke-width="1" stroke-dasharray="4 4"/>
    <line x1="170" y1="540" x2="170" y2="700" stroke="#f1f5f9" stroke-width="1" stroke-dasharray="4 4"/>
    <line x1="230" y1="540" x2="230" y2="700" stroke="#f1f5f9" stroke-width="1" stroke-dasharray="4 4"/>
    <line x1="290" y1="540" x2="290" y2="700" stroke="#f1f5f9" stroke-width="1" stroke-dasharray="4 4"/>
    <line x1="350" y1="540" x2="350" y2="700" stroke="#f1f5f9" stroke-width="1" stroke-dasharray="4 4"/>
    <line x1="410" y1="540" x2="410" y2="700" stroke="#f1f5f9" stroke-width="1" stroke-dasharray="4 4"/>
    <line x1="470" y1="540" x2="470" y2="700" stroke="#f1f5f9" stroke-width="1" stroke-dasharray="4 4"/>
    <line x1="530" y1="540" x2="530" y2="700" stroke="#f1f5f9" stroke-width="1" stroke-dasharray="4 4"/>
    
    <!-- 축 레이블 -->
    <text x="100" y="540" font-family="Inter, sans-serif" font-size="10" font-weight="400" fill="#64748b" text-anchor="end">8%</text>
    <text x="100" y="580" font-family="Inter, sans-serif" font-size="10" font-weight="400" fill="#64748b" text-anchor="end">6%</text>
    <text x="100" y="620" font-family="Inter, sans-serif" font-size="10" font-weight="400" fill="#64748b" text-anchor="end">4%</text>
    <text x="100" y="660" font-family="Inter, sans-serif" font-size="10" font-weight="400" fill="#64748b" text-anchor="end">2%</text>
    <text x="100" y="700" font-family="Inter, sans-serif" font-size="10" font-weight="400" fill="#64748b" text-anchor="end">0%</text>
    
    <text x="110" y="715" font-family="Inter, sans-serif" font-size="10" font-weight="400" fill="#64748b">0%</text>
    <text x="170" y="715" font-family="Inter, sans-serif" font-size="10" font-weight="400" fill="#64748b">1%</text>
    <text x="230" y="715" font-family="Inter, sans-serif" font-size="10" font-weight="400" fill="#64748b">2%</text>
    <text x="290" y="715" font-family="Inter, sans-serif" font-size="10" font-weight="400" fill="#64748b">3%</text>
    <text x="350" y="715" font-family="Inter, sans-serif" font-size="10" font-weight="400" fill="#64748b">4%</text>
    <text x="410" y="715" font-family="Inter, sans-serif" font-size="10" font-weight="400" fill="#64748b">5%</text>
    <text x="470" y="715" font-family="Inter, sans-serif" font-size="10" font-weight="400" fill="#64748b">6%</text>
    <text x="530" y="715" font-family="Inter, sans-serif" font-size="10" font-weight="400" fill="#64748b">7%</text>
    
    <!-- 산점도 포인트 -->
    <circle cx="230" cy="620" r="6" fill="#1b3a6b"/>
    <circle cx="290" cy="580" r="6" fill="#1b3a6b"/>
    <circle cx="410" cy="600" r="6" fill="#1b3a6b"/>
    <circle cx="350" cy="660" r="6" fill="#1b3a6b"/>
    <circle cx="170" cy="640" r="6" fill="#1b3a6b"/>
    <circle cx="470" cy="560" r="6" fill="#1b3a6b"/>
    <circle cx="350" cy="560" r="6" fill="#1b3a6b"/>
    <circle cx="230" cy="680" r="6" fill="#1b3a6b"/>
    <circle cx="290" cy="620" r="6" fill="#1b3a6b"/>
    <circle cx="410" cy="540" r="6" fill="#1b3a6b"/>
    
    <!-- 회귀선 (특정 이벤트 포인트 마킹 기능 적용) -->
    <line x1="110" y1="670" x2="530" y2="560" stroke="#dc2626" stroke-width="1.5" stroke-dasharray="5 3"/>
    <text x="520" y="550" font-family="Inter, sans-serif" font-size="10" font-weight="400" fill="#dc2626">회귀선</text>
    
    <!-- 레이더 차트 -->
    <rect x="620" y="440" width="500" height="300" rx="10" fill="#ffffff" stroke="#e2e8f0" stroke-width="1" filter="drop-shadow(0px 4px 6px rgba(0, 0, 0, 0.05))"/>
    <rect x="620" y="440" width="500" height="50" rx="10 10 0 0" fill="#f8fafc"/>
    <text x="650" y="470" font-family="Inter, sans-serif" font-size="16" font-weight="600" fill="#0c1e3e">레이더 차트 (Radar Chart)</text>
    <text x="1040" y="470" font-family="Inter, sans-serif" font-size="12" font-weight="400" fill="#64748b">OECD</text>
    <line x1="620" y1="490" x2="1120" y2="490" stroke="#f1f5f9" stroke-width="2"/>
    
    <!-- 레이더 차트 영역 -->
    <circle cx="870" cy="590" r="140" fill="none" stroke="#f1f5f9" stroke-width="1" stroke-dasharray="4 4"/>
    <circle cx="870" cy="590" r="105" fill="none" stroke="#f1f5f9" stroke-width="1" stroke-dasharray="4 4"/>
    <circle cx="870" cy="590" r="70" fill="none" stroke="#f1f5f9" stroke-width="1" stroke-dasharray="4 4"/>
    <circle cx="870" cy="590" r="35" fill="none" stroke="#f1f5f9" stroke-width="1" stroke-dasharray="4 4"/>
    
    <!-- 레이더 축 -->
    <line x1="870" y1="450" x2="870" y2="730" stroke="#f1f5f9" stroke-width="1"/>
    <line x1="730" y1="590" x2="1010" y2="590" stroke="#f1f5f9" stroke-width="1"/>
    <line x1="788" y1="488" x2="952" y2="692" stroke="#f1f5f9" stroke-width="1"/>
    <line x1="788" y1="692" x2="952" y2="488" stroke="#f1f5f9" stroke-width="1"/>
    
    <!-- 레이더 차트 데이터 -->
    <polygon points="870,480 800,550 800,640 870,690 940,640 940,550" fill="#1c7ed6" fill-opacity="0.3" stroke="#1c7ed6" stroke-width="2"/>
    
    <!-- 레이더 차트 레이블 -->
    <text x="870" y="440" font-family="Inter, sans-serif" font-size="10" font-weight="500" fill="#334155" text-anchor="middle">경제성장률</text>
    <text x="1020" y="590" font-family="Inter, sans-serif" font-size="10" font-weight="500" fill="#334155" text-anchor="start">물가상승률</text>
    <text x="960" y="480" font-family="Inter, sans-serif" font-size="10" font-weight="500" fill="#334155" text-anchor="start">고용률</text>
    <text x="960" y="700" font-family="Inter, sans-serif" font-size="10" font-weight="500" fill="#334155" text-anchor="start">가계부채비율</text>
    <text x="780" y="700" font-family="Inter, sans-serif" font-size="10" font-weight="500" fill="#334155" text-anchor="end">재정적자</text>
    <text x="780" y="480" font-family="Inter, sans-serif" font-size="10" font-weight="500" fill="#334155" text-anchor="end">무역수지</text>
    <text x="720" y="590" font-family="Inter, sans-serif" font-size="10" font-weight="500" fill="#334155" text-anchor="end">외환보유고</text>
  </g>

  <!-- 6. 대시보드 컴포넌트 섹션 -->
  <g transform="translate(0, 3500)">
    <text x="80" y="40" font-family="Inter, sans-serif" font-size="28" font-weight="600" fill="#0c1e3e">6. 대시보드 컴포넌트</text>
    <line x1="80" y1="55" x2="1120" y2="55" stroke="#e2e8f0" stroke-width="1"/>
    
    <!-- 대시보드 레이아웃 설명 -->
    <text x="80" y="100" font-family="Inter, sans-serif" font-size="20" font-weight="500" fill="#334155">기본 대시보드 레이아웃</text>
    
    <!-- 대시보드 헤더 -->
    <rect x="80" y="120" width="1040" height="70" rx="10 10 0 0" fill="#ffffff" stroke="#e2e8f0" stroke-width="1" filter="drop-shadow(0px 2px 4px rgba(0, 0, 0, 0.05))"/>
    <text x="110" y="162" font-family="Inter, sans-serif" font-size="20" font-weight="600" fill="#0c1e3e">경제 동향 종합 대시보드</text>
    
    <rect x="800" y="135" width="150" height="40" rx="6" fill="#ffffff" stroke="#e2e8f0" stroke-width="1.5"/>
    <text x="825" y="160" font-family="Inter, sans-serif" font-size="14" font-weight="400" fill="#334155">기간: 3년</text>
    <text x="930" y="160" font-family="Inter, sans-serif" font-size="14" font-weight="400" fill="#334155">▼</text>
    
    <rect x="970" y="135" width="40" height="40" rx="6" fill="#ffffff" stroke="#e2e8f0" stroke-width="1.5"/>
    <text x="990" y="160" font-family="Inter, sans-serif" font-size="14" font-weight="400" fill="#334155">⚙️</text>
    
    <rect x="1020" y="135" width="40" height="40" rx="6" fill="#ffffff" stroke="#e2e8f0" stroke-width="1.5"/>
    <text x="1040" y="160" font-family="Inter, sans-serif" font-size="16" font-weight="400" fill="#334155">↗️</text>
    
    <!-- 위젯 그리드 (간략화) -->
    <rect x="80" y="190" width="510" height="250" rx="0" fill="#ffffff" stroke="#e2e8f0" stroke-width="1" filter="drop-shadow(0px 2px 4px rgba(0, 0, 0, 0.05))"/>
    <text x="100" y="220" font-family="Inter, sans-serif" font-size="16" font-weight="600" fill="#0c1e3e">GDP 성장률 추이</text>
    <line x1="80" y1="230" x2="590" y2="230" stroke="#f1f5f9" stroke-width="2"/>
    
    <!-- 간단한 차트 -->
    <polyline points="100,335 150,320 200,330 250,300 300,305 350,285 400,275 450,265 500,250 550,240" fill="none" stroke="#1b3a6b" stroke-width="2.5"/>
    <line x1="100" y1="380" x2="560" y2="380" stroke="#f1f5f9" stroke-width="2"/>
    <line x1="100" y1="250" x2="100" y2="380" stroke="#f1f5f9" stroke-width="2"/>
    
    <rect x="610" y="190" width="510" height="250" rx="0" fill="#ffffff" stroke="#e2e8f0" stroke-width="1" filter="drop-shadow(0px 2px 4px rgba(0, 0, 0, 0.05))"/>
    <text x="630" y="220" font-family="Inter, sans-serif" font-size="16" font-weight="600" fill="#0c1e3e">소비자물가 등락률</text>
    <line x1="610" y1="230" x2="1120" y2="230" stroke="#f1f5f9" stroke-width="2"/>
    
    <!-- 간단한 차트 -->
    <polyline points="630,290 680,295 730,310 780,325 830,310 880,300 930,290 980,280 1030,290 1080,280" fill="none" stroke="#1c7ed6" stroke-width="2.5"/>
    <line x1="630" y1="380" x2="1090" y2="380" stroke="#f1f5f9" stroke-width="2"/>
    <line x1="630" y1="250" x2="630" y2="380" stroke="#f1f5f9" stroke-width="2"/>
    
    <!-- 하단 위젯 (KPI 카드와 텍스트 위젯) -->
    <rect x="80" y="460" width="250" height="150" rx="0" fill="#ffffff" stroke="#e2e8f0" stroke-width="1" filter="drop-shadow(0px 2px 4px rgba(0, 0, 0, 0.05))"/>
    <text x="100" y="490" font-family="Inter, sans-serif" font-size="16" font-weight="600" fill="#0c1e3e">경제성장률</text>
    <text x="100" y="540" font-family="JetBrains Mono, monospace" font-size="28" font-weight="700" fill="#0c1e3e">3.2%</text>
    <text x="180" y="540" font-family="Inter, sans-serif" font-size="14" font-weight="500" fill="#059669">↑ 0.5%p</text>
    <text x="100" y="570" font-family="Inter, sans-serif" font-size="12" font-weight="400" fill="#64748b">전년 동기 대비 (2025년 1분기)</text>
    
    <rect x="350" y="460" width="250" height="150" rx="0" fill="#ffffff" stroke="#e2e8f0" stroke-width="1" filter="drop-shadow(0px 2px 4px rgba(0, 0, 0, 0.05))"/>
    <text x="370" y="490" font-family="Inter, sans-serif" font-size="16" font-weight="600" fill="#0c1e3e">소비자물가 상승률</text>
    <text x="370" y="540" font-family="JetBrains Mono, monospace" font-size="28" font-weight="700" fill="#0c1e3e">2.8%</text>
    <text x="450" y="540" font-family="Inter, sans-serif" font-size="14" font-weight="500" fill="#dc2626">↑ 0.2%p</text>
    <text x="370" y="570" font-family="Inter, sans-serif" font-size="12" font-weight="400" fill="#64748b">전년 동기 대비 (2025년 1분기)</text>
    
    <rect x="620" y="460" width="500" height="150" rx="0" fill="#ffffff" stroke="#e2e8f0" stroke-width="1" filter="drop-shadow(0px 2px 4px rgba(0, 0, 0, 0.05))"/>
    <text x="640" y="490" font-family="Inter, sans-serif" font-size="16" font-weight="600" fill="#0c1e3e">경제 전망 요약</text>
    <text x="640" y="530" font-family="Inter, sans-serif" font-size="14" font-weight="400" fill="#334155">최근 분기 경제성장률은 3.2%로 전년 동기 대비 0.5%p 상승했으며, 소비자물가 상승률은 2.8%로</text>
    <text x="640" y="560" font-family="Inter, sans-serif" font-size="14" font-weight="400" fill="#334155">소폭 상승했습니다. 수출 호조와 내수 회복이 경제 성장을 견인하고 있으나, 물가 상승에 따른</text>
    <text x="640" y="590" font-family="Inter, sans-serif" font-size="14" font-weight="400" fill="#334155">금리 인상 압력이 성장에 부담으로 작용할 수 있습니다.</text>
  </g>
</svg>