<svg width="1440" height="900" xmlns="http://www.w3.org/2000/svg">
  <!-- 헤더 -->
  <rect x="0" y="0" width="1440" height="60" fill="white" stroke="black" stroke-width="1"/>
  <text x="20" y="35" font-family="Arial" font-size="18">E-Torch</text>
  <line x1="100" y1="15" x2="100" y2="45" stroke="black" stroke-width="1"/>
  <text x="120" y="35" font-family="Arial" font-size="14">대시보드 탐색</text>
  
  <!-- 네비게이션 사이드바 -->
  <rect x="0" y="60" width="240" height="840" fill="white" stroke="black" stroke-width="1"/>
  <text x="20" y="90" font-family="Arial" font-size="14">내 대시보드</text>
  <text x="20" y="120" font-family="Arial" font-size="14">대시보드 탐색</text>
  <text x="20" y="150" font-family="Arial" font-size="14">설정</text>
  <text x="20" y="860" font-family="Arial" font-size="14">사용자 프로필</text>
  
  <!-- 탐색 필터 영역 -->
  <rect x="240" y="60" width="1200" height="100" fill="white" stroke="black" stroke-width="1"/>
  <text x="260" y="85" font-family="Arial" font-size="18">전문가 대시보드 탐색</text>
  
  <rect x="260" y="100" width="300" height="30" fill="white" stroke="black" stroke-width="1"/>
  <text x="280" y="120" font-family="Arial" font-size="12">검색...</text>
  
  <text x="580" y="120" font-family="Arial" font-size="12">카테고리:</text>
  <rect x="650" y="100" width="120" height="30" fill="white" stroke="black" stroke-width="1"/>
  <text x="670" y="120" font-family="Arial" font-size="12">전체</text>
  
  <text x="790" y="120" font-family="Arial" font-size="12">정렬:</text>
  <rect x="830" y="100" width="120" height="30" fill="white" stroke="black" stroke-width="1"/>
  <text x="850" y="120" font-family="Arial" font-size="12">구독자 순</text>
  
  <!-- 대시보드 카드 1 -->
  <rect x="260" y="180" width="1160" height="150" fill="white" stroke="black" stroke-width="1"/>
  <text x="280" y="200" font-family="Arial" font-size="16">금융시장 패턴 대시보드</text>
  <text x="280" y="220" font-family="Arial" font-size="12">작성자: 김경제</text>
  <text x="420" y="220" font-family="Arial" font-size="12">구독자: 1,234명</text>
  
  <rect x="280" y="230" width="500" height="80" fill="white" stroke="black" stroke-width="1" stroke-dasharray="2,2"/>
  <text x="530" y="270" font-family="Arial" font-size="10" text-anchor="middle">대시보드 미리보기</text>
  
  <rect x="800" y="230" width="200" height="30" fill="white" stroke="black" stroke-width="1"/>
  <text x="900" y="250" font-family="Arial" font-size="12" text-anchor="middle">미리보기</text>
  
  <rect x="800" y="270" width="200" height="30" fill="white" stroke="black" stroke-width="1"/>
  <text x="900" y="290" font-family="Arial" font-size="12" text-anchor="middle">구독하기</text>
  
  <line x1="260" y1="340" x2="1420" y2="340" stroke="black" stroke-width="1"/>
  
  <!-- 대시보드 카드 2 -->
  <rect x="260" y="350" width="1160" height="150" fill="white" stroke="black" stroke-width="1"/>
  <text x="280" y="370" font-family="Arial" font-size="16">글로벌 경제 인사이트 대시보드</text>
  <text x="280" y="390" font-family="Arial" font-size="12">작성자: 이글로벌</text>
  <text x="420" y="390" font-family="Arial" font-size="12">구독자: 856명</text>
  
  <rect x="280" y="400" width="500" height="80" fill="white" stroke="black" stroke-width="1" stroke-dasharray="2,2"/>
  <text x="530" y="440" font-family="Arial" font-size="10" text-anchor="middle">대시보드 미리보기</text>
  
  <rect x="800" y="400" width="200" height="30" fill="white" stroke="black" stroke-width="1"/>
  <text x="900" y="420" font-family="Arial" font-size="12" text-anchor="middle">미리보기</text>
  
  <rect x="800" y="440" width="200" height="30" fill="white" stroke="black" stroke-width="1"/>
  <text x="900" y="460" font-family="Arial" font-size="12" text-anchor="middle">구독하기</text>
  
  <line x1="260" y1="510" x2="1420" y2="510" stroke="black" stroke-width="1"/>
  
  <!-- 대시보드 카드 3 -->
  <rect x="260" y="520" width="1160" height="150" fill="white" stroke="black" stroke-width="1"/>
  <text x="280" y="540" font-family="Arial" font-size="16">부동산 시장 동향 대시보드</text>
  <text x="280" y="560" font-family="Arial" font-size="12">작성자: 박부동산</text>
  <text x="420" y="560" font-family="Arial" font-size="12">구독자: 742명</text>
  
  <rect x="280" y="570" width="500" height="80" fill="white" stroke="black" stroke-width="1" stroke-dasharray="2,2"/>
  <text x="530" y="610" font-family="Arial" font-size="10" text-anchor="middle">대시보드 미리보기</text>
  
  <rect x="800" y="570" width="200" height="30" fill="white" stroke="black" stroke-width="1"/>
  <text x="900" y="590" font-family="Arial" font-size="12" text-anchor="middle">미리보기</text>
  
  <rect x="800" y="610" width="200" height="30" fill="white" stroke="black" stroke-width="1"/>
  <text x="900" y="630" font-family="Arial" font-size="12" text-anchor="middle">구독하기</text>
  
  <!-- 페이지네이션 -->
  <rect x="620" y="700" width="200" height="30" fill="white" stroke="black" stroke-width="1"/>
  <line x1="650" y1="700" x2="650" y2="730" stroke="black" stroke-width="1"/>
  <line x1="680" y1="700" x2="680" y2="730" stroke="black" stroke-width="1"/>
  <line x1="710" y1="700" x2="710" y2="730" stroke="black" stroke-width="1"/>
  <line x1="740" y1="700" x2="740" y2="730" stroke="black" stroke-width="1"/>
  <line x1="770" y1="700" x2="770" y2="730" stroke="black" stroke-width="1"/>
  
  <text x="635" y="720" font-family="Arial" font-size="12" text-anchor="middle">1</text>
  <text x="665" y="720" font-family="Arial" font-size="12" text-anchor="middle">2</text>
  <text x="695" y="720" font-family="Arial" font-size="12" text-anchor="middle">3</text>
  <text x="725" y="720" font-family="Arial" font-size="12" text-anchor="middle">4</text>
  <text x="755" y="720" font-family="Arial" font-size="12" text-anchor="middle">5</text>
  <text x="785" y="720" font-family="Arial" font-size="12" text-anchor="middle">></text>
</svg>