<svg width="768" height="1024" xmlns="http://www.w3.org/2000/svg">
  <!-- 헤더 -->
  <rect x="0" y="0" width="768" height="60" fill="white" stroke="black" stroke-width="1"/>
  <text x="20" y="35" font-family="Arial" font-size="18">E-Torch</text>
  <line x1="100" y1="15" x2="100" y2="45" stroke="black" stroke-width="1"/>
  <text x="120" y="35" font-family="Arial" font-size="14">대시보드 탐색</text>
  
  <!-- 네비게이션 사이드바 - 태블릿에서는 축소된 버전 -->
  <rect x="0" y="60" width="100" height="964" fill="white" stroke="black" stroke-width="1"/>
  <text x="20" y="90" font-family="Arial" font-size="12">내 대시보드</text>
  <text x="20" y="120" font-family="Arial" font-size="12">대시보드 탐색</text>
  <text x="20" y="150" font-family="Arial" font-size="12">설정</text>
  <text x="20" y="960" font-family="Arial" font-size="12">사용자 프로필</text>
  
  <!-- 탐색 필터 영역 -->
  <rect x="100" y="60" width="668" height="120" fill="white" stroke="black" stroke-width="1"/>
  <text x="120" y="85" font-family="Arial" font-size="16">전문가 대시보드 탐색</text>
  
  <rect x="120" y="100" width="300" height="30" fill="white" stroke="black" stroke-width="1"/>
  <text x="140" y="120" font-family="Arial" font-size="12">검색...</text>
  
  <text x="440" y="120" font-family="Arial" font-size="12">카테고리:</text>
  <rect x="510" y="100" width="120" height="30" fill="white" stroke="black" stroke-width="1"/>
  <text x="530" y="120" font-family="Arial" font-size="12">전체</text>
  
  <text x="120" y="150" font-family="Arial" font-size="12">정렬:</text>
  <rect x="160" y="130" width="120" height="30" fill="white" stroke="black" stroke-width="1"/>
  <text x="180" y="150" font-family="Arial" font-size="12">구독자 순</text>
  
  <!-- 대시보드 카드 1 -->
  <rect x="120" y="200" width="628" height="180" fill="white" stroke="black" stroke-width="1"/>
  <text x="140" y="220" font-family="Arial" font-size="16">금융시장 패턴 대시보드</text>
  <text x="140" y="240" font-family="Arial" font-size="12">작성자: 김경제</text>
  <text x="280" y="240" font-family="Arial" font-size="12">구독자: 1,234명</text>
  
  <rect x="140" y="260" width="300" height="80" fill="white" stroke="black" stroke-width="1" stroke-dasharray="2,2"/>
  <text x="290" y="300" font-family="Arial" font-size="10" text-anchor="middle">대시보드 미리보기</text>
  
  <rect x="460" y="260" width="160" height="30" fill="white" stroke="black" stroke-width="1"/>
  <text x="540" y="280" font-family="Arial" font-size="12" text-anchor="middle">미리보기</text>
  
  <rect x="460" y="300" width="160" height="30" fill="white" stroke="black" stroke-width="1"/>
  <text x="540" y="320" font-family="Arial" font-size="12" text-anchor="middle">구독하기</text>
  
  <line x1="120" y1="390" x2="748" y2="390" stroke="black" stroke-width="1"/>
  
  <!-- 대시보드 카드 2 -->
  <rect x="120" y="400" width="628" height="180" fill="white" stroke="black" stroke-width="1"/>
  <text x="140" y="420" font-family="Arial" font-size="16">글로벌 경제 인사이트 대시보드</text>
  <text x="140" y="440" font-family="Arial" font-size="12">작성자: 이글로벌</text>
  <text x="280" y="440" font-family="Arial" font-size="12">구독자: 856명</text>
  
  <rect x="140" y="460" width="300" height="80" fill="white" stroke="black" stroke-width="1" stroke-dasharray="2,2"/>
  <text x="290" y="500" font-family="Arial" font-size="10" text-anchor="middle">대시보드 미리보기</text>
  
  <rect x="460" y="460" width="160" height="30" fill="white" stroke="black" stroke-width="1"/>
  <text x="540" y="480" font-family="Arial" font-size="12" text-anchor="middle">미리보기</text>
  
  <rect x="460" y="500" width="160" height="30" fill="white" stroke="black" stroke-width="1"/>
  <text x="540" y="520" font-family="Arial" font-size="12" text-anchor="middle">구독하기</text>
  
  <line x1="120" y1="590" x2="748" y2="590" stroke="black" stroke-width="1"/>
  
  <!-- 대시보드 카드 3 -->
  <rect x="120" y="600" width="628" height="180" fill="white" stroke="black" stroke-width="1"/>
  <text x="140" y="620" font-family="Arial" font-size="16">부동산 시장 동향 대시보드</text>
  <text x="140" y="640" font-family="Arial" font-size="12">작성자: 박부동산</text>
  <text x="280" y="640" font-family="Arial" font-size="12">구독자: 742명</text>
  
  <rect x="140" y="660" width="300" height="80" fill="white" stroke="black" stroke-width="1" stroke-dasharray="2,2"/>
  <text x="290" y="700" font-family="Arial" font-size="10" text-anchor="middle">대시보드 미리보기</text>
  
  <rect x="460" y="660" width="160" height="30" fill="white" stroke="black" stroke-width="1"/>
  <text x="540" y="680" font-family="Arial" font-size="12" text-anchor="middle">미리보기</text>
  
  <rect x="460" y="700" width="160" height="30" fill="white" stroke="black" stroke-width="1"/>
  <text x="540" y="720" font-family="Arial" font-size="12" text-anchor="middle">구독하기</text>
  
  <!-- 페이지네이션 -->
  <rect x="284" y="800" width="200" height="30" fill="white" stroke="black" stroke-width="1"/>
  <line x1="324" y1="800" x2="324" y2="830" stroke="black" stroke-width="1"/>
  <line x1="364" y1="800" x2="364" y2="830" stroke="black" stroke-width="1"/>
  <line x1="404" y1="800" x2="404" y2="830" stroke="black" stroke-width="1"/>
  <line x1="444" y1="800" x2="444" y2="830" stroke="black" stroke-width="1"/>
  
  <text x="304" y="820" font-family="Arial" font-size="12" text-anchor="middle">1</text>
  <text x="344" y="820" font-family="Arial" font-size="12" text-anchor="middle">2</text>
  <text x="384" y="820" font-family="Arial" font-size="12" text-anchor="middle">3</text>
  <text x="424" y="820" font-family="Arial" font-size="12" text-anchor="middle">4</text>
  <text x="464" y="820" font-family="Arial" font-size="12" text-anchor="middle">></text>
</svg>