<svg width="375" height="812" xmlns="http://www.w3.org/2000/svg">
  <!-- 헤더 -->
  <rect x="0" y="0" width="375" height="60" fill="white" stroke="black" stroke-width="1"/>
  <text x="20" y="35" font-family="Arial" font-size="18">E-Torch</text>
  <!-- 햄버거 메뉴 아이콘 -->
  <rect x="330" y="20" width="25" height="3" fill="black"/>
  <rect x="330" y="30" width="25" height="3" fill="black"/>
  <rect x="330" y="40" width="25" height="3" fill="black"/>
  
  <!-- 탐색 필터 영역 (축소 버전) -->
  <rect x="0" y="60" width="375" height="140" fill="white" stroke="black" stroke-width="1"/>
  <text x="20" y="85" font-family="Arial" font-size="16">전문가 대시보드 탐색</text>
  
  <rect x="20" y="95" width="335" height="30" fill="white" stroke="black" stroke-width="1"/>
  <text x="30" y="115" font-family="Arial" font-size="12">검색...</text>
  
  <rect x="20" y="135" width="160" height="30" fill="white" stroke="black" stroke-width="1"/>
  <text x="30" y="155" font-family="Arial" font-size="12">카테고리: 전체</text>
  
  <rect x="195" y="135" width="160" height="30" fill="white" stroke="black" stroke-width="1"/>
  <text x="205" y="155" font-family="Arial" font-size="12">정렬: 구독자 순</text>
  
  <!-- 대시보드 카드 1 (모바일용 단순화) -->
  <rect x="20" y="210" width="335" height="180" fill="white" stroke="black" stroke-width="1"/>
  <text x="30" y="230" font-family="Arial" font-size="14">금융시장 패턴 대시보드</text>
  <text x="30" y="250" font-family="Arial" font-size="12">작성자: 김경제</text>
  <text x="30" y="270" font-family="Arial" font-size="12">구독자: 1,234명</text>
  
  <rect x="30" y="280" width="325" height="60" fill="white" stroke="black" stroke-width="1" stroke-dasharray="2,2"/>
  <text x="190" y="310" font-family="Arial" font-size="10" text-anchor="middle">대시보드 미리보기</text>
  
  <rect x="30" y="350" width="150" height="30" fill="white" stroke="black" stroke-width="1"/>
  <text x="105" y="370" font-family="Arial" font-size="12" text-anchor="middle">미리보기</text>
  
  <rect x="200" y="350" width="155" height="30" fill="white" stroke="black" stroke-width="1"/>
  <text x="277" y="370" font-family="Arial" font-size="12" text-anchor="middle">구독하기</text>
  
  <line x1="20" y1="400" x2="355" y2="400" stroke="black" stroke-width="1"/>
  
  <!-- 대시보드 카드 2 -->
  <rect x="20" y="410" width="335" height="180" fill="white" stroke="black" stroke-width="1"/>
  <text x="30" y="430" font-family="Arial" font-size="14">글로벌 경제 인사이트 대시보드</text>
  <text x="30" y="450" font-family="Arial" font-size="12">작성자: 이글로벌</text>
  <text x="30" y="470" font-family="Arial" font-size="12">구독자: 856명</text>
  
  <rect x="30" y="480" width="325" height="60" fill="white" stroke="black" stroke-width="1" stroke-dasharray="2,2"/>
  <text x="190" y="510" font-family="Arial" font-size="10" text-anchor="middle">대시보드 미리보기</text>
  
  <rect x="30" y="550" width="150" height="30" fill="white" stroke="black" stroke-width="1"/>
  <text x="105" y="570" font-family="Arial" font-size="12" text-anchor="middle">미리보기</text>
  
  <rect x="200" y="550" width="155" height="30" fill="white" stroke="black" stroke-width="1"/>
  <text x="277" y="570" font-family="Arial" font-size="12" text-anchor="middle">구독하기</text>
  
  <!-- 페이지네이션 (간소화) -->
  <rect x="87" y="610" width="200" height="40" fill="white" stroke="black" stroke-width="1"/>
  <line x1="127" y1="610" x2="127" y2="650" stroke="black" stroke-width="1"/>
  <line x1="167" y1="610" x2="167" y2="650" stroke="black" stroke-width="1"/>
  <line x1="207" y1="610" x2="207" y2="650" stroke="black" stroke-width="1"/>
  <line x1="247" y1="610" x2="247" y2="650" stroke="black" stroke-width="1"/>
  
  <text x="107" y="635" font-family="Arial" font-size="12" text-anchor="middle">1</text>
  <text x="147" y="635" font-family="Arial" font-size="12" text-anchor="middle">2</text>
  <text x="187" y="635" font-family="Arial" font-size="12" text-anchor="middle">3</text>
  <text x="227" y="635" font-family="Arial" font-size="12" text-anchor="middle">4</text>
  <text x="267" y="635" font-family="Arial" font-size="12" text-anchor="middle">></text>
  
  <!-- 하단 네비게이션 바 (모바일용) -->
  <rect x="0" y="762" width="375" height="50" fill="white" stroke="black" stroke-width="1"/>
  <line x1="93" y1="762" x2="93" y2="812" stroke="black" stroke-width="1"/>
  <line x1="187" y1="762" x2="187" y2="812" stroke="black" stroke-width="1"/>
  <line x1="281" y1="762" x2="281" y2="812" stroke="black" stroke-width="1"/>
  
  <text x="46" y="795" font-family="Arial" font-size="10" text-anchor="middle">내 대시보드</text>
  <text x="140" y="795" font-family="Arial" font-size="10" text-anchor="middle">대시보드 탐색</text>
  <text x="234" y="795" font-family="Arial" font-size="10" text-anchor="middle">설정</text>
  <text x="327" y="795" font-family="Arial" font-size="10" text-anchor="middle">프로필</text>
</svg>