
<svg width="1440" height="900" xmlns="http://www.w3.org/2000/svg">
  <!-- 헤더 -->
  <rect x="0" y="0" width="1440" height="60" fill="white" stroke="black" stroke-width="1"/>
  <!-- 햄버거 메뉴 아이콘 (좌측 사이드바 토글) -->
  <rect x="15" y="15" width="35" height="30" fill="white" stroke="black" stroke-width="1"/>
  <line x1="20" y1="22" x2="45" y2="22" stroke="black" stroke-width="2"/>
  <line x1="20" y1="30" x2="45" y2="30" stroke="black" stroke-width="2"/>
  <line x1="20" y1="38" x2="45" y2="38" stroke="black" stroke-width="2"/>
<text x="70" y="35" font-family="Arial" font-size="20">E-Torch</text>
<line x1="150" y1="15" x2="150" y2="45" stroke="black" stroke-width="1"/>
  <!-- 브레드크럼 영역 -->
<text x="170" y="35" font-family="Arial" font-size="14">대시보드 > 편집 > 경제 동향 대시보드</text>
  <!-- 사용자 프로필 영역 (우측) -->
  <rect x="1320" y="15" width="100" height="30" fill="white" stroke="black" stroke-width="1"/>
  <circle cx="1335" cy="30" r="8" fill="white" stroke="black" stroke-width="1"/>
  <text x="1355" y="35" font-family="Arial" font-size="12">사용자명</text>
  <!-- 네비게이션 사이드바 -->
  <rect x="0" y="60" width="200" height="840" fill="white" stroke="black" stroke-width="1"/>
  <text x="20" y="90" font-family="Arial" font-size="14">내 대시보드</text>
  <text x="20" y="120" font-family="Arial" font-size="14">대시보드 탐색</text>
  <text x="20" y="150" font-family="Arial" font-size="14">설정</text>
  <line x1="10" y1="170" x2="190" y2="170" stroke="lightgray" stroke-width="1"/>
  <!-- 대시보드 헤더 영역 -->
  <rect x="200" y="60" width="1000" height="80" fill="white" stroke="black" stroke-width="1"/>
  <text x="220" y="90" font-family="Arial" font-size="18">경제 동향 대시보드</text>
  <text x="220" y="110" font-family="Arial" font-size="12" fill="gray">편집 모드 | 최근 1년 데이터 | 최종 수정: 2025-05-21 15:30</text>
  <text x="220" y="125" font-family="Arial" font-size="10" fill="lightgray">주요 경제지표의 최근 동향을 파악할 수 있는 대시보드</text>
  <!-- 컨트롤 영역 -->
  <rect x="200" y="140" width="1000" height="50" fill="white" stroke="black" stroke-width="1"/>
  <!-- 그룹 1: 위젯 추가 -->
  <rect x="220" y="150" width="100" height="30" fill="white" stroke="black" stroke-width="1"/>
  <text x="270" y="170" font-family="Arial" font-size="12" text-anchor="middle">+ 위젯 추가</text>
  <line x1="340" y1="150" x2="340" y2="180" stroke="lightgray" stroke-width="1"/>
  <!-- 그룹 2: 기간 설정 -->
<text x="355" y="167" font-family="Arial" font-size="12">기간:</text>
<rect x="385" y="155" width="100" height="20" fill="white" stroke="black" stroke-width="1"/>
<text x="435" y="167" font-family="Arial" font-size="10" text-anchor="middle">최근 1년 ▼</text>
  <line x1="505" y1="150" x2="505" y2="180" stroke="lightgray" stroke-width="1"/>
  <!-- 그룹 3: 편집 도구 -->
  <rect x="520" y="150" width="25" height="30" fill="white" stroke="black" stroke-width="1"/>
  <text x="532" y="170" font-family="Arial" font-size="12" text-anchor="middle">↶</text>
  <rect x="550" y="150" width="25" height="30" fill="white" stroke="black" stroke-width="1"/>
  <text x="562" y="170" font-family="Arial" font-size="12" text-anchor="middle">↷</text>
  <line x1="595" y1="150" x2="595" y2="180" stroke="lightgray" stroke-width="1"/>
  <!-- 그룹 4: 상태 표시 -->
  <rect x="610" y="155" width="120" height="20" fill="white" stroke="lightgray" stroke-width="1"/>
  <circle cx="620" cy="165" r="3" fill="green" stroke="none"/>
  <text x="630" y="167" font-family="Arial" font-size="10">자동 저장됨 (방금 전)</text>
  <line x1="750" y1="150" x2="750" y2="180" stroke="lightgray" stroke-width="1"/>
  <!-- 그룹 5: 대시보드 설정 -->
  <rect x="765" y="150" width="90" height="30" fill="white" stroke="black" stroke-width="1"/>
  <text x="810" y="170" font-family="Arial" font-size="12" text-anchor="middle">대시보드 설정</text>
  <!-- 그룹 6: 액션 버튼 (우측 정렬) -->
  <rect x="1020" y="150" width="60" height="30" fill="white" stroke="black" stroke-width="1"/>
  <text x="1050" y="170" font-family="Arial" font-size="12" text-anchor="middle">취소</text>
  <rect x="1090" y="150" width="60" height="30" fill="white" stroke="black" stroke-width="2"/>
  <text x="1120" y="170" font-family="Arial" font-size="12" text-anchor="middle">저장</text>
  <!-- 메인 콘텐츠 영역 (그리드 레이아웃) -->
  <rect x="200" y="190" width="1000" height="710" fill="white" stroke="black" stroke-width="1"/>
  <!-- 그리드 가이드라인 (3열 균등 분할) -->
  <line x1="533" y1="190" x2="533" y2="900" stroke="lightgray" stroke-width="1" stroke-dasharray="2,2"/>
  <line x1="866" y1="190" x2="866" y2="900" stroke="lightgray" stroke-width="1" stroke-dasharray="2,2"/>
  <line x1="200" y1="445" x2="1200" y2="445" stroke="lightgray" stroke-width="1" stroke-dasharray="2,2"/>
  <line x1="200" y1="700" x2="1200" y2="700" stroke="lightgray" stroke-width="1" stroke-dasharray="2,2"/>
  <!-- 위젯 1: GDP 성장률 차트 (좌측 상단) - 선택된 상태 -->
  <rect x="220" y="210" width="293" height="215" fill="white" stroke="blue" stroke-width="3"/>
  <rect x="220" y="210" width="293" height="25" fill="white" stroke="lightgray" stroke-width="1"/>
  <text x="230" y="227" font-family="Arial" font-size="12" font-weight="bold">GDP 성장률 추이</text>
  <!-- 위젯 컨트롤 아이콘들 -->
  <circle cx="493" cy="222" r="6" fill="white" stroke="black" stroke-width="1"/>
  <text x="490" y="226" font-family="Arial" font-size="8">⚙</text>
  <circle cx="481" cy="222" r="6" fill="white" stroke="black" stroke-width="1"/>
  <text x="478" y="226" font-family="Arial" font-size="8">↗</text>
  <circle cx="469" cy="222" r="6" fill="white" stroke="black" stroke-width="1"/>
  <text x="466" y="226" font-family="Arial" font-size="8">✕</text>
  <!-- 차트 영역 -->
  <rect x="230" y="245" width="273" height="170" fill="white" stroke="lightgray" stroke-width="1" stroke-dasharray="2,2"/>
  <polyline points="240,390 270,380 300,385 330,375 360,370 390,365 420,370 450,355 480,360 503,350" fill="none" stroke="black" stroke-width="2"/>
  <line x1="240" y1="405" x2="503" y2="405" stroke="black" stroke-width="1"/>
  <line x1="240" y1="255" x2="240" y2="405" stroke="black" stroke-width="1"/>
  <!-- 리사이즈 핸들 (선택된 위젯에만 표시) -->
  <rect x="506" y="418" width="7" height="7" fill="blue" stroke="black" stroke-width="1"/>
  <!-- 위젯 2: 소비자물가 차트 (중앙 상단) -->
  <rect x="553" y="210" width="293" height="215" fill="white" stroke="black" stroke-width="2"/>
  <rect x="553" y="210" width="293" height="25" fill="white" stroke="lightgray" stroke-width="1"/>
  <text x="563" y="227" font-family="Arial" font-size="12">소비자물가 등락률</text>
  <!-- 위젯 컨트롤 아이콘들 -->
  <circle cx="826" cy="222" r="6" fill="white" stroke="black" stroke-width="1"/>
  <text x="823" y="226" font-family="Arial" font-size="8">⚙</text>
  <circle cx="814" cy="222" r="6" fill="white" stroke="black" stroke-width="1"/>
  <text x="811" y="226" font-family="Arial" font-size="8">↗</text>
  <circle cx="802" cy="222" r="6" fill="white" stroke="black" stroke-width="1"/>
  <text x="799" y="226" font-family="Arial" font-size="8">✕</text>
  <!-- 차트 영역 -->
  <rect x="563" y="245" width="273" height="170" fill="white" stroke="lightgray" stroke-width="1" stroke-dasharray="2,2"/>
  <polyline points="573,365 603,375 633,370 663,380 693,360 723,355 753,350 783,360 813,365 836,355" fill="none" stroke="black" stroke-width="2"/>
  <line x1="573" y1="405" x2="836" y2="405" stroke="black" stroke-width="1"/>
  <line x1="573" y1="255" x2="573" y2="405" stroke="black" stroke-width="1"/>
  <!-- 위젯 3: 기준금리 차트 (우측 상단) -->
  <rect x="886" y="210" width="294" height="215" fill="white" stroke="black" stroke-width="2"/>
  <rect x="886" y="210" width="294" height="25" fill="white" stroke="lightgray" stroke-width="1"/>
  <text x="896" y="227" font-family="Arial" font-size="12">기준금리 추이</text>
  <!-- 위젯 컨트롤 아이콘들 -->
  <circle cx="1160" cy="222" r="6" fill="white" stroke="black" stroke-width="1"/>
  <text x="1157" y="226" font-family="Arial" font-size="8">⚙</text>
  <circle cx="1148" cy="222" r="6" fill="white" stroke="black" stroke-width="1"/>
  <text x="1145" y="226" font-family="Arial" font-size="8">↗</text>
  <circle cx="1136" cy="222" r="6" fill="white" stroke="black" stroke-width="1"/>
  <text x="1133" y="226" font-family="Arial" font-size="8">✕</text>
  <!-- 차트 영역 -->
  <rect x="896" y="245" width="274" height="170" fill="white" stroke="lightgray" stroke-width="1" stroke-dasharray="2,2"/>
  <polyline points="906,395 936,395 966,395 996,395 1026,385 1056,385 1086,385 1116,385 1146,375 1170,375" fill="none" stroke="black" stroke-width="3"/>
  <line x1="906" y1="405" x2="1170" y2="405" stroke="black" stroke-width="1"/>
  <line x1="906" y1="255" x2="906" y2="405" stroke="black" stroke-width="1"/>
  <!-- 위젯 4: 주요 경제지표 요약 (좌측 중단) -->
  <rect x="220" y="465" width="293" height="215" fill="white" stroke="black" stroke-width="2"/>
  <rect x="220" y="465" width="293" height="25" fill="white" stroke="lightgray" stroke-width="1"/>
  <text x="230" y="482" font-family="Arial" font-size="12">주요 경제지표 요약</text>
  <!-- 위젯 컨트롤 아이콘들 -->
  <circle cx="493" cy="477" r="6" fill="white" stroke="black" stroke-width="1"/>
  <text x="490" y="481" font-family="Arial" font-size="8">⚙</text>
  <circle cx="481" cy="477" r="6" fill="white" stroke="black" stroke-width="1"/>
  <text x="478" y="481" font-family="Arial" font-size="8">↗</text>
  <circle cx="469" cy="477" r="6" fill="white" stroke="black" stroke-width="1"/>
  <text x="466" y="481" font-family="Arial" font-size="8">✕</text>
  <!-- 테이블 영역 -->
  <rect x="230" y="500" width="273" height="170" fill="white" stroke="lightgray" stroke-width="1"/>
  <!-- 테이블 헤더 -->
  <line x1="230" y1="520" x2="503" y2="520" stroke="black" stroke-width="1"/>
  <line x1="366" y1="500" x2="366" y2="670" stroke="lightgray" stroke-width="1"/>
<text x="240" y="515" font-family="Arial" font-size="11">지표명</text>
<text x="376" y="515" font-family="Arial" font-size="11">현재값</text>
  <!-- 테이블 데이터 -->
  <line x1="230" y1="535" x2="503" y2="535" stroke="lightgray" stroke-width="1"/>
  <line x1="230" y1="550" x2="503" y2="550" stroke="lightgray" stroke-width="1"/>
  <line x1="230" y1="565" x2="503" y2="565" stroke="lightgray" stroke-width="1"/>
  <line x1="230" y1="580" x2="503" y2="580" stroke="lightgray" stroke-width="1"/>
  <line x1="230" y1="595" x2="503" y2="595" stroke="lightgray" stroke-width="1"/>
<text x="240" y="530" font-family="Arial" font-size="10">GDP 성장률</text>
<text x="376" y="530" font-family="Arial" font-size="10">2.6%</text>
<text x="240" y="545" font-family="Arial" font-size="10">소비자물가</text>
<text x="376" y="545" font-family="Arial" font-size="10">3.2%</text>
<text x="240" y="560" font-family="Arial" font-size="10">기준금리</text>
<text x="376" y="560" font-family="Arial" font-size="10">3.5%</text>
<text x="240" y="575" font-family="Arial" font-size="10">환율(USD)</text>
<text x="376" y="575" font-family="Arial" font-size="10">1,320원</text>
<text x="240" y="590" font-family="Arial" font-size="10">실업률</text>
<text x="376" y="590" font-family="Arial" font-size="10">2.8%</text>
  <!-- 위젯 5: 텍스트 위젯 (중앙 중단) -->
  <rect x="553" y="465" width="293" height="215" fill="white" stroke="black" stroke-width="2"/>
  <rect x="553" y="465" width="293" height="25" fill="white" stroke="lightgray" stroke-width="1"/>
  <text x="563" y="482" font-family="Arial" font-size="12">경제 동향 요약</text>
  <!-- 위젯 컨트롤 아이콘들 -->
  <circle cx="826" cy="477" r="6" fill="white" stroke="black" stroke-width="1"/>
  <text x="823" y="481" font-family="Arial" font-size="8">⚙</text>
  <circle cx="814" cy="477" r="6" fill="white" stroke="black" stroke-width="1"/>
  <text x="811" y="481" font-family="Arial" font-size="8">↗</text>
  <circle cx="802" cy="477" r="6" fill="white" stroke="black" stroke-width="1"/>
  <text x="799" y="481" font-family="Arial" font-size="8">✕</text>
  <!-- 텍스트 콘텐츠 -->
  <rect x="563" y="500" width="273" height="170" fill="white" stroke="lightgray" stroke-width="1"/>
  <text x="573" y="520" font-family="Arial" font-size="11">2025년 5월 경제 동향:</text>
  <text x="573" y="540" font-family="Arial" font-size="10">• GDP 성장률이 전분기 대비 0.1%p 상승</text>
  <text x="573" y="555" font-family="Arial" font-size="10">• 소비자물가 상승세 둔화</text>
  <text x="573" y="570" font-family="Arial" font-size="10">• 기준금리 동결 정책 지속</text>
  <text x="573" y="585" font-family="Arial" font-size="10">• 환율 안정화 추세</text>
  <!-- 위젯 6: 새 위젯 추가 영역 (우측 중단) -->
  <rect x="886" y="465" width="294" height="215" fill="white" stroke="lightgray" stroke-width="2" stroke-dasharray="5,5"/>
  <text x="1033" y="565" font-family="Arial" font-size="14" text-anchor="middle" fill="gray">+ 새 위젯</text>
  <text x="1033" y="585" font-family="Arial" font-size="11" text-anchor="middle" fill="lightgray">클릭하여 추가</text>
  <!-- 하단 영역 (전체 너비) -->
  <rect x="220" y="720" width="960" height="160" fill="white" stroke="lightgray" stroke-width="2" stroke-dasharray="5,5"/>
  <text x="700" y="795" font-family="Arial" font-size="14" text-anchor="middle" fill="gray">+ 새 위젯 추가 영역</text>
  <text x="700" y="815" font-family="Arial" font-size="11" text-anchor="middle" fill="lightgray">위젯을 드래그하거나 클릭하여 추가하세요</text>
  <!-- 우측 속성 패널 영역 -->
  <rect x="1220" y="60" width="220" height="840" fill="white" stroke="black" stroke-width="1"/>
  <!-- 속성 패널 헤더 -->
  <rect x="1220" y="60" width="220" height="40" fill="white" stroke="black" stroke-width="1"/>
  <text x="1240" y="85" font-family="Arial" font-size="16" font-weight="bold">위젯 속성</text>
  <!-- 선택된 위젯 정보 -->
  <rect x="1230" y="110" width="200" height="30" fill="white" stroke="lightgray" stroke-width="1"/>
  <text x="1240" y="130" font-family="Arial" font-size="12" font-weight="bold">GDP 성장률 추이</text>
  <!-- 기본 정보 섹션 -->
<text x="1240" y="165" font-family="Arial" font-size="14" font-weight="bold">기본 정보</text>
<line x1="1240" y1="170" x2="1420" y2="170" stroke="lightgray" stroke-width="1"/>
  <!-- 위젯 제목 -->
<text x="1240" y="190" font-family="Arial" font-size="12">제목</text>
<rect x="1240" y="195" width="180" height="25" fill="white" stroke="black" stroke-width="1"/>
<text x="1250" y="212" font-family="Arial" font-size="11">GDP 성장률 추이</text>
  <!-- 위젯 설명 -->
<text x="1240" y="235" font-family="Arial" font-size="12">설명</text>
<rect x="1240" y="240" width="180" height="40" fill="white" stroke="black" stroke-width="1"/>
<text x="1250" y="257" font-family="Arial" font-size="10">경제성장률 추이를 보여주는</text>
<text x="1250" y="270" font-family="Arial" font-size="10">시계열 차트입니다.</text>
  <!-- 위치 및 크기 섹션 -->
<text x="1240" y="305" font-family="Arial" font-size="14" font-weight="bold">위치 및 크기</text>
<line x1="1240" y1="310" x2="1420" y2="310" stroke="lightgray" stroke-width="1"/>
  <!-- 위치 -->
<text x="1240" y="330" font-family="Arial" font-size="12">위치 (X, Y)</text>
<rect x="1240" y="335" width="80" height="25" fill="white" stroke="black" stroke-width="1"/>
<text x="1280" y="352" font-family="Arial" font-size="11" text-anchor="middle">0, 0</text>
  <!-- 크기 -->
<text x="1240" y="375" font-family="Arial" font-size="12">크기 (W, H)</text>
<rect x="1240" y="380" width="80" height="25" fill="white" stroke="black" stroke-width="1"/>
<text x="1280" y="397" font-family="Arial" font-size="11" text-anchor="middle">2, 2</text>
  <!-- 스타일 섹션 -->
<text x="1240" y="425" font-family="Arial" font-size="14" font-weight="bold">스타일</text>
<line x1="1240" y1="430" x2="1420" y2="430" stroke="lightgray" stroke-width="1"/>
  <!-- 배경색 -->
<text x="1240" y="450" font-family="Arial" font-size="12">배경색</text>
<rect x="1240" y="455" width="25" height="25" fill="white" stroke="black" stroke-width="1"/>
<text x="1275" y="472" font-family="Arial" font-size="11">흰색</text>
  <!-- 테두리 -->
<text x="1240" y="495" font-family="Arial" font-size="12">테두리</text>
<rect x="1240" y="500" width="80" height="25" fill="white" stroke="black" stroke-width="1"/>
<text x="1280" y="517" font-family="Arial" font-size="11" text-anchor="middle">표시</text>
  <!-- 데이터 섹션 -->
<text x="1240" y="545" font-family="Arial" font-size="14" font-weight="bold">데이터</text>
<line x1="1240" y1="550" x2="1420" y2="550" stroke="lightgray" stroke-width="1"/>
  <!-- 데이터 소스 -->
<text x="1240" y="570" font-family="Arial" font-size="12">데이터 소스</text>
<rect x="1240" y="575" width="100" height="25" fill="white" stroke="black" stroke-width="1"/>
<text x="1290" y="592" font-family="Arial" font-size="11" text-anchor="middle">KOSIS</text>
  <!-- 지표 -->
<text x="1240" y="615" font-family="Arial" font-size="12">지표</text>
<rect x="1240" y="620" width="150" height="25" fill="white" stroke="black" stroke-width="1"/>
<text x="1315" y="637" font-family="Arial" font-size="11" text-anchor="middle">GDP 성장률</text>
  <!-- 업데이트 주기 -->
<text x="1240" y="660" font-family="Arial" font-size="12">업데이트 주기</text>
<rect x="1240" y="665" width="100" height="25" fill="white" stroke="black" stroke-width="1"/>
<text x="1290" y="682" font-family="Arial" font-size="11" text-anchor="middle">월간</text>
  <!-- 수정된 액션 버튼들 -->
  <rect x="1240" y="720" width="80" height="30" fill="white" stroke="black" stroke-width="1"/>
  <text x="1280" y="740" font-family="Arial" font-size="12" text-anchor="middle">위젯 편집</text>
  <rect x="1240" y="760" width="80" height="30" fill="white" stroke="black" stroke-width="1"/>
  <text x="1280" y="780" font-family="Arial" font-size="12" text-anchor="middle">위젯 복제</text>
  <rect x="1330" y="720" width="80" height="60" fill="white" stroke="black" stroke-width="1"/>
  <text x="1370" y="755" font-family="Arial" font-size="12" text-anchor="middle">위젯 삭제</text>
  <!-- 드래그 가이드 힌트 -->
<text x="700" y="205" font-family="Arial" font-size="10" text-anchor="middle" fill="lightgray">드래그하여 위젯 이동, 모서리를 드래그하여 크기 조정</text>
</svg>