<svg width="1440" height="900" xmlns="http://www.w3.org/2000/svg">
  <!-- 헤더 -->
  <rect x="0" y="0" width="1440" height="60" fill="white" stroke="black" stroke-width="1"/>
  
  <!-- 햄버거 메뉴 아이콘 (좌측 사이드바 토글) -->
  <rect x="15" y="15" width="35" height="30" fill="white" stroke="black" stroke-width="1"/>
  <line x1="20" y1="22" x2="45" y2="22" stroke="black" stroke-width="2"/>
  <line x1="20" y1="30" x2="45" y2="30" stroke="black" stroke-width="2"/>
  <line x1="20" y1="38" x2="45" y2="38" stroke="black" stroke-width="2"/>
  
  <text x="70" y="35" font-family="Arial" font-size="20">E-Torch</text>
  <line x1="150" y1="15" x2="150" y2="45" stroke="black" stroke-width="1"/>
  <text x="170" y="35" font-family="Arial" font-size="14">대시보드 > 편집 > 경제 동향 대시보드</text>
  
  <!-- 사용자 프로필 영역 (우측) -->
  <rect x="1320" y="15" width="100" height="30" fill="white" stroke="black" stroke-width="1"/>
  <circle cx="1335" cy="30" r="8" fill="white" stroke="black" stroke-width="1"/>
  <text x="1355" y="35" font-family="Arial" font-size="12">사용자명</text>
  
  <!-- 네비게이션 사이드바 -->
  <rect x="0" y="60" width="200" height="840" fill="white" stroke="black" stroke-width="1"/>
  <text x="20" y="90" font-family="Arial" font-size="14">내 대시보드</text>
  <text x="20" y="120" font-family="Arial" font-size="14">대시보드 탐색</text>
  <text x="20" y="150" font-family="Arial" font-size="14">설정</text>
  <line x1="10" y1="170" x2="190" y2="170" stroke="lightgray" stroke-width="1"/>
  <text x="20" y="860" font-family="Arial" font-size="14">사용자 프로필</text>
  
  <!-- 페이지 헤더 영역 -->
  <rect x="200" y="60" width="1050" height="80" fill="white" stroke="black" stroke-width="1"/>
  <text x="220" y="90" font-family="Arial" font-size="18">경제 동향 대시보드</text>
  <text x="220" y="110" font-family="Arial" font-size="12" fill="gray">편집 모드 | 최근 1년 데이터</text>
  <text x="220" y="125" font-family="Arial" font-size="10" fill="lightgray">최종 수정: 2025-05-21 15:30 | 자동 저장됨</text>
  
  <!-- 컨트롤 영역 -->
  <rect x="200" y="140" width="1050" height="50" fill="white" stroke="black" stroke-width="1"/>
  
  <!-- 위젯 추가 버튼 (활성화됨 - 드롭다운 열림 상태) -->
  <rect x="220" y="150" width="100" height="30" fill="white" stroke="black" stroke-width="2"/>
  <text x="270" y="170" font-family="Arial" font-size="12" text-anchor="middle">+ 위젯 추가</text>
  
  <line x1="340" y1="150" x2="340" y2="180" stroke="black" stroke-width="1"/>
  
  <!-- 기간 설정 (비활성화) -->
  <text x="360" y="167" font-family="Arial" font-size="12" fill="gray">기간:</text>
  <rect x="400" y="155" width="120" height="20" fill="white" stroke="black" stroke-width="1" opacity="0.5"/>
  <text x="460" y="167" font-family="Arial" font-size="10" text-anchor="middle" fill="gray">최근 1년</text>
  
  <line x1="540" y1="150" x2="540" y2="180" stroke="black" stroke-width="1"/>
  
  <!-- 되돌리기/다시하기 (비활성화) -->
  <rect x="560" y="150" width="30" height="30" fill="white" stroke="black" stroke-width="1" opacity="0.5"/>
  <text x="575" y="170" font-family="Arial" font-size="12" text-anchor="middle" fill="gray">↶</text>
  
  <rect x="600" y="150" width="30" height="30" fill="white" stroke="black" stroke-width="1" opacity="0.5"/>
  <text x="615" y="170" font-family="Arial" font-size="12" text-anchor="middle" fill="gray">↷</text>
  
  <line x1="650" y1="150" x2="650" y2="180" stroke="black" stroke-width="1"/>
  
  <!-- 자동 저장 상태 표시 (비활성화) -->
  <rect x="670" y="155" width="120" height="20" fill="white" stroke="black" stroke-width="1" opacity="0.5"/>
  <circle cx="680" cy="165" r="3" fill="gray" stroke="none"/>
  <text x="690" y="167" font-family="Arial" font-size="10" fill="gray">자동 저장됨</text>
  
  <line x1="810" y1="150" x2="810" y2="180" stroke="black" stroke-width="1"/>
  
  <!-- 대시보드 메타데이터 설정 (비활성화) -->
  <rect x="830" y="150" width="100" height="30" fill="white" stroke="black" stroke-width="1" opacity="0.5"/>
  <text x="880" y="170" font-family="Arial" font-size="12" text-anchor="middle" fill="gray">대시보드 설정</text>
  
  <line x1="950" y1="150" x2="950" y2="180" stroke="black" stroke-width="1"/>
  
  <!-- 저장/취소 버튼 (비활성화) -->
  <rect x="1080" y="150" width="70" height="30" fill="white" stroke="black" stroke-width="1" opacity="0.5"/>
  <text x="1115" y="170" font-family="Arial" font-size="12" text-anchor="middle" fill="gray">취소</text>
  
  <rect x="1160" y="150" width="70" height="30" fill="white" stroke="black" stroke-width="1" opacity="0.5"/>
  <text x="1195" y="170" font-family="Arial" font-size="12" text-anchor="middle" fill="gray">저장</text>
  
  <!-- 그리드 영역 (드롭다운보다 먼저 그려서 뒤로 보내기) -->
  <rect x="200" y="190" width="1050" height="710" fill="white" stroke="black" stroke-width="1" stroke-dasharray="5,5"/>
  <text x="725" y="540" font-family="Arial" font-size="18" text-anchor="middle" fill="lightgray">그리드 영역 (편집 중단)</text>
  
  <!-- 위젯 선택 드롭다운 + 미리보기 (통합된 영역) -->
  <rect x="220" y="180" width="600" height="300" fill="white" stroke="black" stroke-width="2"/>
  
  <!-- 좌측: 위젯 목록 -->
  <rect x="220" y="180" width="300" height="300" fill="white" stroke="none"/>
  
  <!-- 드롭다운 헤더 -->
  <text x="230" y="200" font-family="Arial" font-size="14">위젯 유형 선택</text>
  <line x1="220" y1="205" x2="520" y2="205" stroke="black" stroke-width="1"/>
  
  <!-- 차트 위젯 섹션 -->
  <text x="230" y="225" font-family="Arial" font-size="12" font-weight="bold">📈 차트 위젯</text>
  <line x1="230" y1="235" x2="510" y2="235" stroke="black" stroke-width="1"/>
  
  <!-- 시계열 차트 (선택됨) -->
  <rect x="230" y="240" width="275" height="25" fill="white" stroke="black" stroke-width="2"/>
  <rect x="235" y="245" width="15" height="15" fill="white" stroke="black" stroke-width="1"/>
  <polyline points="237,255 240,252 243,254 246,250 248,248" fill="none" stroke="black" stroke-width="1"/>
  <text x="255" y="256" font-family="Arial" font-size="12">시계열 차트</text>
  
  <!-- 막대 차트 -->
  <rect x="230" y="265" width="275" height="25" fill="white" stroke="black" stroke-width="1"/>
  <rect x="235" y="270" width="15" height="15" fill="white" stroke="black" stroke-width="1"/>
  <rect x="237" y="280" width="2" height="5" fill="black"/>
  <rect x="240" y="277" width="2" height="8" fill="black"/>
  <rect x="243" y="279" width="2" height="6" fill="black"/>
  <rect x="246" y="275" width="2" height="10" fill="black"/>
  <text x="255" y="281" font-family="Arial" font-size="12">막대 차트</text>
  
  <!-- 산점도 차트 -->
  <rect x="230" y="290" width="275" height="25" fill="white" stroke="black" stroke-width="1"/>
  <rect x="235" y="295" width="15" height="15" fill="white" stroke="black" stroke-width="1"/>
  <circle cx="238" cy="302" r="1" fill="black"/>
  <circle cx="241" cy="300" r="1" fill="black"/>
  <circle cx="244" cy="304" r="1" fill="black"/>
  <circle cx="247" cy="299" r="1" fill="black"/>
  <text x="255" y="306" font-family="Arial" font-size="12">산점도 차트</text>
  
  <!-- 레이더 차트 -->
  <rect x="230" y="315" width="275" height="25" fill="white" stroke="black" stroke-width="1"/>
  <rect x="235" y="320" width="15" height="15" fill="white" stroke="black" stroke-width="1"/>
  <polygon points="242,323 246,326 242,332 238,326" fill="none" stroke="black" stroke-width="1"/>
  <text x="255" y="331" font-family="Arial" font-size="12">레이더 차트</text>
  
  <!-- 파이 차트 -->
  <rect x="230" y="340" width="275" height="25" fill="white" stroke="black" stroke-width="1"/>
  <rect x="235" y="345" width="15" height="15" fill="white" stroke="black" stroke-width="1"/>
  <circle cx="242" cy="352" r="6" fill="none" stroke="black" stroke-width="1"/>
  <path d="M 242 346 A 6 6 0 0 1 248 352 L 242 352 Z" fill="black"/>
  <text x="255" y="356" font-family="Arial" font-size="12">파이 차트</text>
  
  <!-- 기타 위젯 섹션 -->
  <line x1="230" y1="375" x2="510" y2="375" stroke="black" stroke-width="1"/>
  <text x="230" y="395" font-family="Arial" font-size="12" font-weight="bold">📝 기타 위젯</text>
  <line x1="230" y1="405" x2="510" y2="405" stroke="black" stroke-width="1"/>
  
  <!-- 텍스트 위젯 -->
  <rect x="230" y="415" width="275" height="25" fill="white" stroke="black" stroke-width="1"/>
  <rect x="235" y="420" width="15" height="15" fill="white" stroke="black" stroke-width="1"/>
  <line x1="237" y1="424" x2="247" y2="424" stroke="black" stroke-width="1"/>
  <line x1="237" y1="427" x2="245" y2="427" stroke="black" stroke-width="1"/>
  <line x1="237" y1="430" x2="242" y2="430" stroke="black" stroke-width="1"/>
  <text x="255" y="431" font-family="Arial" font-size="12">텍스트/표 위젯</text>
  
  <!-- 구분선 (좌측/우측 영역 분리) -->
  <line x1="520" y1="180" x2="520" y2="480" stroke="black" stroke-width="1"/>
  
  <!-- 우측: 미리보기 -->
  <rect x="520" y="180" width="300" height="300" fill="white" stroke="none"/>
  
  <!-- 미리보기 헤더 -->
  <text x="530" y="200" font-family="Arial" font-size="14">시계열 차트 미리보기</text>
  <line x1="520" y1="205" x2="820" y2="205" stroke="black" stroke-width="1"/>
  
  <!-- 미리보기 콘텐츠 -->
  <rect x="535" y="225" width="265" height="180" fill="white" stroke="black" stroke-width="1" stroke-dasharray="2,2"/>
  
  <!-- 샘플 차트 -->
  <text x="545" y="245" font-family="Arial" font-size="12">GDP 성장률 추이</text>
  <line x1="545" y1="250" x2="790" y2="250" stroke="black" stroke-width="1"/>
  
  <polyline points="550,370 570,360 590,365 610,355 630,350 650,345 670,350 690,340 710,345 730,335 750,330 770,335 785,325" fill="none" stroke="black" stroke-width="2"/>
  <line x1="550" y1="385" x2="785" y2="385" stroke="black" stroke-width="1"/>
  <line x1="550" y1="270" x2="550" y2="385" stroke="black" stroke-width="1"/>
  
  <!-- 축 레이블 -->
  <text x="555" y="400" font-family="Arial" font-size="10">2023</text>
  <text x="665" y="400" font-family="Arial" font-size="10">2024</text>
  <text x="775" y="400" font-family="Arial" font-size="10">2025</text>
  
  <!-- 미리보기 하단 버튼 -->
  <line x1="520" y1="450" x2="820" y2="450" stroke="black" stroke-width="1"/>
  <rect x="680" y="457" width="120" height="16" fill="white" stroke="black" stroke-width="1"/>
  <text x="740" y="467" font-family="Arial" font-size="11" text-anchor="middle">이 위젯 추가</text>
  
  <!-- ESC 키 안내 (드롭다운 우측 상단에 정확히 배치) -->
  <text x="810" y="195" font-family="Arial" font-size="10" text-anchor="end" fill="gray">ESC로 닫기</text>
  
  <!-- 우측 속성 패널 영역 -->
  <rect x="1250" y="60" width="190" height="840" fill="white" stroke="black" stroke-width="1"/>
  
  <!-- 속성 패널 헤더 (비활성화) -->
  <rect x="1250" y="60" width="190" height="40" fill="white" stroke="black" stroke-width="1" opacity="0.5"/>
  <text x="1270" y="85" font-family="Arial" font-size="16" fill="gray">위젯 속성</text>
  
  <!-- 비활성화 안내 -->
  <text x="1345" y="450" font-family="Arial" font-size="14" text-anchor="middle" fill="lightgray">위젯 추가 모드</text>
  <text x="1345" y="470" font-family="Arial" font-size="12" text-anchor="middle" fill="lightgray">위젯을 선택하면</text>
  <text x="1345" y="485" font-family="Arial" font-size="12" text-anchor="middle" fill="lightgray">속성을 편집할 수 있습니다</text>
  
  <!-- 통합 패널 그림자 -->
  <rect x="222" y="182" width="600" height="300" fill="black" fill-opacity="0.1"/>
</svg>