<svg width="1024" height="800" xmlns="http://www.w3.org/2000/svg">
  <!-- 헤더 -->
  <rect x="0" y="0" width="1024" height="60" fill="white" stroke="black" stroke-width="1"/>
  
  <!-- 햄버거 메뉴 아이콘 (좌측 사이드바 토글) -->
  <rect x="15" y="15" width="35" height="30" fill="white" stroke="black" stroke-width="1"/>
  <line x1="20" y1="22" x2="45" y2="22" stroke="black" stroke-width="2"/>
  <line x1="20" y1="30" x2="45" y2="30" stroke="black" stroke-width="2"/>
  <line x1="20" y1="38" x2="45" y2="38" stroke="black" stroke-width="2"/>
  
  <text x="70" y="35" font-family="Arial" font-size="18">E-Torch</text>
  <line x1="150" y1="15" x2="150" y2="45" stroke="black" stroke-width="1"/>
  
  <!-- 브레드크럼 영역 -->
  <text x="170" y="35" font-family="Arial" font-size="12">대시보드 > 경제 동향 대시보드</text>
  
  <!-- 사용자 프로필 영역 (우측) -->
  <rect x="900" y="15" width="100" height="30" fill="white" stroke="black" stroke-width="1"/>
  <circle cx="915" cy="30" r="8" fill="white" stroke="black" stroke-width="1"/>
  <text x="935" y="35" font-family="Arial" font-size="11">사용자명</text>
  
  <!-- 대시보드 헤더 영역 -->
  <rect x="0" y="60" width="1024" height="80" fill="white" stroke="black" stroke-width="1"/>
  <text x="20" y="85" font-family="Arial" font-size="20">경제 동향 대시보드</text>
  <text x="20" y="105" font-family="Arial" font-size="12" fill="gray">주요 경제지표의 최근 동향을 파악할 수 있는 종합 대시보드</text>
  <text x="20" y="125" font-family="Arial" font-size="10" fill="lightgray">최종 업데이트: 2025-05-21 15:30 | 작성자: 경제전문가 | 조회수: 1,254</text>
  
  <!-- 컨트롤 영역 -->
  <rect x="0" y="140" width="1024" height="60" fill="white" stroke="black" stroke-width="1"/>
  
  <!-- 기간 설정 -->
  <text x="20" y="175" font-family="Arial" font-size="12">조회 기간:</text>
  <rect x="90" y="155" width="120" height="30" fill="white" stroke="black" stroke-width="1"/>
  <text x="150" y="175" font-family="Arial" font-size="11" text-anchor="middle">최근 1년 ▼</text>
  
  <line x1="230" y1="155" x2="230" y2="185" stroke="black" stroke-width="1"/>
  
  <!-- 새로고침 -->
  <rect x="250" y="155" width="80" height="30" fill="white" stroke="black" stroke-width="1"/>
  <text x="290" y="175" font-family="Arial" font-size="11" text-anchor="middle">새로고침</text>
  
  <!-- 자동 새로고침 상태 -->
  <rect x="350" y="155" width="120" height="30" fill="white" stroke="black" stroke-width="1"/>
  <circle cx="365" cy="170" r="3" fill="green" stroke="none"/>
  <text x="375" y="175" font-family="Arial" font-size="10">자동새로고침</text>
  
  <line x1="490" y1="155" x2="490" y2="185" stroke="black" stroke-width="1"/>
  
  <!-- 공유/내보내기/편집 버튼들 (우측 정렬) -->
  <rect x="720" y="155" width="60" height="30" fill="white" stroke="black" stroke-width="1"/>
  <text x="750" y="175" font-family="Arial" font-size="11" text-anchor="middle">공유</text>
  
  <rect x="790" y="155" width="80" height="30" fill="white" stroke="black" stroke-width="1"/>
  <text x="830" y="175" font-family="Arial" font-size="11" text-anchor="middle">내보내기</text>
  
  <rect x="880" y="155" width="60" height="30" fill="white" stroke="black" stroke-width="1"/>
  <text x="910" y="175" font-family="Arial" font-size="11" text-anchor="middle">편집</text>
  
  <!-- 상태 표시 -->
  <circle cx="960" cy="170" r="3" fill="green" stroke="none"/>
  <text x="970" y="175" font-family="Arial" font-size="9">최신</text>
  
  <!-- 메인 콘텐츠 영역 (2열 그리드) -->
  <rect x="0" y="200" width="1024" height="600" fill="white" stroke="black" stroke-width="1"/>
  
  <!-- 좌측/우측 열 구분선 -->
  <line x1="512" y1="200" x2="512" y2="800" stroke="lightgray" stroke-width="1" stroke-dasharray="2,2"/>
  
  <!-- 상/하단 구분선 -->
  <line x1="0" y1="500" x2="1024" y2="500" stroke="lightgray" stroke-width="1" stroke-dasharray="2,2"/>
  
  <!-- 위젯 1: GDP 성장률 차트 (좌측 상단) -->
  <rect x="20" y="220" width="472" height="260" fill="white" stroke="black" stroke-width="2"/>
  <rect x="20" y="220" width="472" height="30" fill="white" stroke="lightgray" stroke-width="1"/>
  <text x="30" y="240" font-family="Arial" font-size="14">GDP 성장률 추이</text>
  
  <!-- 위젯 액션 버튼들 -->
  <circle cx="468" cy="235" r="8" fill="white" stroke="black" stroke-width="1"/>
  <text x="465" y="239" font-family="Arial" font-size="10">↗</text>
  
  <circle cx="453" cy="235" r="8" fill="white" stroke="black" stroke-width="1"/>
  <text x="450" y="239" font-family="Arial" font-size="10">⤢</text>
  
  <!-- 차트 영역 -->
  <rect x="30" y="260" width="452" height="210" fill="white" stroke="lightgray" stroke-width="1" stroke-dasharray="2,2"/>
  <polyline points="40,440 80,430 120,435 160,425 200,420 240,415 280,420 320,400 360,405 400,395 440,390 472,395" fill="none" stroke="black" stroke-width="2"/>
  <line x1="40" y1="460" x2="472" y2="460" stroke="black" stroke-width="1"/>
  <line x1="40" y1="270" x2="40" y2="460" stroke="black" stroke-width="1"/>
  
  <!-- 축 레이블 -->
  <text x="60" y="475" font-family="Arial" font-size="10">2023</text>
  <text x="250" y="475" font-family="Arial" font-size="10">2024</text>
  <text x="450" y="475" font-family="Arial" font-size="10">2025</text>
  <text x="25" y="275" font-family="Arial" font-size="10">4%</text>
  <text x="25" y="365" font-family="Arial" font-size="10">2%</text>
  <text x="25" y="455" font-family="Arial" font-size="10">0%</text>
  
  <!-- 위젯 2: 소비자물가 차트 (우측 상단) -->
  <rect x="532" y="220" width="472" height="260" fill="white" stroke="black" stroke-width="2"/>
  <rect x="532" y="220" width="472" height="30" fill="white" stroke="lightgray" stroke-width="1"/>
  <text x="542" y="240" font-family="Arial" font-size="14">소비자물가 등락률</text>
  
  <!-- 위젯 액션 버튼들 -->
  <circle cx="980" cy="235" r="8" fill="white" stroke="black" stroke-width="1"/>
  <text x="977" y="239" font-family="Arial" font-size="10">↗</text>
  
  <circle cx="965" cy="235" r="8" fill="white" stroke="black" stroke-width="1"/>
  <text x="962" y="239" font-family="Arial" font-size="10">⤢</text>
  
  <!-- 차트 영역 -->
  <rect x="542" y="260" width="452" height="210" fill="white" stroke="lightgray" stroke-width="1" stroke-dasharray="2,2"/>
  <polyline points="552,410 592,420 632,415 672,425 712,405 752,400 792,395 832,405 872,410 912,400 952,395 984,400" fill="none" stroke="black" stroke-width="2"/>
  <line x1="552" y1="460" x2="984" y2="460" stroke="black" stroke-width="1"/>
  <line x1="552" y1="270" x2="552" y2="460" stroke="black" stroke-width="1"/>
  
  <!-- 축 레이블 -->
  <text x="572" y="475" font-family="Arial" font-size="10">2023</text>
  <text x="762" y="475" font-family="Arial" font-size="10">2024</text>
  <text x="962" y="475" font-family="Arial" font-size="10">2025</text>
  <text x="537" y="275" font-family="Arial" font-size="10">5%</text>
  <text x="537" y="365" font-family="Arial" font-size="10">3%</text>
  <text x="537" y="455" font-family="Arial" font-size="10">1%</text>
  
  <!-- 위젯 3: 기준금리 차트 (좌측 하단) -->
  <rect x="20" y="520" width="472" height="260" fill="white" stroke="black" stroke-width="2"/>
  <rect x="20" y="520" width="472" height="30" fill="white" stroke="lightgray" stroke-width="1"/>
  <text x="30" y="540" font-family="Arial" font-size="14">기준금리 추이</text>
  
  <!-- 위젯 액션 버튼들 -->
  <circle cx="468" cy="535" r="8" fill="white" stroke="black" stroke-width="1"/>
  <text x="465" y="539" font-family="Arial" font-size="10">↗</text>
  
  <circle cx="453" cy="535" r="8" fill="white" stroke="black" stroke-width="1"/>
  <text x="450" y="539" font-family="Arial" font-size="10">⤢</text>
  
  <!-- 차트 영역 -->
  <rect x="30" y="560" width="452" height="210" fill="white" stroke="lightgray" stroke-width="1" stroke-dasharray="2,2"/>
  <polyline points="40,740 80,740 120,740 160,740 200,730 240,730 280,730 320,730 360,720 400,720 440,720 472,720" fill="none" stroke="black" stroke-width="3"/>
  <line x1="40" y1="760" x2="472" y2="760" stroke="black" stroke-width="1"/>
  <line x1="40" y1="570" x2="40" y2="760" stroke="black" stroke-width="1"/>
  
  <!-- 축 레이블 -->
  <text x="60" y="775" font-family="Arial" font-size="10">2023</text>
  <text x="250" y="775" font-family="Arial" font-size="10">2024</text>
  <text x="450" y="775" font-family="Arial" font-size="10">2025</text>
  <text x="25" y="575" font-family="Arial" font-size="10">4.0%</text>
  <text x="25" y="665" font-family="Arial" font-size="10">3.5%</text>
  <text x="25" y="755" font-family="Arial" font-size="10">3.0%</text>
  
  <!-- 위젯 4: 주요 경제지표 테이블 (우측 하단) -->
  <rect x="532" y="520" width="472" height="260" fill="white" stroke="black" stroke-width="2"/>
  <rect x="532" y="520" width="472" height="30" fill="white" stroke="lightgray" stroke-width="1"/>
  <text x="542" y="540" font-family="Arial" font-size="14">주요 경제지표 현황</text>
  
  <!-- 위젯 액션 버튼들 -->
  <circle cx="980" cy="535" r="8" fill="white" stroke="black" stroke-width="1"/>
  <text x="977" y="539" font-family="Arial" font-size="10">↗</text>
  
  <circle cx="965" cy="535" r="8" fill="white" stroke="black" stroke-width="1"/>
  <text x="962" y="539" font-family="Arial" font-size="10">⤢</text>
  
  <!-- 테이블 영역 -->
  <rect x="542" y="560" width="452" height="210" fill="white" stroke="lightgray" stroke-width="1"/>
  
  <!-- 테이블 헤더 -->
  <line x1="542" y1="590" x2="994" y2="590" stroke="black" stroke-width="1"/>
  <line x1="690" y1="560" x2="690" y2="770" stroke="lightgray" stroke-width="1"/>
  <line x1="838" y1="560" x2="838" y2="770" stroke="lightgray" stroke-width="1"/>
  
  <text x="616" y="580" font-family="Arial" font-size="12" text-anchor="middle" font-weight="bold">지표명</text>
  <text x="764" y="580" font-family="Arial" font-size="12" text-anchor="middle" font-weight="bold">현재값</text>
  <text x="916" y="580" font-family="Arial" font-size="12" text-anchor="middle" font-weight="bold">전년대비</text>
  
  <!-- 테이블 데이터 -->
  <line x1="542" y1="620" x2="994" y2="620" stroke="lightgray" stroke-width="1"/>
  <line x1="542" y1="650" x2="994" y2="650" stroke="lightgray" stroke-width="1"/>
  <line x1="542" y1="680" x2="994" y2="680" stroke="lightgray" stroke-width="1"/>
  <line x1="542" y1="710" x2="994" y2="710" stroke="lightgray" stroke-width="1"/>
  <line x1="542" y1="740" x2="994" y2="740" stroke="lightgray" stroke-width="1"/>
  
  <text x="616" y="610" font-family="Arial" font-size="11" text-anchor="middle">GDP 성장률</text>
  <text x="764" y="610" font-family="Arial" font-size="11" text-anchor="middle">2.6%</text>
  <text x="916" y="610" font-family="Arial" font-size="11" text-anchor="middle">+0.3%</text>
  
  <text x="616" y="640" font-family="Arial" font-size="11" text-anchor="middle">소비자물가</text>
  <text x="764" y="640" font-family="Arial" font-size="11" text-anchor="middle">3.2%</text>
  <text x="916" y="640" font-family="Arial" font-size="11" text-anchor="middle">-0.5%</text>
  
  <text x="616" y="670" font-family="Arial" font-size="11" text-anchor="middle">기준금리</text>
  <text x="764" y="670" font-family="Arial" font-size="11" text-anchor="middle">3.5%</text>
  <text x="916" y="670" font-family="Arial" font-size="11" text-anchor="middle">+0.25%</text>
  
  <text x="616" y="700" font-family="Arial" font-size="11" text-anchor="middle">환율(USD)</text>
  <text x="764" y="700" font-family="Arial" font-size="11" text-anchor="middle">1,320원</text>
  <text x="916" y="700" font-family="Arial" font-size="11" text-anchor="middle">+45원</text>
  
  <text x="616" y="730" font-family="Arial" font-size="11" text-anchor="middle">실업률</text>
  <text x="764" y="730" font-family="Arial" font-size="11" text-anchor="middle">2.8%</text>
  <text x="916" y="730" font-family="Arial" font-size="11" text-anchor="middle">-0.2%</text>
  
  <text x="616" y="760" font-family="Arial" font-size="11" text-anchor="middle">코스피</text>
  <text x="764" y="760" font-family="Arial" font-size="11" text-anchor="middle">2,485</text>
  <text x="916" y="760" font-family="Arial" font-size="11" text-anchor="middle">+124</text>
  
  <!-- 접힌 사이드바 표시 (좌측 보조선) -->
  <line x1="5" y1="60" x2="5" y2="800" stroke="gray" stroke-width="2" stroke-dasharray="5,5"/>
  <text x="12" y="400" font-family="Arial" font-size="10" fill="gray" transform="rotate(-90 12 400)">사이드바 (접힘)</text>
</svg>