<svg width="1024" height="800" xmlns="http://www.w3.org/2000/svg">
  <!-- 헤더 -->
  <rect x="0" y="0" width="1024" height="60" fill="white" stroke="black" stroke-width="1"/>
  
  <!-- 햄버거 메뉴 아이콘 (좌측 사이드바 토글) -->
  <rect x="15" y="15" width="35" height="30" fill="white" stroke="black" stroke-width="1"/>
  <line x1="20" y1="22" x2="45" y2="22" stroke="black" stroke-width="2"/>
  <line x1="20" y1="30" x2="45" y2="30" stroke="black" stroke-width="2"/>
  <line x1="20" y1="38" x2="45" y2="38" stroke="black" stroke-width="2"/>
  
  <text x="70" y="35" font-family="Arial" font-size="18">E-Torch</text>
  <line x1="150" y1="15" x2="150" y2="45" stroke="black" stroke-width="1"/>
  
  <!-- 브레드크럼 영역 -->
  <text x="170" y="35" font-family="Arial" font-size="12">대시보드 > 편집 > 경제 동향 대시보드</text>
  
  <!-- 사용자 프로필 영역 (우측) -->
  <rect x="900" y="15" width="100" height="30" fill="white" stroke="black" stroke-width="1"/>
  <circle cx="915" cy="30" r="8" fill="white" stroke="black" stroke-width="1"/>
  <text x="935" y="35" font-family="Arial" font-size="11">사용자명</text>
  
  <!-- 대시보드 헤더 영역 -->
  <rect x="0" y="60" width="1024" height="70" fill="white" stroke="black" stroke-width="1"/>
  <text x="20" y="85" font-family="Arial" font-size="16">경제 동향 대시보드</text>
  <text x="20" y="105" font-family="Arial" font-size="11" fill="gray">편집 모드 | 최근 1년 데이터 | 최종 수정: 2025-05-21 15:30</text>
  <text x="20" y="120" font-family="Arial" font-size="10" fill="lightgray">주요 경제지표의 최근 동향을 파악할 수 있는 대시보드</text>
  
  <!-- 컨트롤 영역 (터치 최적화) -->
  <rect x="0" y="130" width="1024" height="50" fill="white" stroke="black" stroke-width="1"/>
  
  <!-- 그룹 1: 위젯 추가 -->
  <rect x="20" y="140" width="100" height="30" fill="white" stroke="black" stroke-width="1"/>
  <text x="70" y="160" font-family="Arial" font-size="11" text-anchor="middle">+ 위젯 추가</text>
  
  <line x1="140" y1="142" x2="140" y2="168" stroke="lightgray" stroke-width="1"/>
  
  <!-- 그룹 2: 기간 설정 -->
  <text x="155" y="160" font-family="Arial" font-size="11">기간:</text>
  <rect x="185" y="140" width="100" height="30" fill="white" stroke="black" stroke-width="1"/>
  <text x="235" y="160" font-family="Arial" font-size="10" text-anchor="middle">최근 1년 ▼</text>
  
  <line x1="305" y1="142" x2="305" y2="168" stroke="lightgray" stroke-width="1"/>
  
  <!-- 그룹 3: 편집 도구 -->
  <rect x="320" y="140" width="25" height="30" fill="white" stroke="black" stroke-width="1"/>
  <text x="332" y="160" font-family="Arial" font-size="11" text-anchor="middle">↶</text>
  
  <rect x="350" y="140" width="25" height="30" fill="white" stroke="black" stroke-width="1"/>
  <text x="362" y="160" font-family="Arial" font-size="11" text-anchor="middle">↷</text>
  
  <line x1="395" y1="142" x2="395" y2="168" stroke="lightgray" stroke-width="1"/>
  
  <!-- 그룹 4: 상태 표시 -->
  <rect x="410" y="140" width="120" height="30" fill="white" stroke="lightgray" stroke-width="1"/>
  <circle cx="420" cy="155" r="3" fill="green" stroke="none"/>
  <text x="430" y="160" font-family="Arial" font-size="10">자동 저장됨 (방금 전)</text>
  
  <line x1="550" y1="142" x2="550" y2="168" stroke="lightgray" stroke-width="1"/>
  
  <!-- 그룹 5: 대시보드 설정 -->
  <rect x="565" y="140" width="90" height="30" fill="white" stroke="black" stroke-width="1"/>
  <text x="610" y="160" font-family="Arial" font-size="11" text-anchor="middle">대시보드 설정</text>
  
  <!-- 그룹 6: 액션 버튼 (우측 정렬) -->
  <rect x="870" y="140" width="60" height="30" fill="white" stroke="black" stroke-width="1"/>
  <text x="900" y="160" font-family="Arial" font-size="11" text-anchor="middle">취소</text>
  
  <rect x="940" y="140" width="60" height="30" fill="white" stroke="black" stroke-width="1"/>
  <text x="970" y="160" font-family="Arial" font-size="11" text-anchor="middle">저장</text>
  
  <!-- 메인 콘텐츠 영역 (2열 그리드) -->
  <rect x="0" y="180" width="1024" height="620" fill="white" stroke="black" stroke-width="1" stroke-dasharray="5,5"/>
  
  <!-- 좌측 열과 우측 열 구분선 -->
  <line x1="512" y1="180" x2="512" y2="800" stroke="lightgray" stroke-width="1" stroke-dasharray="2,2"/>
  
  <!-- 그리드 가이드라인 (수평선들) -->
  <line x1="0" y1="380" x2="1024" y2="380" stroke="lightgray" stroke-width="1" stroke-dasharray="2,2"/>
  <line x1="0" y1="580" x2="1024" y2="580" stroke="lightgray" stroke-width="1" stroke-dasharray="2,2"/>
  
  <!-- 위젯 1: GDP 성장률 차트 (좌측 상단) -->
  <rect x="20" y="200" width="472" height="160" fill="white" stroke="black" stroke-width="2"/>
  <rect x="20" y="200" width="472" height="25" fill="white" stroke="lightgray" stroke-width="1"/>
  <text x="30" y="217" font-family="Arial" font-size="12">GDP 성장률 추이</text>
  
  <!-- 위젯 컨트롤 아이콘들 -->
  <circle cx="468" cy="212" r="6" fill="white" stroke="black" stroke-width="1"/>
  <text x="465" y="216" font-family="Arial" font-size="8">⚙</text>
  
  <circle cx="456" cy="212" r="6" fill="white" stroke="black" stroke-width="1"/>
  <text x="453" y="216" font-family="Arial" font-size="8">↗</text>
  
  <circle cx="444" cy="212" r="6" fill="white" stroke="black" stroke-width="1"/>
  <text x="441" y="216" font-family="Arial" font-size="8">✕</text>
  
  <!-- 차트 영역 -->
  <rect x="30" y="235" width="452" height="115" fill="white" stroke="lightgray" stroke-width="1" stroke-dasharray="2,2"/>
  <polyline points="40,320 80,310 120,315 160,305 200,300 240,295 280,300 320,280 360,285 400,275 440,270 472,275" fill="none" stroke="black" stroke-width="2"/>
  <line x1="40" y1="340" x2="472" y2="340" stroke="black" stroke-width="1"/>
  <line x1="40" y1="245" x2="40" y2="340" stroke="black" stroke-width="1"/>
  
  <!-- 리사이즈 핸들 -->
  <rect x="485" y="353" width="7" height="7" fill="white" stroke="black" stroke-width="1"/>
  
  <!-- 위젯 2: 소비자물가 차트 (우측 상단) -->
  <rect x="532" y="200" width="472" height="160" fill="white" stroke="black" stroke-width="2"/>
  <rect x="532" y="200" width="472" height="25" fill="white" stroke="lightgray" stroke-width="1"/>
  <text x="542" y="217" font-family="Arial" font-size="12">소비자물가 등락률</text>
  
  <!-- 위젯 컨트롤 아이콘들 -->
  <circle cx="980" cy="212" r="6" fill="white" stroke="black" stroke-width="1"/>
  <text x="977" y="216" font-family="Arial" font-size="8">⚙</text>
  
  <circle cx="968" cy="212" r="6" fill="white" stroke="black" stroke-width="1"/>
  <text x="965" y="216" font-family="Arial" font-size="8">↗</text>
  
  <circle cx="956" cy="212" r="6" fill="white" stroke="black" stroke-width="1"/>
  <text x="953" y="216" font-family="Arial" font-size="8">✕</text>
  
  <!-- 차트 영역 -->
  <rect x="542" y="235" width="452" height="115" fill="white" stroke="lightgray" stroke-width="1" stroke-dasharray="2,2"/>
  <polyline points="552,300 592,310 632,315 672,325 712,305 752,300 792,295 832,305 872,315 912,295 952,290 984,295" fill="none" stroke="black" stroke-width="2"/>
  <line x1="552" y1="340" x2="984" y2="340" stroke="black" stroke-width="1"/>
  <line x1="552" y1="245" x2="552" y2="340" stroke="black" stroke-width="1"/>
  
  <!-- 리사이즈 핸들 -->
  <rect x="997" y="353" width="7" height="7" fill="white" stroke="black" stroke-width="1"/>
  
  <!-- 위젯 3: 기준금리 차트 (좌측 중단) -->
  <rect x="20" y="400" width="472" height="160" fill="white" stroke="black" stroke-width="2"/>
  <rect x="20" y="400" width="472" height="25" fill="white" stroke="lightgray" stroke-width="1"/>
  <text x="30" y="417" font-family="Arial" font-size="12">기준금리 추이</text>
  
  <!-- 위젯 컨트롤 아이콘들 -->
  <circle cx="468" cy="412" r="6" fill="white" stroke="black" stroke-width="1"/>
  <text x="465" y="416" font-family="Arial" font-size="8">⚙</text>
  
  <circle cx="456" cy="412" r="6" fill="white" stroke="black" stroke-width="1"/>
  <text x="453" y="416" font-family="Arial" font-size="8">↗</text>
  
  <circle cx="444" cy="412" r="6" fill="white" stroke="black" stroke-width="1"/>
  <text x="441" y="416" font-family="Arial" font-size="8">✕</text>
  
  <!-- 차트 영역 -->
  <rect x="30" y="435" width="452" height="115" fill="white" stroke="lightgray" stroke-width="1" stroke-dasharray="2,2"/>
  <polyline points="40,520 80,520 120,520 160,520 200,510 240,510 280,510 320,510 360,500 400,500 440,500 472,500" fill="none" stroke="black" stroke-width="3"/>
  <line x1="40" y1="540" x2="472" y2="540" stroke="black" stroke-width="1"/>
  <line x1="40" y1="445" x2="40" y2="540" stroke="black" stroke-width="1"/>
  
  <!-- 리사이즈 핸들 -->
  <rect x="485" y="553" width="7" height="7" fill="white" stroke="black" stroke-width="1"/>
  
  <!-- 위젯 4: 주요 경제지표 요약 텍스트 (우측 중단) -->
  <rect x="532" y="400" width="472" height="160" fill="white" stroke="black" stroke-width="2"/>
  <rect x="532" y="400" width="472" height="25" fill="white" stroke="lightgray" stroke-width="1"/>
  <text x="542" y="417" font-family="Arial" font-size="12">주요 경제지표 요약</text>
  
  <!-- 위젯 컨트롤 아이콘들 -->
  <circle cx="980" cy="412" r="6" fill="white" stroke="black" stroke-width="1"/>
  <text x="977" y="416" font-family="Arial" font-size="8">⚙</text>
  
  <circle cx="968" cy="412" r="6" fill="white" stroke="black" stroke-width="1"/>
  <text x="965" y="416" font-family="Arial" font-size="8">↗</text>
  
  <circle cx="956" cy="412" r="6" fill="white" stroke="black" stroke-width="1"/>
  <text x="953" y="416" font-family="Arial" font-size="8">✕</text>
  
  <!-- 테이블 영역 -->
  <rect x="542" y="435" width="452" height="115" fill="white" stroke="lightgray" stroke-width="1"/>
  
  <!-- 테이블 헤더 -->
  <line x1="542" y1="455" x2="994" y2="455" stroke="black" stroke-width="1"/>
  <line x1="768" y1="435" x2="768" y2="550" stroke="lightgray" stroke-width="1"/>
  
  <text x="552" y="450" font-family="Arial" font-size="11">지표명</text>
  <text x="778" y="450" font-family="Arial" font-size="11">현재값</text>
  
  <!-- 테이블 데이터 -->
  <line x1="542" y1="470" x2="994" y2="470" stroke="lightgray" stroke-width="1"/>
  <line x1="542" y1="490" x2="994" y2="490" stroke="lightgray" stroke-width="1"/>
  <line x1="542" y1="510" x2="994" y2="510" stroke="lightgray" stroke-width="1"/>
  <line x1="542" y1="530" x2="994" y2="530" stroke="lightgray" stroke-width="1"/>
  
  <text x="552" y="465" font-family="Arial" font-size="11">GDP 성장률</text>
  <text x="778" y="465" font-family="Arial" font-size="11">2.6%</text>
  
  <text x="552" y="485" font-family="Arial" font-size="11">소비자물가</text>
  <text x="778" y="485" font-family="Arial" font-size="11">3.2%</text>
  
  <text x="552" y="505" font-family="Arial" font-size="11">기준금리</text>
  <text x="778" y="505" font-family="Arial" font-size="11">3.5%</text>
  
  <text x="552" y="525" font-family="Arial" font-size="11">환율(USD)</text>
  <text x="778" y="525" font-family="Arial" font-size="11">1,320원</text>
  
  <!-- 리사이즈 핸들 -->
  <rect x="997" y="553" width="7" height="7" fill="white" stroke="black" stroke-width="1"/>
  
  <!-- 새 위젯 추가 영역 표시 (하단) -->
  <rect x="20" y="600" width="984" height="180" fill="white" stroke="lightgray" stroke-width="2" stroke-dasharray="5,5"/>
  <text x="512" y="685" font-family="Arial" font-size="14" text-anchor="middle" fill="gray">+ 새 위젯 추가 영역</text>
  <text x="512" y="705" font-family="Arial" font-size="11" text-anchor="middle" fill="lightgray">위젯을 드래그하거나 '+' 버튼을 클릭하여 추가하세요</text>
  
  <!-- 터치 제스처 힌트 -->
  <text x="512" y="725" font-family="Arial" font-size="10" text-anchor="middle" fill="lightgray">터치하여 위젯 선택, 길게 눌러 드래그 이동</text>
</svg>