<svg width="768" height="1024" xmlns="http://www.w3.org/2000/svg">
  <!-- 헤더 -->
  <rect x="0" y="0" width="768" height="60" fill="white" stroke="black" stroke-width="1"/>
  <text x="20" y="35" font-family="Arial" font-size="20">E-Torch</text>
  <line x1="120" y1="15" x2="120" y2="45" stroke="black" stroke-width="1"/>
  <text x="140" y="35" font-family="Arial" font-size="16">프로필 > 구독 관리</text>
  
  <!-- 햄버거 메뉴 아이콘 (모바일 메뉴) -->
  <rect x="718" y="20" width="30" height="20" fill="white" stroke="black" stroke-width="1"/>
  <line x1="723" y1="25" x2="743" y2="25" stroke="black" stroke-width="1"/>
  <line x1="723" y1="30" x2="743" y2="30" stroke="black" stroke-width="1"/>
  <line x1="723" y1="35" x2="743" y2="35" stroke="black" stroke-width="1"/>
  
  <!-- 설정 메뉴 탭 -->
  <rect x="0" y="60" width="768" height="50" fill="white" stroke="black" stroke-width="1"/>
  <text x="20" y="90" font-family="Arial" font-size="16">프로필 설정</text>
  <text x="170" y="90" font-family="Arial" font-size="16">구독 관리</text>
  <text x="320" y="90" font-family="Arial" font-size="16">알림 설정</text>
  <text x="470" y="90" font-family="Arial" font-size="16">결제 내역</text>
  <text x="620" y="90" font-family="Arial" font-size="16">결제 수단</text>
  <rect x="150" y="70" width="120" height="30" fill="white" stroke="lightgray" stroke-width="1" fill-opacity="0.1"/>
  
  <!-- 구독 관리 영역 -->
  <rect x="0" y="110" width="768" height="914" fill="white" stroke="black" stroke-width="1"/>
  <text x="20" y="140" font-family="Arial" font-size="22">구독 관리</text>
  
  <!-- 현재 구독 정보 카드 -->
  <rect x="20" y="160" width="728" height="200" fill="white" stroke="black" stroke-width="1"/>
  <text x="40" y="190" font-family="Arial" font-size="18">내 구독 정보</text>
  <line x1="20" y1="210" x2="748" y2="210" stroke="black" stroke-width="1"/>
  
  <text x="40" y="240" font-family="Arial" font-size="16">구독 플랜: 프리미엄 (월간)</text>
  <text x="40" y="270" font-family="Arial" font-size="16">상태: 활성화</text>
  <text x="40" y="300" font-family="Arial" font-size="16">다음 결제일: 2025-06-18</text>
  <text x="40" y="330" font-family="Arial" font-size="16">월 이용료: ₩9,900</text>
  
  <rect x="608" y="310" width="120" height="40" fill="white" stroke="black" stroke-width="1"/>
  <text x="668" y="335" font-family="Arial" font-size="14" text-anchor="middle">구독 취소</text>
  
  <!-- 구독 플랜 카드 영역 -->
  <text x="20" y="400" font-family="Arial" font-size="18">구독 플랜 변경</text>
  <line x1="20" y1="420" x2="748" y2="420" stroke="black" stroke-width="1"/>
  
  <!-- 무료 플랜 카드 -->
  <rect x="20" y="440" width="728" height="180" fill="white" stroke="black" stroke-width="1"/>
  <text x="40" y="470" font-family="Arial" font-size="16">무료 플랜</text>
  <line x1="20" y1="490" x2="748" y2="490" stroke="black" stroke-width="1"/>
  
  <text x="80" y="520" font-family="Arial" font-size="18" text-anchor="middle">₩0/월</text>
  
  <text x="220" y="520" font-family="Arial" font-size="14">• 제한된 경제지표</text>
  <text x="390" y="520" font-family="Arial" font-size="14">• 최근 1년 데이터만 조회</text>
  <text x="220" y="550" font-family="Arial" font-size="14">• 기본 차트 옵션</text>
  <text x="390" y="550" font-family="Arial" font-size="14">• 최대 3개 대시보드</text>
  
  <!-- 무료 플랜 카드 버튼 -->
  <rect x="590" y="520" width="140" height="30" fill="white" stroke="black" stroke-width="1"/>
  <text x="660" y="540" font-family="Arial" font-size="14" text-anchor="middle">플랜 선택</text>
  
  <!-- 월간 구독 카드 -->
  <rect x="20" y="640" width="728" height="180" fill="white" stroke="black" stroke-width="1"/>
  <text x="40" y="670" font-family="Arial" font-size="16">월간 구독</text>
  <line x1="20" y1="690" x2="748" y2="690" stroke="black" stroke-width="1"/>
  
  <text x="80" y="720" font-family="Arial" font-size="18" text-anchor="middle">₩9,900/월</text>
  
  <text x="220" y="720" font-family="Arial" font-size="14">• 모든 경제지표 무제한 이용</text>
  <text x="450" y="720" font-family="Arial" font-size="14">• 실시간 데이터 업데이트</text>
  <text x="220" y="750" font-family="Arial" font-size="14">• 고급 차트 옵션</text>
  <text x="450" y="750" font-family="Arial" font-size="14">• 무제한 대시보드</text>
  
  <!-- 월간 구독 카드 버튼 -->
  <rect x="590" y="720" width="140" height="30" fill="white" stroke="black" stroke-width="1"/>
  <text x="660" y="740" font-family="Arial" font-size="14" text-anchor="middle">현재 이용 중</text>
  
  <!-- 연간 구독 카드 -->
  <rect x="20" y="840" width="728" height="180" fill="white" stroke="black" stroke-width="1"/>
  <text x="40" y="870" font-family="Arial" font-size="16">연간 구독</text>
  <line x1="20" y1="890" x2="748" y2="890" stroke="black" stroke-width="1"/>
  
  <text x="80" y="920" font-family="Arial" font-size="18" text-anchor="middle">₩94,900/년</text>
  <text x="100" y="945" font-family="Arial" font-size="12" text-anchor="middle">월 ₩7,900 (₩2,000 절약)</text>
  
  <text x="220" y="920" font-family="Arial" font-size="14">• 모든 경제지표 무제한 이용</text>
  <text x="450" y="920" font-family="Arial" font-size="14">• 실시간 데이터 업데이트</text>
  <text x="220" y="950" font-family="Arial" font-size="14">• 고급 차트 옵션</text>
  <text x="450" y="950" font-family="Arial" font-size="14">• 무제한 대시보드</text>
  
  <!-- 연간 구독 카드 버튼 -->
  <rect x="590" y="920" width="140" height="30" fill="white" stroke="black" stroke-width="1"/>
  <text x="660" y="940" font-family="Arial" font-size="14" text-anchor="middle">플랜 변경</text>
</svg>