<svg width="375" height="800" xmlns="http://www.w3.org/2000/svg">
  <!-- 헤더 -->
  <rect x="0" y="0" width="375" height="60" fill="white" stroke="black" stroke-width="1"/>
  
  <!-- 햄버거 메뉴 아이콘 (좌측) -->
  <rect x="15" y="15" width="30" height="30" fill="white" stroke="black" stroke-width="1"/>
  <line x1="20" y1="22" x2="40" y2="22" stroke="black" stroke-width="1"/>
  <line x1="20" y1="30" x2="40" y2="30" stroke="black" stroke-width="1"/>
  <line x1="20" y1="38" x2="40" y2="38" stroke="black" stroke-width="1"/>
  
  <text x="55" y="35" font-family="Arial" font-size="18">E-Torch</text>
  
  <!-- 사용자 프로필 (우측) -->
  <circle cx="335" cy="30" r="12" fill="white" stroke="black" stroke-width="1"/>
  <text x="335" y="35" font-family="Arial" font-size="8" text-anchor="middle">👤</text>
  
  <!-- 탭 영역 (내 대시보드 / 대시보드 탐색) -->
  <rect x="0" y="60" width="375" height="50" fill="white" stroke="black" stroke-width="1"/>
  
  <!-- 탭 버튼들 -->
  <rect x="0" y="60" width="187" height="50" fill="white" stroke="black" stroke-width="2"/>
  <text x="93" y="90" font-family="Arial" font-size="14" text-anchor="middle" font-weight="bold">내 대시보드</text>
  
  <rect x="187" y="60" width="188" height="50" fill="white" stroke="black" stroke-width="1"/>
  <text x="281" y="90" font-family="Arial" font-size="14" text-anchor="middle" fill="gray">대시보드 탐색</text>
  
  <!-- 페이지 헤더 영역 -->
  <rect x="0" y="110" width="375" height="60" fill="white" stroke="black" stroke-width="1"/>
  <text x="16" y="135" font-family="Arial" font-size="18">내 대시보드</text>
  <text x="16" y="150" font-family="Arial" font-size="11" fill="gray">나만의 경제지표 대시보드 관리</text>
  <text x="16" y="165" font-family="Arial" font-size="10" fill="lightgray">총 8개 대시보드</text>
  
  <!-- 새 대시보드 생성 버튼 (우측 상단) -->
  <rect x="280" y="125" width="80" height="28" fill="white" stroke="black" stroke-width="2"/>
  <text x="320" y="143" font-family="Arial" font-size="11" text-anchor="middle">+ 새 생성</text>
  
  <!-- 컨트롤 영역 -->
  <rect x="0" y="170" width="375" height="80" fill="white" stroke="black" stroke-width="1"/>
  
  <!-- 검색 바 (전체 너비) -->
  <rect x="16" y="180" width="343" height="32" fill="white" stroke="black" stroke-width="1"/>
  <text x="26" y="200" font-family="Arial" font-size="12" fill="lightgray">대시보드 검색...</text>
  <text x="335" y="200" font-family="Arial" font-size="14" text-anchor="middle">🔍</text>
  
  <!-- 정렬과 필터 (한 줄에 배치) -->
  <rect x="16" y="222" width="120" height="24" fill="white" stroke="black" stroke-width="1"/>
  <text x="76" y="237" font-family="Arial" font-size="11" text-anchor="middle">최근 수정순 ▼</text>
  
  <rect x="146" y="222" width="100" height="24" fill="white" stroke="black" stroke-width="1"/>
  <text x="196" y="237" font-family="Arial" font-size="11" text-anchor="middle">전체 필터 ▼</text>
  
  <!-- 뷰 옵션 (리스트/그리드) -->
  <rect x="256" y="222" width="24" height="24" fill="white" stroke="black" stroke-width="1"/>
  <text x="268" y="237" font-family="Arial" font-size="11" text-anchor="middle">⊞</text>
  
  <rect x="290" y="222" width="24" height="24" fill="white" stroke="black" stroke-width="1"/>
  <text x="302" y="237" font-family="Arial" font-size="11" text-anchor="middle">☰</text>
  
  <!-- 메인 콘텐츠 영역 (스크롤 가능) -->
  <rect x="0" y="250" width="375" height="530" fill="white" stroke="black" stroke-width="1"/>
  
  <!-- 대시보드 카드 1 (터치 영역 전체) -->
  <rect x="16" y="265" width="343" height="110" fill="white" stroke="black" stroke-width="1"/>
  
  <!-- 썸네일 (좌측, 더 확대) -->
  <rect x="26" y="275" width="120" height="85" fill="white" stroke="lightgray" stroke-width="1" stroke-dasharray="2,2"/>
  <text x="86" y="322" font-family="Arial" font-size="10" text-anchor="middle" fill="gray">차트 미리보기</text>
  
  <!-- 정보 영역 (우측, 더 넓게) -->
  <text x="156" y="290" font-family="Arial" font-size="16" font-weight="bold">경제 동향 대시보드</text>
  <text x="156" y="308" font-family="Arial" font-size="13" fill="gray">주요 경제지표의 최근 동향 파악</text>
  <text x="156" y="325" font-family="Arial" font-size="12" fill="lightgray">최근 수정: 2025-05-21 15:30</text>
  <text x="156" y="340" font-family="Arial" font-size="12" fill="lightgray">조회수: 1,254 | 차트 5개</text>
  
  <!-- 대시보드 상태 (공개/비공개) -->
  <rect x="156" y="345" width="45" height="18" fill="white" stroke="black" stroke-width="1"/>
  <text x="178" y="357" font-family="Arial" font-size="10" text-anchor="middle">비공개</text>
  
  <!-- 대시보드 카드 2 (터치 영역 전체) -->
  <rect x="16" y="385" width="343" height="110" fill="white" stroke="black" stroke-width="1"/>
  
  <!-- 썸네일 (좌측, 더 확대) -->
  <rect x="26" y="395" width="120" height="85" fill="white" stroke="lightgray" stroke-width="1" stroke-dasharray="2,2"/>
  <text x="86" y="442" font-family="Arial" font-size="10" text-anchor="middle" fill="gray">차트 미리보기</text>
  
  <!-- 정보 영역 (우측, 더 넓게) -->
  <text x="156" y="410" font-family="Arial" font-size="16" font-weight="bold">금융시장 분석</text>
  <text x="156" y="428" font-family="Arial" font-size="13" fill="gray">주식, 채권, 환율 통합 분석</text>
  <text x="156" y="445" font-family="Arial" font-size="12" fill="lightgray">최근 수정: 2025-05-20 09:15</text>
  <text x="156" y="460" font-family="Arial" font-size="12" fill="lightgray">조회수: 2,841 | 차트 8개</text>
  
  <!-- 대시보드 상태 (공개/비공개) -->
  <rect x="156" y="465" width="35" height="18" fill="white" stroke="black" stroke-width="1"/>
  <text x="173" y="477" font-family="Arial" font-size="10" text-anchor="middle">공개</text>
  
  <!-- 대시보드 카드 3 (터치 영역 전체) -->
  <rect x="16" y="505" width="343" height="110" fill="white" stroke="black" stroke-width="1"/>
  
  <!-- 썸네일 (좌측, 더 확대) -->
  <rect x="26" y="515" width="120" height="85" fill="white" stroke="lightgray" stroke-width="1" stroke-dasharray="2,2"/>
  <text x="86" y="562" font-family="Arial" font-size="10" text-anchor="middle" fill="gray">차트 미리보기</text>
  
  <!-- 정보 영역 (우측, 더 넓게) -->
  <text x="156" y="530" font-family="Arial" font-size="16" font-weight="bold">부동산 시장 동향</text>
  <text x="156" y="548" font-family="Arial" font-size="13" fill="gray">주택가격, 전세가율 등 부동산 지표</text>
  <text x="156" y="565" font-family="Arial" font-size="12" fill="lightgray">최근 수정: 2025-05-19 14:22</text>
  <text x="156" y="580" font-family="Arial" font-size="12" fill="lightgray">조회수: 856 | 차트 6개</text>
  
  <!-- 대시보드 상태 (공개/비공개) -->
  <rect x="156" y="585" width="45" height="18" fill="white" stroke="black" stroke-width="1"/>
  <text x="178" y="597" font-family="Arial" font-size="10" text-anchor="middle">비공개</text>
  
  <!-- 대시보드 카드 4 (터치 영역 전체) -->
  <rect x="16" y="625" width="343" height="110" fill="white" stroke="black" stroke-width="1"/>
  
  <!-- 썸네일 (좌측, 더 확대) -->
  <rect x="26" y="635" width="120" height="85" fill="white" stroke="lightgray" stroke-width="1" stroke-dasharray="2,2"/>
  <text x="86" y="682" font-family="Arial" font-size="10" text-anchor="middle" fill="gray">차트 미리보기</text>
  
  <!-- 정보 영역 (우측, 더 넓게) -->
  <text x="156" y="650" font-family="Arial" font-size="16" font-weight="bold">물가 안정성 분석</text>
  <text x="156" y="668" font-family="Arial" font-size="13" fill="gray">CPI, PPI 등 물가 관련 지표</text>
  <text x="156" y="685" font-family="Arial" font-size="12" fill="lightgray">최근 수정: 2025-05-18 11:45</text>
  <text x="156" y="700" font-family="Arial" font-size="12" fill="lightgray">조회수: 3,421 | 차트 4개</text>
  
  <!-- 대시보드 상태 (공개/비공개) -->
  <rect x="156" y="705" width="35" height="18" fill="white" stroke="black" stroke-width="1"/>
  <text x="173" y="717" font-family="Arial" font-size="10" text-anchor="middle">공개</text>
  
  <!-- 스크롤 인디케이터 (우측) -->
  <rect x="365" y="265" width="4" height="450" fill="white" stroke="lightgray" stroke-width="1"/>
  <rect x="366" y="320" width="2" height="120" fill="lightgray" stroke="none"/>
  
  <!-- 하단 안전 영역 (모바일 제스처/홈 인디케이터) -->
  <rect x="0" y="780" width="375" height="20" fill="white" stroke="black" stroke-width="1" stroke-dasharray="3,3"/>
  <text x="187" y="793" font-family="Arial" font-size="10" text-anchor="middle" fill="lightgray">안전 영역</text>
  
  <!-- 제스처 가이드 -->
  <text x="187" y="260" font-family="Arial" font-size="9" text-anchor="middle" fill="lightgray">카드를 탭하여 열기, 길게 눌러 메뉴</text>
</svg>