<svg width="1024" height="800" xmlns="http://www.w3.org/2000/svg">
  <!-- 헤더 -->
  <rect x="0" y="0" width="1024" height="60" fill="white" stroke="black" stroke-width="1"/>
  
  <!-- 햄버거 메뉴 아이콘 (좌측 사이드바 토글) -->
  <rect x="15" y="15" width="35" height="30" fill="white" stroke="black" stroke-width="1"/>
  <line x1="20" y1="22" x2="45" y2="22" stroke="black" stroke-width="2"/>
  <line x1="20" y1="30" x2="45" y2="30" stroke="black" stroke-width="2"/>
  <line x1="20" y1="38" x2="45" y2="38" stroke="black" stroke-width="2"/>
  
  <text x="70" y="35" font-family="Arial" font-size="18">E-Torch</text>
  <line x1="150" y1="15" x2="150" y2="45" stroke="black" stroke-width="1"/>
  
  <!-- 브레드크럼 영역 -->
  <text x="170" y="35" font-family="Arial" font-size="12">대시보드</text>
  
  <!-- 사용자 프로필 영역 (우측) -->
  <rect x="900" y="15" width="100" height="30" fill="white" stroke="black" stroke-width="1"/>
  <circle cx="915" cy="30" r="8" fill="white" stroke="black" stroke-width="1"/>
  <text x="935" y="35" font-family="Arial" font-size="11">사용자명</text>
  
  <!-- 페이지 헤더 영역 -->
  <rect x="0" y="60" width="1024" height="70" fill="white" stroke="black" stroke-width="1"/>
  <text x="20" y="85" font-family="Arial" font-size="20">내 대시보드</text>
  <text x="20" y="105" font-family="Arial" font-size="12" fill="gray">나만의 경제지표 대시보드를 만들고 관리하세요</text>
  <text x="20" y="120" font-family="Arial" font-size="10" fill="lightgray">총 6개의 대시보드 | 최근 활동: 2025-05-21 15:30</text>
  
  <!-- 컨트롤 영역 (간소화) -->
  <rect x="0" y="130" width="1024" height="50" fill="white" stroke="black" stroke-width="1"/>
  
  <!-- 검색 영역 -->
  <text x="20" y="157" font-family="Arial" font-size="11">검색:</text>
  <rect x="65" y="140" width="200" height="30" fill="white" stroke="black" stroke-width="1"/>
  <text x="75" y="159" font-family="Arial" font-size="10" fill="lightgray">대시보드 제목 또는 설명 검색</text>
  
  <line x1="285" y1="140" x2="285" y2="170" stroke="black" stroke-width="1"/>
  
  <!-- 정렬 옵션 -->
  <text x="305" y="157" font-family="Arial" font-size="11">정렬:</text>
  <rect x="340" y="140" width="120" height="30" fill="white" stroke="black" stroke-width="1"/>
  <text x="400" y="159" font-family="Arial" font-size="10" text-anchor="middle">최근 수정순 ▼</text>
  
  <line x1="480" y1="140" x2="480" y2="170" stroke="black" stroke-width="1"/>
  
  <!-- 필터 옵션 -->
  <text x="500" y="157" font-family="Arial" font-size="11">필터:</text>
  <rect x="535" y="140" width="100" height="30" fill="white" stroke="black" stroke-width="1"/>
  <text x="585" y="159" font-family="Arial" font-size="10" text-anchor="middle">전체 ▼</text>
  
  <!-- 새 대시보드 생성 버튼 (우측 정렬) -->
  <rect x="850" y="140" width="130" height="30" fill="white" stroke="black" stroke-width="2"/>
  <text x="915" y="159" font-family="Arial" font-size="11" text-anchor="middle">+ 새 대시보드</text>
  
  <!-- 뷰 옵션 (그리드/리스트) -->
  <rect x="780" y="140" width="30" height="30" fill="white" stroke="black" stroke-width="1"/>
  <text x="795" y="159" font-family="Arial" font-size="11" text-anchor="middle">⊞</text>
  
  <rect x="820" y="140" width="30" height="30" fill="white" stroke="black" stroke-width="1"/>
  <text x="835" y="159" font-family="Arial" font-size="11" text-anchor="middle">☰</text>
  
  <!-- 메인 콘텐츠 영역 (대시보드 카드 그리드 - 3열) -->
  <rect x="0" y="180" width="1024" height="620" fill="white" stroke="black" stroke-width="1"/>
  
  <!-- 대시보드 카드 1 (좌측 상단) -->
  <rect x="20" y="200" width="320" height="180" fill="white" stroke="black" stroke-width="1"/>
  
  <!-- 카드 썸네일 영역 -->
  <rect x="30" y="210" width="300" height="100" fill="white" stroke="lightgray" stroke-width="1" stroke-dasharray="2,2"/>
  <text x="180" y="265" font-family="Arial" font-size="11" text-anchor="middle" fill="gray">차트 미리보기</text>
  
  <!-- 카드 정보 영역 -->
  <text x="30" y="330" font-family="Arial" font-size="13" font-weight="bold">경제 동향 대시보드</text>
  <text x="30" y="345" font-family="Arial" font-size="10" fill="gray">주요 경제지표의 최근 동향 파악</text>
  <text x="30" y="360" font-family="Arial" font-size="9" fill="lightgray">최근 수정: 2025-05-21 15:30</text>
  
  <!-- 카드 액션 버튼들 (제목 라인과 같은 높이) -->
  <rect x="280" y="320" width="25" height="20" fill="white" stroke="black" stroke-width="1"/>
  <text x="292" y="332" font-family="Arial" font-size="10" text-anchor="middle">⋮</text>
  
  <rect x="310" y="320" width="25" height="20" fill="white" stroke="black" stroke-width="1"/>
  <text x="322" y="332" font-family="Arial" font-size="10" text-anchor="middle">↗</text>
  
  <!-- 대시보드 카드 2 (중앙 상단) -->
  <rect x="360" y="200" width="320" height="180" fill="white" stroke="black" stroke-width="1"/>
  
  <!-- 카드 썸네일 영역 -->
  <rect x="370" y="210" width="300" height="100" fill="white" stroke="lightgray" stroke-width="1" stroke-dasharray="2,2"/>
  <text x="520" y="265" font-family="Arial" font-size="11" text-anchor="middle" fill="gray">차트 미리보기</text>
  
  <!-- 카드 정보 영역 -->
  <text x="370" y="330" font-family="Arial" font-size="13" font-weight="bold">금융시장 분석</text>
  <text x="370" y="345" font-family="Arial" font-size="10" fill="gray">주식, 채권, 환율 통합 분석</text>
  <text x="370" y="360" font-family="Arial" font-size="9" fill="lightgray">최근 수정: 2025-05-20 09:15</text>
  
  <!-- 카드 액션 버튼들 (제목 라인과 같은 높이) -->
  <rect x="620" y="320" width="25" height="20" fill="white" stroke="black" stroke-width="1"/>
  <text x="632" y="332" font-family="Arial" font-size="10" text-anchor="middle">⋮</text>
  
  <rect x="650" y="320" width="25" height="20" fill="white" stroke="black" stroke-width="1"/>
  <text x="662" y="332" font-family="Arial" font-size="10" text-anchor="middle">↗</text>
  
  <!-- 대시보드 카드 3 (우측 상단) -->
  <rect x="700" y="200" width="304" height="180" fill="white" stroke="black" stroke-width="1"/>
  
  <!-- 카드 썸네일 영역 -->
  <rect x="710" y="210" width="284" height="100" fill="white" stroke="lightgray" stroke-width="1" stroke-dasharray="2,2"/>
  <text x="852" y="265" font-family="Arial" font-size="11" text-anchor="middle" fill="gray">차트 미리보기</text>
  
  <!-- 카드 정보 영역 -->
  <text x="710" y="330" font-family="Arial" font-size="13" font-weight="bold">부동산 시장 동향</text>
  <text x="710" y="345" font-family="Arial" font-size="10" fill="gray">주택가격, 전세가율 등 부동산 지표</text>
  <text x="710" y="360" font-family="Arial" font-size="9" fill="lightgray">최근 수정: 2025-05-19 14:22</text>
  
  <!-- 카드 액션 버튼들 (제목 라인과 같은 높이) -->
  <rect x="940" y="320" width="25" height="20" fill="white" stroke="black" stroke-width="1"/>
  <text x="952" y="332" font-family="Arial" font-size="10" text-anchor="middle">⋮</text>
  
  <rect x="970" y="320" width="29" height="20" fill="white" stroke="black" stroke-width="1"/>
  <text x="984" y="332" font-family="Arial" font-size="10" text-anchor="middle">↗</text>
  
  <!-- 두 번째 줄 대시보드 카드들 -->
  
  <!-- 대시보드 카드 4 (좌측 하단) -->
  <rect x="20" y="400" width="320" height="180" fill="white" stroke="black" stroke-width="1"/>
  
  <!-- 카드 썸네일 영역 -->
  <rect x="30" y="410" width="300" height="100" fill="white" stroke="lightgray" stroke-width="1" stroke-dasharray="2,2"/>
  <text x="180" y="465" font-family="Arial" font-size="11" text-anchor="middle" fill="gray">차트 미리보기</text>
  
  <!-- 카드 정보 영역 -->
  <text x="30" y="530" font-family="Arial" font-size="13" font-weight="bold">고용 시장 분석</text>
  <text x="30" y="545" font-family="Arial" font-size="10" fill="gray">실업률, 고용률 등 노동시장 지표</text>
  <text x="30" y="560" font-family="Arial" font-size="9" fill="lightgray">최근 수정: 2025-05-17 16:20</text>
  
  <!-- 카드 액션 버튼들 (제목 라인과 같은 높이) -->
  <rect x="280" y="520" width="25" height="20" fill="white" stroke="black" stroke-width="1"/>
  <text x="292" y="532" font-family="Arial" font-size="10" text-anchor="middle">⋮</text>
  
  <rect x="310" y="520" width="25" height="20" fill="white" stroke="black" stroke-width="1"/>
  <text x="322" y="532" font-family="Arial" font-size="10" text-anchor="middle">↗</text>
  
  <!-- 대시보드 카드 5 (중앙 하단) -->
  <rect x="360" y="400" width="320" height="180" fill="white" stroke="black" stroke-width="1"/>
  
  <!-- 카드 썸네일 영역 -->
  <rect x="370" y="410" width="300" height="100" fill="white" stroke="lightgray" stroke-width="1" stroke-dasharray="2,2"/>
  <text x="520" y="465" font-family="Arial" font-size="11" text-anchor="middle" fill="gray">차트 미리보기</text>
  
  <!-- 카드 정보 영역 -->
  <text x="370" y="530" font-family="Arial" font-size="13" font-weight="bold">무역 수지 현황</text>
  <text x="370" y="545" font-family="Arial" font-size="10" fill="gray">수출입, 무역수지 등 대외거래</text>
  <text x="370" y="560" font-family="Arial" font-size="9" fill="lightgray">최근 수정: 2025-05-16 13:10</text>
  
  <!-- 카드 액션 버튼들 (제목 라인과 같은 높이) -->
  <rect x="620" y="520" width="25" height="20" fill="white" stroke="black" stroke-width="1"/>
  <text x="632" y="532" font-family="Arial" font-size="10" text-anchor="middle">⋮</text>
  
  <rect x="650" y="520" width="25" height="20" fill="white" stroke="black" stroke-width="1"/>
  <text x="662" y="532" font-family="Arial" font-size="10" text-anchor="middle">↗</text>
  
  <!-- 대시보드 카드 6 (우측 하단) -->
  <rect x="700" y="400" width="304" height="180" fill="white" stroke="black" stroke-width="1"/>
  
  <!-- 카드 썸네일 영역 -->
  <rect x="710" y="410" width="284" height="100" fill="white" stroke="lightgray" stroke-width="1" stroke-dasharray="2,2"/>
  <text x="852" y="465" font-family="Arial" font-size="11" text-anchor="middle" fill="gray">차트 미리보기</text>
  
  <!-- 카드 정보 영역 -->
  <text x="710" y="530" font-family="Arial" font-size="13" font-weight="bold">통화정책 추이</text>
  <text x="710" y="545" font-family="Arial" font-size="10" fill="gray">기준금리, 통화량 등 통화정책</text>
  <text x="710" y="560" font-family="Arial" font-size="9" fill="lightgray">최근 수정: 2025-05-15 10:30</text>
  
  <!-- 카드 액션 버튼들 (제목 라인과 같은 높이) -->
  <rect x="940" y="520" width="25" height="20" fill="white" stroke="black" stroke-width="1"/>
  <text x="952" y="532" font-family="Arial" font-size="10" text-anchor="middle">⋮</text>
  
  <rect x="970" y="520" width="29" height="20" fill="white" stroke="black" stroke-width="1"/>
  <text x="984" y="532" font-family="Arial" font-size="10" text-anchor="middle">↗</text>
  
  <!-- 더 보기 영역 -->
  <rect x="20" y="600" width="984" height="50" fill="white" stroke="lightgray" stroke-width="1" stroke-dasharray="3,3"/>
  <text x="512" y="630" font-family="Arial" font-size="12" text-anchor="middle" fill="gray">더 많은 대시보드 보기</text>
  
  <!-- 통계 정보 (하단) -->
  <rect x="20" y="660" width="984" height="40" fill="white" stroke="lightgray" stroke-width="1"/>
  <text x="30" y="685" font-family="Arial" font-size="11" fill="gray">총 6개 대시보드 | 이번 주 업데이트: 4개 | 평균 조회수: 187</text>
  
  <!-- 빠른 액션 버튼들 (우측 하단) -->
  <text x="800" y="685" font-family="Arial" font-size="11" fill="gray">빠른 작업:</text>
  <rect x="870" y="670" width="60" height="25" fill="white" stroke="black" stroke-width="1"/>
  <text x="900" y="685" font-family="Arial" font-size="10" text-anchor="middle">템플릿</text>
  
  <rect x="940" y="670" width="60" height="25" fill="white" stroke="black" stroke-width="1"/>
  <text x="970" y="685" font-family="Arial" font-size="10" text-anchor="middle">가져오기</text>
  
  <!-- 접힌 사이드바 표시 (좌측 보조선) -->
  <line x1="5" y1="60" x2="5" y2="800" stroke="gray" stroke-width="2" stroke-dasharray="5,5"/>
  <text x="12" y="400" font-family="Arial" font-size="10" fill="gray" transform="rotate(-90 12 400)">사이드바 (접힘)</text>
</svg>