<svg width="375" height="812" xmlns="http://www.w3.org/2000/svg">
  <!-- 헤더 -->
  <rect x="0" y="0" width="375" height="60" fill="white" stroke="black" stroke-width="1"/>
  <text x="15" y="35" font-family="Arial" font-size="18">E-Torch</text>
  <line x1="90" y1="15" x2="90" y2="45" stroke="black" stroke-width="1"/>
  <text x="105" y="35" font-family="Arial" font-size="14">대시보드</text>
  
  <!-- 햄버거 메뉴 아이콘 (모바일) -->
  <rect x="335" y="20" width="25" height="3" fill="black" stroke="none"/>
  <rect x="335" y="30" width="25" height="3" fill="black" stroke="none"/>
  <rect x="335" y="40" width="25" height="3" fill="black" stroke="none"/>
  
  <!-- 대시보드 컨텐츠 영역 -->
  <rect x="0" y="60" width="375" height="90" fill="white" stroke="black" stroke-width="1"/>
  <text x="15" y="85" font-family="Arial" font-size="18">내 대시보드</text>
  <rect x="15" y="100" width="240" height="35" fill="white" stroke="black" stroke-width="1"/>
  <text x="25" y="123" font-family="Arial" font-size="14">검색...</text>
  <rect x="265" y="100" width="95" height="35" fill="white" stroke="black" stroke-width="1"/>
  <text x="275" y="123" font-family="Arial" font-size="14">+ 추가</text>
  
  <!-- 대시보드 카드 - 세로로 배치 -->
  <!-- 첫 번째 카드 -->
  <rect x="15" y="170" width="345" height="180" fill="white" stroke="black" stroke-width="1"/>
  <rect x="25" y="185" width="325" height="125" fill="white" stroke="lightgray" stroke-width="1"/>
  <text x="35" y="205" font-family="Arial" font-size="16">경제 동향 대시보드</text>
  <line x1="25" y1="215" x2="350" y2="215" stroke="lightgray" stroke-width="1"/>
  <rect x="35" y="225" width="305" height="70" fill="white" stroke="lightgray" stroke-width="1" stroke-dasharray="5,5"/>
  <text x="187" y="260" font-family="Arial" font-size="12" text-anchor="middle">차트 미리보기</text>
  <text x="35" y="335" font-family="Arial" font-size="10">최종 업데이트: 2024-05-15</text>
  
  <!-- 두 번째 카드 -->
  <rect x="15" y="370" width="345" height="180" fill="white" stroke="black" stroke-width="1"/>
  <rect x="25" y="385" width="325" height="125" fill="white" stroke="lightgray" stroke-width="1"/>
  <text x="35" y="405" font-family="Arial" font-size="16">물가 동향 대시보드</text>
  <line x1="25" y1="415" x2="350" y2="415" stroke="lightgray" stroke-width="1"/>
  <rect x="35" y="425" width="305" height="70" fill="white" stroke="lightgray" stroke-width="1" stroke-dasharray="5,5"/>
  <text x="187" y="460" font-family="Arial" font-size="12" text-anchor="middle">차트 미리보기</text>
  <text x="35" y="535" font-family="Arial" font-size="10">최종 업데이트: 2024-05-10</text>
  
  <!-- 세 번째 카드 -->
  <rect x="15" y="570" width="345" height="180" fill="white" stroke="black" stroke-width="1"/>
  <rect x="25" y="585" width="325" height="125" fill="white" stroke="lightgray" stroke-width="1"/>
  <text x="35" y="605" font-family="Arial" font-size="16">금리/환율 대시보드</text>
  <line x1="25" y1="615" x2="350" y2="615" stroke="lightgray" stroke-width="1"/>
  <rect x="35" y="625" width="305" height="70" fill="white" stroke="lightgray" stroke-width="1" stroke-dasharray="5,5"/>
  <text x="187" y="660" font-family="Arial" font-size="12" text-anchor="middle">차트 미리보기</text>
  <text x="35" y="735" font-family="Arial" font-size="10">최종 업데이트: 2024-05-01</text>
  
  <!-- 페이지네이션 -->
  <rect x="110" y="770" width="155" height="30" fill="white" stroke="black" stroke-width="1"/>
  <line x1="141" y1="770" x2="141" y2="800" stroke="black" stroke-width="1"/>
  <line x1="172" y1="770" x2="172" y2="800" stroke="black" stroke-width="1"/>
  <line x1="203" y1="770" x2="203" y2="800" stroke="black" stroke-width="1"/>
  <line x1="234" y1="770" x2="234" y2="800" stroke="black" stroke-width="1"/>
  
  <text x="125" y="790" font-family="Arial" font-size="14" text-anchor="middle">1</text>
  <text x="156" y="790" font-family="Arial" font-size="14" text-anchor="middle">2</text>
  <text x="187" y="790" font-family="Arial" font-size="14" text-anchor="middle">3</text>
  <text x="219" y="790" font-family="Arial" font-size="14" text-anchor="middle">4</text>
  <text x="250" y="790" font-family="Arial" font-size="14" text-anchor="middle">></text>
</svg>